<svg xmlns="http://www.w3.org/2000/svg" xmlns:xlink="http://www.w3.org/1999/xlink" width="1080" zoomAndPan="magnify" viewBox="0 0 810 809.999993" height="1080" preserveAspectRatio="xMidYMid meet" version="1.0"><defs><filter x="0%" y="0%" width="100%" height="100%" id="8386d904b4"><feColorMatrix values="0 0 0 0 1 0 0 0 0 1 0 0 0 0 1 0 0 0 1 0" color-interpolation-filters="sRGB"/></filter><mask id="4a5ee688e6"><g filter="url(#8386d904b4)"><rect x="-81" width="972" fill="#000000" y="-80.999999" height="971.999992" fill-opacity="0.05"/></g></mask><clipPath id="5fcd5c7e84"><path d="M 0 799 L 810 799 L 810 810 L 0 810 Z M 0 799 " clip-rule="nonzero"/></clipPath><clipPath id="44d021f270"><path d="M 0 679 L 810 679 L 810 699 L 0 699 Z M 0 679 " clip-rule="nonzero"/></clipPath><clipPath id="71c4949f42"><path d="M 0 769 L 810 769 L 810 788 L 0 788 Z M 0 769 " clip-rule="nonzero"/></clipPath><clipPath id="e383401a76"><path d="M 0 619 L 810 619 L 810 639 L 0 639 Z M 0 619 " clip-rule="nonzero"/></clipPath><clipPath id="6e84f8a895"><path d="M 0 739 L 810 739 L 810 758 L 0 758 Z M 0 739 " clip-rule="nonzero"/></clipPath><clipPath id="0e1b0b1e04"><path d="M 0 559 L 810 559 L 810 579 L 0 579 Z M 0 559 " clip-rule="nonzero"/></clipPath><clipPath id="b5e6db2e4b"><path d="M 0 709 L 810 709 L 810 728 L 0 728 Z M 0 709 " clip-rule="nonzero"/></clipPath><clipPath id="ca5854db74"><path d="M 0 500 L 810 500 L 810 519 L 0 519 Z M 0 500 " clip-rule="nonzero"/></clipPath><clipPath id="b73470df56"><path d="M 0 649 L 810 649 L 810 669 L 0 669 Z M 0 649 " clip-rule="nonzero"/></clipPath><clipPath id="97d66715c7"><path d="M 0 440 L 810 440 L 810 459 L 0 459 Z M 0 440 " clip-rule="nonzero"/></clipPath><clipPath id="1a38709454"><path d="M 0 589 L 810 589 L 810 609 L 0 609 Z M 0 589 " clip-rule="nonzero"/></clipPath><clipPath id="8edd5dc812"><path d="M 0 380 L 810 380 L 810 399 L 0 399 Z M 0 380 " clip-rule="nonzero"/></clipPath><clipPath id="569a469f01"><path d="M 0 530 L 810 530 L 810 549 L 0 549 Z M 0 530 " clip-rule="nonzero"/></clipPath><clipPath id="e18d75830e"><path d="M 0 320 L 810 320 L 810 340 L 0 340 Z M 0 320 " clip-rule="nonzero"/></clipPath><clipPath id="a656c1263b"><path d="M 0 470 L 810 470 L 810 489 L 0 489 Z M 0 470 " clip-rule="nonzero"/></clipPath><clipPath id="7d25870c43"><path d="M 0 260 L 810 260 L 810 280 L 0 280 Z M 0 260 " clip-rule="nonzero"/></clipPath><clipPath id="303002decb"><path d="M 0 410 L 810 410 L 810 429 L 0 429 Z M 0 410 " clip-rule="nonzero"/></clipPath><clipPath id="dd2a7e68b9"><path d="M 0 200 L 810 200 L 810 220 L 0 220 Z M 0 200 " clip-rule="nonzero"/></clipPath><clipPath id="a247ac5c1a"><path d="M 0 350 L 810 350 L 810 369 L 0 369 Z M 0 350 " clip-rule="nonzero"/></clipPath><clipPath id="1eb67c4df9"><path d="M 0 141 L 810 141 L 810 160 L 0 160 Z M 0 141 " clip-rule="nonzero"/></clipPath><clipPath id="80c7957ae6"><path d="M 0 290 L 810 290 L 810 310 L 0 310 Z M 0 290 " clip-rule="nonzero"/></clipPath><clipPath id="f66214ecde"><path d="M 0 81 L 810 81 L 810 100 L 0 100 Z M 0 81 " clip-rule="nonzero"/></clipPath><clipPath id="a6e7f1eb98"><path d="M 0 230 L 810 230 L 810 250 L 0 250 Z M 0 230 " clip-rule="nonzero"/></clipPath><clipPath id="48af7d6a6d"><path d="M 0 51 L 810 51 L 810 70 L 0 70 Z M 0 51 " clip-rule="nonzero"/></clipPath><clipPath id="8076ad327e"><path d="M 0 171 L 810 171 L 810 190 L 0 190 Z M 0 171 " clip-rule="nonzero"/></clipPath><clipPath id="ce1e7ef982"><path d="M 0 21 L 810 21 L 810 40 L 0 40 Z M 0 21 " clip-rule="nonzero"/></clipPath><clipPath id="5c4910714e"><path d="M 0 111 L 810 111 L 810 130 L 0 130 Z M 0 111 " clip-rule="nonzero"/></clipPath><clipPath id="c4d5c28ffa"><path d="M 0 0 L 810 0 L 810 10 L 0 10 Z M 0 0 " clip-rule="nonzero"/></clipPath><clipPath id="c88a308875"><path d="M 0 0 L 11 0 L 11 810 L 0 810 Z M 0 0 " clip-rule="nonzero"/></clipPath><clipPath id="e9a5a10c35"><path d="M 111 0 L 131 0 L 131 810 L 111 810 Z M 111 0 " clip-rule="nonzero"/></clipPath><clipPath id="e673eec045"><path d="M 22 0 L 41 0 L 41 810 L 22 810 Z M 22 0 " clip-rule="nonzero"/></clipPath><clipPath id="0e38463dbd"><path d="M 171 0 L 191 0 L 191 810 L 171 810 Z M 171 0 " clip-rule="nonzero"/></clipPath><clipPath id="ffce5c6680"><path d="M 52 0 L 71 0 L 71 810 L 52 810 Z M 52 0 " clip-rule="nonzero"/></clipPath><clipPath id="2b8f6885a4"><path d="M 231 0 L 251 0 L 251 810 L 231 810 Z M 231 0 " clip-rule="nonzero"/></clipPath><clipPath id="0e7787b027"><path d="M 82 0 L 101 0 L 101 810 L 82 810 Z M 82 0 " clip-rule="nonzero"/></clipPath><clipPath id="5efc4f2045"><path d="M 291 0 L 310 0 L 310 810 L 291 810 Z M 291 0 " clip-rule="nonzero"/></clipPath><clipPath id="526afd84bf"><path d="M 141 0 L 161 0 L 161 810 L 141 810 Z M 141 0 " clip-rule="nonzero"/></clipPath><clipPath id="c3f61194c5"><path d="M 351 0 L 370 0 L 370 810 L 351 810 Z M 351 0 " clip-rule="nonzero"/></clipPath><clipPath id="c0f7398b42"><path d="M 201 0 L 221 0 L 221 810 L 201 810 Z M 201 0 " clip-rule="nonzero"/></clipPath><clipPath id="08c18c596e"><path d="M 411 0 L 430 0 L 430 810 L 411 810 Z M 411 0 " clip-rule="nonzero"/></clipPath><clipPath id="9a9580c18f"><path d="M 261 0 L 280 0 L 280 810 L 261 810 Z M 261 0 " clip-rule="nonzero"/></clipPath><clipPath id="e282308d78"><path d="M 470 0 L 490 0 L 490 810 L 470 810 Z M 470 0 " clip-rule="nonzero"/></clipPath><clipPath id="492f4b2b5f"><path d="M 321 0 L 340 0 L 340 810 L 321 810 Z M 321 0 " clip-rule="nonzero"/></clipPath><clipPath id="d0b6e1b7a1"><path d="M 530 0 L 550 0 L 550 810 L 530 810 Z M 530 0 " clip-rule="nonzero"/></clipPath><clipPath id="6878fd7ab3"><path d="M 381 0 L 400 0 L 400 810 L 381 810 Z M 381 0 " clip-rule="nonzero"/></clipPath><clipPath id="462724e25f"><path d="M 590 0 L 610 0 L 610 810 L 590 810 Z M 590 0 " clip-rule="nonzero"/></clipPath><clipPath id="0292e38d91"><path d="M 441 0 L 460 0 L 460 810 L 441 810 Z M 441 0 " clip-rule="nonzero"/></clipPath><clipPath id="bf098bdf5e"><path d="M 650 0 L 669 0 L 669 810 L 650 810 Z M 650 0 " clip-rule="nonzero"/></clipPath><clipPath id="dcc023f910"><path d="M 500 0 L 520 0 L 520 810 L 500 810 Z M 500 0 " clip-rule="nonzero"/></clipPath><clipPath id="11a4c5a8ff"><path d="M 710 0 L 729 0 L 729 810 L 710 810 Z M 710 0 " clip-rule="nonzero"/></clipPath><clipPath id="8fce7abb14"><path d="M 560 0 L 580 0 L 580 810 L 560 810 Z M 560 0 " clip-rule="nonzero"/></clipPath><clipPath id="c818396900"><path d="M 740 0 L 759 0 L 759 810 L 740 810 Z M 740 0 " clip-rule="nonzero"/></clipPath><clipPath id="9b09df2101"><path d="M 620 0 L 639 0 L 639 810 L 620 810 Z M 620 0 " clip-rule="nonzero"/></clipPath><clipPath id="7d7f6701da"><path d="M 770 0 L 789 0 L 789 810 L 770 810 Z M 770 0 " clip-rule="nonzero"/></clipPath><clipPath id="f2728e59b7"><path d="M 680 0 L 699 0 L 699 810 L 680 810 Z M 680 0 " clip-rule="nonzero"/></clipPath><clipPath id="57c140c2ef"><path d="M 800 0 L 810 0 L 810 810 L 800 810 Z M 800 0 " clip-rule="nonzero"/></clipPath><clipPath id="ee22b86dc7"><rect x="0" width="810" y="0" height="810"/></clipPath></defs><g mask="url(#4a5ee688e6)"><g transform="matrix(1, 0, 0, 1, 0, 0.000000000000039746)"><g clip-path="url(#ee22b86dc7)"><g clip-path="url(#5fcd5c7e84)"><path stroke-linecap="butt" transform="matrix(0.749999, 0.00138889, -0.00138889, 0.749999, 0.377087, 807.000675)" fill="none" stroke-linejoin="miter" d="M -0.000932204 0.999103 L 1080.001023 0.999104 " stroke="#000000" stroke-width="2" stroke-opacity="1" stroke-miterlimit="4"/></g><g clip-path="url(#44d021f270)"><path stroke-linecap="butt" transform="matrix(0.749999, 0.00138889, -0.00138889, 0.749999, 0.377087, 687.334017)" fill="none" stroke-linejoin="miter" d="M -0.000925795 1.002564 L 1080.001029 1.002565 " stroke="#000000" stroke-width="2" stroke-opacity="1" stroke-miterlimit="4"/></g><g clip-path="url(#71c4949f42)"><path stroke-linecap="butt" transform="matrix(0.749999, 0.00138889, -0.00138889, 0.749999, 0.377087, 777.084005)" fill="none" stroke-linejoin="miter" d="M -0.000925765 1.00258 L 1080.001029 1.002582 " stroke="#000000" stroke-width="2" stroke-opacity="1" stroke-miterlimit="4"/></g><g clip-path="url(#e383401a76)"><path stroke-linecap="butt" transform="matrix(0.749999, 0.00138889, -0.00138889, 0.749999, 0.377087, 627.500676)" fill="none" stroke-linejoin="miter" d="M -0.000932207 0.999102 L 1080.001023 0.999103 " stroke="#000000" stroke-width="2" stroke-opacity="1" stroke-miterlimit="4"/></g><g clip-path="url(#6e84f8a895)"><path stroke-linecap="butt" transform="matrix(0.749999, 0.00138889, -0.00138889, 0.749999, 0.377087, 747.167334)" fill="none" stroke-linejoin="miter" d="M -0.00092897 1.000849 L 1080.001026 1.000851 " stroke="#000000" stroke-width="2" stroke-opacity="1" stroke-miterlimit="4"/></g><g clip-path="url(#0e1b0b1e04)"><path stroke-linecap="butt" transform="matrix(0.749999, 0.00138889, -0.00138889, 0.749999, 0.377087, 567.667383)" fill="none" stroke-linejoin="miter" d="M -0.000929091 1.000784 L 1080.001026 1.000785 " stroke="#000000" stroke-width="2" stroke-opacity="1" stroke-miterlimit="4"/></g><g clip-path="url(#b5e6db2e4b)"><path stroke-linecap="butt" transform="matrix(0.749999, 0.00138889, -0.00138889, 0.749999, 0.377087, 717.250712)" fill="none" stroke-linejoin="miter" d="M -0.000932294 0.999054 L 1080.001023 0.999056 " stroke="#000000" stroke-width="2" stroke-opacity="1" stroke-miterlimit="4"/></g><g clip-path="url(#ca5854db74)"><path stroke-linecap="butt" transform="matrix(0.749999, 0.00138889, -0.00138889, 0.749999, 0.377087, 507.834018)" fill="none" stroke-linejoin="miter" d="M -0.000925798 1.002562 L 1080.001029 1.002563 " stroke="#000000" stroke-width="2" stroke-opacity="1" stroke-miterlimit="4"/></g><g clip-path="url(#b73470df56)"><path stroke-linecap="butt" transform="matrix(0.749999, 0.00138889, -0.00138889, 0.749999, 0.377087, 657.417347)" fill="none" stroke-linejoin="miter" d="M -0.000929001 1.000833 L 1080.001026 1.000834 " stroke="#000000" stroke-width="2" stroke-opacity="1" stroke-miterlimit="4"/></g><g clip-path="url(#97d66715c7)"><path stroke-linecap="butt" transform="matrix(0.749999, 0.00138889, -0.00138889, 0.749999, 0.377087, 448.000701)" fill="none" stroke-linejoin="miter" d="M -0.000932268 0.999068 L 1080.001023 0.999069 " stroke="#000000" stroke-width="2" stroke-opacity="1" stroke-miterlimit="4"/></g><g clip-path="url(#1a38709454)"><path stroke-linecap="butt" transform="matrix(0.749999, 0.00138889, -0.00138889, 0.749999, 0.377087, 597.584054)" fill="none" stroke-linejoin="miter" d="M -0.000925886 1.002515 L 1080.001029 1.002516 " stroke="#000000" stroke-width="2" stroke-opacity="1" stroke-miterlimit="4"/></g><g clip-path="url(#8edd5dc812)"><path stroke-linecap="butt" transform="matrix(0.749999, 0.00138889, -0.00138889, 0.749999, 0.377087, 388.167334)" fill="none" stroke-linejoin="miter" d="M -0.000928969 1.00085 L 1080.001026 1.000851 " stroke="#000000" stroke-width="2" stroke-opacity="1" stroke-miterlimit="4"/></g><g clip-path="url(#569a469f01)"><path stroke-linecap="butt" transform="matrix(0.749999, 0.00138889, -0.00138889, 0.749999, 0.377087, 537.750689)" fill="none" stroke-linejoin="miter" d="M -0.000932237 0.999085 L 1080.001023 0.999086 " stroke="#000000" stroke-width="2" stroke-opacity="1" stroke-miterlimit="4"/></g><g clip-path="url(#e18d75830e)"><path stroke-linecap="butt" transform="matrix(0.749999, 0.00138889, -0.00138889, 0.749999, 0.377087, 328.334007)" fill="none" stroke-linejoin="miter" d="M -0.000925771 1.002577 L 1080.001029 1.002578 " stroke="#000000" stroke-width="2" stroke-opacity="1" stroke-miterlimit="4"/></g><g clip-path="url(#a656c1263b)"><path stroke-linecap="butt" transform="matrix(0.749999, 0.00138889, -0.00138889, 0.749999, 0.377087, 477.917348)" fill="none" stroke-linejoin="miter" d="M -0.000929004 1.000831 L 1080.001026 1.000832 " stroke="#000000" stroke-width="2" stroke-opacity="1" stroke-miterlimit="4"/></g><g clip-path="url(#7d25870c43)"><path stroke-linecap="butt" transform="matrix(0.749999, 0.00138889, -0.00138889, 0.749999, 0.377087, 268.50071)" fill="none" stroke-linejoin="miter" d="M -0.000932289 0.999057 L 1080.001023 0.999059 " stroke="#000000" stroke-width="2" stroke-opacity="1" stroke-miterlimit="4"/></g><g clip-path="url(#303002decb)"><path stroke-linecap="butt" transform="matrix(0.749999, 0.00138889, -0.00138889, 0.749999, 0.377087, 418.084031)" fill="none" stroke-linejoin="miter" d="M -0.000925829 1.002546 L 1080.001029 1.002547 " stroke="#000000" stroke-width="2" stroke-opacity="1" stroke-miterlimit="4"/></g><g clip-path="url(#dd2a7e68b9)"><path stroke-linecap="butt" transform="matrix(0.749999, 0.00138889, -0.00138889, 0.749999, 0.377087, 208.667354)" fill="none" stroke-linejoin="miter" d="M -0.000929019 1.000823 L 1080.001026 1.000824 " stroke="#000000" stroke-width="2" stroke-opacity="1" stroke-miterlimit="4"/></g><g clip-path="url(#a247ac5c1a)"><path stroke-linecap="butt" transform="matrix(0.749999, 0.00138889, -0.00138889, 0.749999, 0.377087, 358.250714)" fill="none" stroke-linejoin="miter" d="M -0.000932299 0.999052 L 1080.001023 0.999053 " stroke="#000000" stroke-width="2" stroke-opacity="1" stroke-miterlimit="4"/></g><g clip-path="url(#1eb67c4df9)"><path stroke-linecap="butt" transform="matrix(0.749999, 0.00138889, -0.00138889, 0.749999, 0.377087, 148.834057)" fill="none" stroke-linejoin="miter" d="M -0.000925892 1.002512 L 1080.001029 1.002513 " stroke="#000000" stroke-width="2" stroke-opacity="1" stroke-miterlimit="4"/></g><g clip-path="url(#80c7957ae6)"><path stroke-linecap="butt" transform="matrix(0.749999, 0.00138889, -0.00138889, 0.749999, 0.377087, 298.417387)" fill="none" stroke-linejoin="miter" d="M -0.000929101 1.000779 L 1080.001026 1.00078 " stroke="#000000" stroke-width="2" stroke-opacity="1" stroke-miterlimit="4"/></g><g clip-path="url(#f66214ecde)"><path stroke-linecap="butt" transform="matrix(0.749999, 0.00138889, -0.00138889, 0.749999, 0.377087, 89.000699)" fill="none" stroke-linejoin="miter" d="M -0.000932262 0.999072 L 1080.001023 0.999073 " stroke="#000000" stroke-width="2" stroke-opacity="1" stroke-miterlimit="4"/></g><g clip-path="url(#a6e7f1eb98)"><path stroke-linecap="butt" transform="matrix(0.749999, 0.00138889, -0.00138889, 0.749999, 0.377087, 238.584032)" fill="none" stroke-linejoin="miter" d="M -0.000925831 1.002544 L 1080.001029 1.002545 " stroke="#000000" stroke-width="2" stroke-opacity="1" stroke-miterlimit="4"/></g><g clip-path="url(#48af7d6a6d)"><path stroke-linecap="butt" transform="matrix(0.749999, 0.00138889, -0.00138889, 0.749999, 0.377087, 59.084079)" fill="none" stroke-linejoin="miter" d="M -0.000925947 1.002482 L 1080.001029 1.002483 " stroke="#000000" stroke-width="2" stroke-opacity="1" stroke-miterlimit="4"/></g><g clip-path="url(#8076ad327e)"><path stroke-linecap="butt" transform="matrix(0.749999, 0.00138889, -0.00138889, 0.749999, 0.377087, 178.750734)" fill="none" stroke-linejoin="miter" d="M -0.000932349 0.999025 L 1080.001023 0.999026 " stroke="#000000" stroke-width="2" stroke-opacity="1" stroke-miterlimit="4"/></g><g clip-path="url(#ce1e7ef982)"><path stroke-linecap="butt" transform="matrix(0.749999, 0.00138889, -0.00138889, 0.749999, 0.377087, 29.167343)" fill="none" stroke-linejoin="miter" d="M -0.000928991 1.000838 L 1080.001026 1.000839 " stroke="#000000" stroke-width="2" stroke-opacity="1" stroke-miterlimit="4"/></g><g clip-path="url(#5c4910714e)"><path stroke-linecap="butt" transform="matrix(0.749999, 0.00138889, -0.00138889, 0.749999, 0.377087, 118.917376)" fill="none" stroke-linejoin="miter" d="M -0.000929074 1.000793 L 1080.001026 1.000795 " stroke="#000000" stroke-width="2" stroke-opacity="1" stroke-miterlimit="4"/></g><g clip-path="url(#c4d5c28ffa)"><path stroke-linecap="butt" transform="matrix(0.749999, 0.00138889, -0.00138889, 0.749999, 0.377087, -0.749277)" fill="none" stroke-linejoin="miter" d="M -0.000932322 0.999039 L 1080.001023 0.999041 " stroke="#000000" stroke-width="2" stroke-opacity="1" stroke-miterlimit="4"/></g><g clip-path="url(#c88a308875)"><path stroke-linecap="butt" transform="matrix(-0.00138889, 0.749999, -0.749999, -0.00138889, 3, -0.372226)" fill="none" stroke-linejoin="miter" d="M -0.00184671 1.000005 L 1080.000108 1.000004 " stroke="#000000" stroke-width="2" stroke-opacity="1" stroke-miterlimit="4"/></g><g clip-path="url(#e9a5a10c35)"><path stroke-linecap="butt" transform="matrix(-0.00138889, 0.749999, -0.749999, -0.00138889, 122.666664, -0.372226)" fill="none" stroke-linejoin="miter" d="M -0.00184993 0.998265 L 1080.000105 0.998265 " stroke="#000000" stroke-width="2" stroke-opacity="1" stroke-miterlimit="4"/></g><g clip-path="url(#e673eec045)"><path stroke-linecap="butt" transform="matrix(-0.00138889, 0.749999, -0.749999, -0.00138889, 32.916663, -0.372226)" fill="none" stroke-linejoin="miter" d="M -0.00184993 0.998265 L 1080.000105 0.998264 " stroke="#000000" stroke-width="2" stroke-opacity="1" stroke-miterlimit="4"/></g><g clip-path="url(#0e38463dbd)"><path stroke-linecap="butt" transform="matrix(-0.00138889, 0.749999, -0.749999, -0.00138889, 182.499986, -0.372226)" fill="none" stroke-linejoin="miter" d="M -0.00184675 0.999986 L 1080.000108 0.999985 " stroke="#000000" stroke-width="2" stroke-opacity="1" stroke-miterlimit="4"/></g><g clip-path="url(#ffce5c6680)"><path stroke-linecap="butt" transform="matrix(-0.00138889, 0.749999, -0.749999, -0.00138889, 62.833337, -0.372226)" fill="none" stroke-linejoin="miter" d="M -0.00184349 1.001746 L 1080.000112 1.001746 " stroke="#000000" stroke-width="2" stroke-opacity="1" stroke-miterlimit="4"/></g><g clip-path="url(#2b8f6885a4)"><path stroke-linecap="butt" transform="matrix(-0.00138889, 0.749999, -0.749999, -0.00138889, 242.333327, -0.372226)" fill="none" stroke-linejoin="miter" d="M -0.00184351 1.001732 L 1080.000112 1.001732 " stroke="#000000" stroke-width="2" stroke-opacity="1" stroke-miterlimit="4"/></g><g clip-path="url(#0e7787b027)"><path stroke-linecap="butt" transform="matrix(-0.00138889, 0.749999, -0.749999, -0.00138889, 92.749993, -0.372226)" fill="none" stroke-linejoin="miter" d="M -0.00184673 0.999996 L 1080.000108 0.999996 " stroke="#000000" stroke-width="2" stroke-opacity="1" stroke-miterlimit="4"/></g><g clip-path="url(#5efc4f2045)"><path stroke-linecap="butt" transform="matrix(-0.00138889, 0.749999, -0.749999, -0.00138889, 302.166639, -0.372226)" fill="none" stroke-linejoin="miter" d="M -0.00185 0.998232 L 1080.000105 0.998231 " stroke="#000000" stroke-width="2" stroke-opacity="1" stroke-miterlimit="4"/></g><g clip-path="url(#526afd84bf)"><path stroke-linecap="butt" transform="matrix(-0.00138889, 0.749999, -0.749999, -0.00138889, 152.58332, -0.372226)" fill="none" stroke-linejoin="miter" d="M -0.00184353 1.001723 L 1080.000112 1.001723 " stroke="#000000" stroke-width="2" stroke-opacity="1" stroke-miterlimit="4"/></g><g clip-path="url(#c3f61194c5)"><path stroke-linecap="butt" transform="matrix(-0.00138889, 0.749999, -0.749999, -0.00138889, 361.999965, -0.372226)" fill="none" stroke-linejoin="miter" d="M -0.0018468 0.999959 L 1080.000108 0.999958 " stroke="#000000" stroke-width="2" stroke-opacity="1" stroke-miterlimit="4"/></g><g clip-path="url(#c0f7398b42)"><path stroke-linecap="butt" transform="matrix(-0.00138889, 0.749999, -0.749999, -0.00138889, 212.416663, -0.372226)" fill="none" stroke-linejoin="miter" d="M -0.00184994 0.998265 L 1080.000105 0.998264 " stroke="#000000" stroke-width="2" stroke-opacity="1" stroke-miterlimit="4"/></g><g clip-path="url(#08c18c596e)"><path stroke-linecap="butt" transform="matrix(-0.00138889, 0.749999, -0.749999, -0.00138889, 421.833318, -0.372226)" fill="none" stroke-linejoin="miter" d="M -0.00184353 1.001721 L 1080.000112 1.001721 " stroke="#000000" stroke-width="2" stroke-opacity="1" stroke-miterlimit="4"/></g><g clip-path="url(#9a9580c18f)"><path stroke-linecap="butt" transform="matrix(-0.00138889, 0.749999, -0.749999, -0.00138889, 272.24999, -0.372226)" fill="none" stroke-linejoin="miter" d="M -0.00184674 0.999992 L 1080.000108 0.999991 " stroke="#000000" stroke-width="2" stroke-opacity="1" stroke-miterlimit="4"/></g><g clip-path="url(#e282308d78)"><path stroke-linecap="butt" transform="matrix(-0.00138889, 0.749999, -0.749999, -0.00138889, 481.666659, -0.372226)" fill="none" stroke-linejoin="miter" d="M -0.00184994 0.998259 L 1080.000105 0.998259 " stroke="#000000" stroke-width="2" stroke-opacity="1" stroke-miterlimit="4"/></g><g clip-path="url(#492f4b2b5f)"><path stroke-linecap="butt" transform="matrix(-0.00138889, 0.749999, -0.749999, -0.00138889, 332.083316, -0.372226)" fill="none" stroke-linejoin="miter" d="M -0.00184354 1.001719 L 1080.000112 1.001718 " stroke="#000000" stroke-width="2" stroke-opacity="1" stroke-miterlimit="4"/></g><g clip-path="url(#d0b6e1b7a1)"><path stroke-linecap="butt" transform="matrix(-0.00138889, 0.749999, -0.749999, -0.00138889, 541.499976, -0.372226)" fill="none" stroke-linejoin="miter" d="M -0.00184677 0.999974 L 1080.000108 0.999973 " stroke="#000000" stroke-width="2" stroke-opacity="1" stroke-miterlimit="4"/></g><g clip-path="url(#6878fd7ab3)"><path stroke-linecap="butt" transform="matrix(-0.00138889, 0.749999, -0.749999, -0.00138889, 391.916643, -0.372226)" fill="none" stroke-linejoin="miter" d="M -0.00184998 0.998238 L 1080.000105 0.998237 " stroke="#000000" stroke-width="2" stroke-opacity="1" stroke-miterlimit="4"/></g><g clip-path="url(#462724e25f)"><path stroke-linecap="butt" transform="matrix(-0.00138889, 0.749999, -0.749999, -0.00138889, 601.333269, -0.372226)" fill="none" stroke-linejoin="miter" d="M -0.00184365 1.001656 L 1080.000111 1.001655 " stroke="#000000" stroke-width="2" stroke-opacity="1" stroke-miterlimit="4"/></g><g clip-path="url(#0292e38d91)"><path stroke-linecap="butt" transform="matrix(-0.00138889, 0.749999, -0.749999, -0.00138889, 451.749965, -0.372226)" fill="none" stroke-linejoin="miter" d="M -0.0018468 0.999958 L 1080.000108 0.999958 " stroke="#000000" stroke-width="2" stroke-opacity="1" stroke-miterlimit="4"/></g><g clip-path="url(#bf098bdf5e)"><path stroke-linecap="butt" transform="matrix(-0.00138889, 0.749999, -0.749999, -0.00138889, 661.166634, -0.372226)" fill="none" stroke-linejoin="miter" d="M -0.00185001 0.998226 L 1080.000105 0.998225 " stroke="#000000" stroke-width="2" stroke-opacity="1" stroke-miterlimit="4"/></g><g clip-path="url(#dcc023f910)"><path stroke-linecap="butt" transform="matrix(-0.00138889, 0.749999, -0.749999, -0.00138889, 511.583306, -0.372226)" fill="none" stroke-linejoin="miter" d="M -0.00184356 1.001705 L 1080.000112 1.001704 " stroke="#000000" stroke-width="2" stroke-opacity="1" stroke-miterlimit="4"/></g><g clip-path="url(#11a4c5a8ff)"><path stroke-linecap="butt" transform="matrix(-0.00138889, 0.749999, -0.749999, -0.00138889, 720.999927, -0.372226)" fill="none" stroke-linejoin="miter" d="M -0.00184689 0.999908 L 1080.000108 0.999908 " stroke="#000000" stroke-width="2" stroke-opacity="1" stroke-miterlimit="4"/></g><g clip-path="url(#8fce7abb14)"><path stroke-linecap="butt" transform="matrix(-0.00138889, 0.749999, -0.749999, -0.00138889, 571.416647, -0.372226)" fill="none" stroke-linejoin="miter" d="M -0.00184998 0.998243 L 1080.000105 0.998242 " stroke="#000000" stroke-width="2" stroke-opacity="1" stroke-miterlimit="4"/></g><g clip-path="url(#c818396900)"><path stroke-linecap="butt" transform="matrix(-0.00138889, 0.749999, -0.749999, -0.00138889, 750.91667, -0.372226)" fill="none" stroke-linejoin="miter" d="M -0.00184992 0.998273 L 1080.000105 0.998273 " stroke="#000000" stroke-width="2" stroke-opacity="1" stroke-miterlimit="4"/></g><g clip-path="url(#9b09df2101)"><path stroke-linecap="butt" transform="matrix(-0.00138889, 0.749999, -0.749999, -0.00138889, 631.250012, -0.372226)" fill="none" stroke-linejoin="miter" d="M -0.00184668 1.000021 L 1080.000108 1.00002 " stroke="#000000" stroke-width="2" stroke-opacity="1" stroke-miterlimit="4"/></g><g clip-path="url(#7d7f6701da)"><path stroke-linecap="butt" transform="matrix(-0.00138889, 0.749999, -0.749999, -0.00138889, 780.833292, -0.372226)" fill="none" stroke-linejoin="miter" d="M -0.0018436 1.001687 L 1080.000112 1.001686 " stroke="#000000" stroke-width="2" stroke-opacity="1" stroke-miterlimit="4"/></g><g clip-path="url(#f2728e59b7)"><path stroke-linecap="butt" transform="matrix(-0.00138889, 0.749999, -0.749999, -0.00138889, 691.083305, -0.372226)" fill="none" stroke-linejoin="miter" d="M -0.00184357 1.001703 L 1080.000112 1.001703 " stroke="#000000" stroke-width="2" stroke-opacity="1" stroke-miterlimit="4"/></g><g clip-path="url(#57c140c2ef)"><path stroke-linecap="butt" transform="matrix(-0.00138889, 0.749999, -0.749999, -0.00138889, 810.749963, -0.372226)" fill="none" stroke-linejoin="miter" d="M -0.0018468 0.999956 L 1080.000108 0.999955 " stroke="#000000" stroke-width="2" stroke-opacity="1" stroke-miterlimit="4"/></g></g></g></g></svg>