<svg xmlns="http://www.w3.org/2000/svg" xmlns:xlink="http://www.w3.org/1999/xlink" width="1080" zoomAndPan="magnify" viewBox="0 0 810 809.999993" height="1080" preserveAspectRatio="xMidYMid meet" version="1.0"><defs><filter x="0%" y="0%" width="100%" height="100%" id="cc48713214"><feColorMatrix values="0 0 0 0 1 0 0 0 0 1 0 0 0 0 1 0 0 0 1 0" color-interpolation-filters="sRGB"/></filter><mask id="4a0e5e0aeb"><g filter="url(#cc48713214)"><rect x="-81" width="972" fill="#000000" y="-80.999999" height="971.999992" fill-opacity="0.05"/></g></mask><clipPath id="d3c03c2329"><path d="M 0 0 L 552 0 L 552 541 L 0 541 Z M 0 0 " clip-rule="nonzero"/></clipPath><clipPath id="0090aaeb99"><path d="M 0 0 L 460 0 L 460 449 L 0 449 Z M 0 0 " clip-rule="nonzero"/></clipPath><clipPath id="6842eac7bc"><path d="M 0 0 L 614 0 L 614 602 L 0 602 Z M 0 0 " clip-rule="nonzero"/></clipPath><clipPath id="2991d43d95"><path d="M 0 0 L 491 0 L 491 480 L 0 480 Z M 0 0 " clip-rule="nonzero"/></clipPath><clipPath id="11ed7036bb"><path d="M 0 0 L 675 0 L 675 664 L 0 664 Z M 0 0 " clip-rule="nonzero"/></clipPath><clipPath id="097809578b"><path d="M 0 0 L 522 0 L 522 510 L 0 510 Z M 0 0 " clip-rule="nonzero"/></clipPath><clipPath id="0f4df0e8b0"><path d="M 0 0 L 736 0 L 736 725 L 0 725 Z M 0 0 " clip-rule="nonzero"/></clipPath><clipPath id="a27c632c10"><path d="M 0 0 L 583 0 L 583 572 L 0 572 Z M 0 0 " clip-rule="nonzero"/></clipPath><clipPath id="c226aa74a8"><path d="M 0 0 L 797 0 L 797 786 L 0 786 Z M 0 0 " clip-rule="nonzero"/></clipPath><clipPath id="77ecc726d2"><path d="M 0 0 L 644 0 L 644 633 L 0 633 Z M 0 0 " clip-rule="nonzero"/></clipPath><clipPath id="e2f72c74f4"><path d="M 0 0 L 810 0 L 810 810 L 0 810 Z M 0 0 " clip-rule="nonzero"/></clipPath><clipPath id="e9463127c7"><path d="M 0 0 L 705 0 L 705 694 L 0 694 Z M 0 0 " clip-rule="nonzero"/></clipPath><clipPath id="b38a42186d"><path d="M 47 38 L 810 38 L 810 810 L 47 810 Z M 47 38 " clip-rule="nonzero"/></clipPath><clipPath id="975a77ef78"><path d="M 0 0 L 767 0 L 767 755 L 0 755 Z M 0 0 " clip-rule="nonzero"/></clipPath><clipPath id="7a78bcc9c3"><path d="M 108 100 L 810 100 L 810 810 L 108 810 Z M 108 100 " clip-rule="nonzero"/></clipPath><clipPath id="9a33004aac"><path d="M 0 0 L 810 0 L 810 810 L 0 810 Z M 0 0 " clip-rule="nonzero"/></clipPath><clipPath id="3f078f4c8c"><path d="M 169 161 L 810 161 L 810 810 L 169 810 Z M 169 161 " clip-rule="nonzero"/></clipPath><clipPath id="eed281206c"><path d="M 16 8 L 810 8 L 810 810 L 16 810 Z M 16 8 " clip-rule="nonzero"/></clipPath><clipPath id="ff2c9d4cd8"><path d="M 230 222 L 810 222 L 810 810 L 230 810 Z M 230 222 " clip-rule="nonzero"/></clipPath><clipPath id="6853cf6c72"><path d="M 77 69 L 810 69 L 810 810 L 77 810 Z M 77 69 " clip-rule="nonzero"/></clipPath><clipPath id="543cc05a6f"><path d="M 292 283 L 810 283 L 810 810 L 292 810 Z M 292 283 " clip-rule="nonzero"/></clipPath><clipPath id="283a392452"><path d="M 138 130 L 810 130 L 810 810 L 138 810 Z M 138 130 " clip-rule="nonzero"/></clipPath><clipPath id="ade2c53b15"><path d="M 322 314 L 810 314 L 810 810 L 322 810 Z M 322 314 " clip-rule="nonzero"/></clipPath><clipPath id="b0494f350d"><path d="M 200 192 L 810 192 L 810 810 L 200 810 Z M 200 192 " clip-rule="nonzero"/></clipPath><clipPath id="a5b68ecbc6"><path d="M 353 345 L 810 345 L 810 810 L 353 810 Z M 353 345 " clip-rule="nonzero"/></clipPath><clipPath id="2550c4c03b"><path d="M 261 253 L 810 253 L 810 810 L 261 810 Z M 261 253 " clip-rule="nonzero"/></clipPath><clipPath id="57670855ae"><rect x="0" width="810" y="0" height="810"/></clipPath></defs><g mask="url(#4a0e5e0aeb)"><g transform="matrix(1, 0, 0, 1, 0, 0.000000000000039746)"><g clip-path="url(#57670855ae)"><g clip-path="url(#d3c03c2329)"><path stroke-linecap="butt" transform="matrix(-0.531283, 0.529375, -0.529375, -0.531283, 543.830592, -319.651164)" fill="none" stroke-linejoin="miter" d="M -0.000667642 1.001493 L 1609.870563 1.00032 " stroke="#000000" stroke-width="2" stroke-opacity="1" stroke-miterlimit="4"/></g><g clip-path="url(#0090aaeb99)"><path stroke-linecap="butt" transform="matrix(-0.531283, 0.529375, -0.529375, -0.531283, 451.941053, -411.540751)" fill="none" stroke-linejoin="miter" d="M 0.00305743 0.999805 L 1609.874288 0.998632 " stroke="#000000" stroke-width="2" stroke-opacity="1" stroke-miterlimit="4"/></g><g clip-path="url(#6842eac7bc)"><path stroke-linecap="butt" transform="matrix(-0.531283, 0.529375, -0.529375, -0.531283, 605.090373, -258.391431)" fill="none" stroke-linejoin="miter" d="M -0.000629042 0.997794 L 1609.874291 1.000297 " stroke="#000000" stroke-width="2" stroke-opacity="1" stroke-miterlimit="4"/></g><g clip-path="url(#2991d43d95)"><path stroke-linecap="butt" transform="matrix(-0.531283, 0.529375, -0.529375, -0.531283, 482.570907, -380.910899)" fill="none" stroke-linejoin="miter" d="M -0.000626561 0.997915 L 1609.874294 1.000418 " stroke="#000000" stroke-width="2" stroke-opacity="1" stroke-miterlimit="4"/></g><g clip-path="url(#11ed7036bb)"><path stroke-linecap="butt" transform="matrix(-0.531283, 0.529375, -0.529375, -0.531283, 666.350058, -197.131727)" fill="none" stroke-linejoin="miter" d="M -0.00064076 1.001342 L 1609.87059 1.000169 " stroke="#000000" stroke-width="2" stroke-opacity="1" stroke-miterlimit="4"/></g><g clip-path="url(#097809578b)"><path stroke-linecap="butt" transform="matrix(-0.531283, 0.529375, -0.529375, -0.531283, 513.200786, -350.281016)" fill="none" stroke-linejoin="miter" d="M -0.000627781 0.999753 L 1609.870603 0.998579 " stroke="#000000" stroke-width="2" stroke-opacity="1" stroke-miterlimit="4"/></g><g clip-path="url(#0f4df0e8b0)"><path stroke-linecap="butt" transform="matrix(-0.531283, 0.529375, -0.529375, -0.531283, 727.609767, -135.871994)" fill="none" stroke-linejoin="miter" d="M -0.000670164 0.997575 L 1609.87425 1.000078 " stroke="#000000" stroke-width="2" stroke-opacity="1" stroke-miterlimit="4"/></g><g clip-path="url(#a27c632c10)"><path stroke-linecap="butt" transform="matrix(-0.531283, 0.529375, -0.529375, -0.531283, 574.460471, -289.021314)" fill="none" stroke-linejoin="miter" d="M 0.00303898 0.99961 L 1609.87427 0.998436 " stroke="#000000" stroke-width="2" stroke-opacity="1" stroke-miterlimit="4"/></g><g clip-path="url(#c226aa74a8)"><path stroke-linecap="butt" transform="matrix(-0.531283, 0.529375, -0.529375, -0.531283, 788.869524, -74.612261)" fill="none" stroke-linejoin="miter" d="M -0.000640982 1.001219 L 1609.87059 1.000046 " stroke="#000000" stroke-width="2" stroke-opacity="1" stroke-miterlimit="4"/></g><g clip-path="url(#77ecc726d2)"><path stroke-linecap="butt" transform="matrix(-0.531283, 0.529375, -0.529375, -0.531283, 635.72018, -227.761593)" fill="none" stroke-linejoin="miter" d="M -0.000655351 0.999521 L 1609.870575 0.998347 " stroke="#000000" stroke-width="2" stroke-opacity="1" stroke-miterlimit="4"/></g><g clip-path="url(#e2f72c74f4)"><path stroke-linecap="butt" transform="matrix(-0.531283, 0.529375, -0.529375, -0.531283, 850.129305, -13.352528)" fill="none" stroke-linejoin="miter" d="M -0.000602381 0.99752 L 1609.874318 1.000023 " stroke="#000000" stroke-width="2" stroke-opacity="1" stroke-miterlimit="4"/></g><g clip-path="url(#e9463127c7)"><path stroke-linecap="butt" transform="matrix(-0.531283, 0.529375, -0.529375, -0.531283, 696.97996, -166.501846)" fill="none" stroke-linejoin="miter" d="M 0.00305916 0.999511 L 1609.87429 0.998338 " stroke="#000000" stroke-width="2" stroke-opacity="1" stroke-miterlimit="4"/></g><g clip-path="url(#b38a42186d)"><path stroke-linecap="butt" transform="matrix(-0.531283, 0.529375, -0.529375, -0.531283, 911.38899, 47.907205)" fill="none" stroke-linejoin="miter" d="M -0.000641204 1.001096 L 1609.87059 0.999923 " stroke="#000000" stroke-width="2" stroke-opacity="1" stroke-miterlimit="4"/></g><g clip-path="url(#975a77ef78)"><path stroke-linecap="butt" transform="matrix(-0.531283, 0.529375, -0.529375, -0.531283, 758.239645, -105.242113)" fill="none" stroke-linejoin="miter" d="M -0.000669125 0.999411 L 1609.870562 0.998238 " stroke="#000000" stroke-width="2" stroke-opacity="1" stroke-miterlimit="4"/></g><g clip-path="url(#7a78bcc9c3)"><path stroke-linecap="butt" transform="matrix(-0.531283, 0.529375, -0.529375, -0.531283, 972.648699, 109.166909)" fill="none" stroke-linejoin="miter" d="M -0.000643503 0.997301 L 1609.874277 0.999804 " stroke="#000000" stroke-width="2" stroke-opacity="1" stroke-miterlimit="4"/></g><g clip-path="url(#9a33004aac)"><path stroke-linecap="butt" transform="matrix(-0.531283, 0.529375, -0.529375, -0.531283, 819.499426, -43.982409)" fill="none" stroke-linejoin="miter" d="M -0.000590171 1.00305 L 1609.870641 1.001877 " stroke="#000000" stroke-width="2" stroke-opacity="1" stroke-miterlimit="4"/></g><g clip-path="url(#3f078f4c8c)"><path stroke-linecap="butt" transform="matrix(-0.531283, 0.529375, -0.529375, -0.531283, 1033.908455, 170.426613)" fill="none" stroke-linejoin="miter" d="M -0.000587217 1.000918 L 1609.870644 0.999745 " stroke="#000000" stroke-width="2" stroke-opacity="1" stroke-miterlimit="4"/></g><g clip-path="url(#eed281206c)"><path stroke-linecap="butt" transform="matrix(-0.531283, 0.529375, -0.529375, -0.531283, 880.759111, 17.277324)" fill="none" stroke-linejoin="miter" d="M -0.000642243 0.99926 L 1609.870589 0.998087 " stroke="#000000" stroke-width="2" stroke-opacity="1" stroke-miterlimit="4"/></g><g clip-path="url(#ff2c9d4cd8)"><path stroke-linecap="butt" transform="matrix(-0.531283, 0.529375, -0.529375, -0.531283, 1095.168236, 231.686375)" fill="none" stroke-linejoin="miter" d="M -0.000575721 0.997246 L 1609.874345 0.999749 " stroke="#000000" stroke-width="2" stroke-opacity="1" stroke-miterlimit="4"/></g><g clip-path="url(#6853cf6c72)"><path stroke-linecap="butt" transform="matrix(-0.531283, 0.529375, -0.529375, -0.531283, 942.01882, 78.537028)" fill="none" stroke-linejoin="miter" d="M -0.000631293 1.002832 L 1609.8706 1.001658 " stroke="#000000" stroke-width="2" stroke-opacity="1" stroke-miterlimit="4"/></g><g clip-path="url(#543cc05a6f)"><path stroke-linecap="butt" transform="matrix(-0.531283, 0.529375, -0.529375, -0.531283, 1156.427873, 292.946079)" fill="none" stroke-linejoin="miter" d="M -0.000632775 1.00075 L 1609.870598 0.999576 " stroke="#000000" stroke-width="2" stroke-opacity="1" stroke-miterlimit="4"/></g><g clip-path="url(#283a392452)"><path stroke-linecap="butt" transform="matrix(-0.531283, 0.529375, -0.529375, -0.531283, 1003.278577, 139.79679)" fill="none" stroke-linejoin="miter" d="M -0.000642464 0.999137 L 1609.874278 1.00164 " stroke="#000000" stroke-width="2" stroke-opacity="1" stroke-miterlimit="4"/></g><g clip-path="url(#ade2c53b15)"><path stroke-linecap="butt" transform="matrix(-0.531283, 0.529375, -0.529375, -0.531283, 1187.057752, 323.57596)" fill="none" stroke-linejoin="miter" d="M -0.000631736 1.002585 L 1609.870599 1.001412 " stroke="#000000" stroke-width="2" stroke-opacity="1" stroke-miterlimit="4"/></g><g clip-path="url(#b0494f350d)"><path stroke-linecap="butt" transform="matrix(-0.531283, 0.529375, -0.529375, -0.531283, 1064.538238, 201.056494)" fill="none" stroke-linejoin="miter" d="M -0.000676851 1.002663 L 1609.870554 1.00149 " stroke="#000000" stroke-width="2" stroke-opacity="1" stroke-miterlimit="4"/></g><g clip-path="url(#a5b68ecbc6)"><path stroke-linecap="butt" transform="matrix(-0.531283, 0.529375, -0.529375, -0.531283, 1217.68763, 354.205843)" fill="none" stroke-linejoin="miter" d="M -0.000646206 0.997057 L 1609.874274 0.99956 " stroke="#000000" stroke-width="2" stroke-opacity="1" stroke-miterlimit="4"/></g><g clip-path="url(#2550c4c03b)"><path stroke-linecap="butt" transform="matrix(-0.531283, 0.529375, -0.529375, -0.531283, 1125.797995, 262.316198)" fill="none" stroke-linejoin="miter" d="M -0.000633814 0.998914 L 1609.874286 1.001417 " stroke="#000000" stroke-width="2" stroke-opacity="1" stroke-miterlimit="4"/></g></g></g></g></svg>