<svg xmlns="http://www.w3.org/2000/svg" xmlns:xlink="http://www.w3.org/1999/xlink" width="1080" zoomAndPan="magnify" viewBox="0 0 810 809.999993" height="1080" preserveAspectRatio="xMidYMid meet" version="1.0"><defs><filter x="0%" y="0%" width="100%" height="100%" id="024bec6ceb"><feColorMatrix values="0 0 0 0 1 0 0 0 0 1 0 0 0 0 1 0 0 0 1 0" color-interpolation-filters="sRGB"/></filter><mask id="54a8d219a1"><g filter="url(#024bec6ceb)"><rect x="-81" width="972" fill="#000000" y="-80.999999" height="971.999992" fill-opacity="0.05"/></g></mask><clipPath id="290461ddaa"><path d="M 0 272 L 528 272 L 528 810 L 0 810 Z M 0 272 " clip-rule="nonzero"/></clipPath><clipPath id="97bab19d07"><path d="M 0 364 L 436 364 L 436 810 L 0 810 Z M 0 364 " clip-rule="nonzero"/></clipPath><clipPath id="1c1e451e64"><path d="M 0 211 L 589 211 L 589 810 L 0 810 Z M 0 211 " clip-rule="nonzero"/></clipPath><clipPath id="6818ad0e88"><path d="M 0 333 L 466 333 L 466 810 L 0 810 Z M 0 333 " clip-rule="nonzero"/></clipPath><clipPath id="a94ef064e9"><path d="M 0 150 L 650 150 L 650 810 L 0 810 Z M 0 150 " clip-rule="nonzero"/></clipPath><clipPath id="1da3376a73"><path d="M 0 303 L 497 303 L 497 810 L 0 810 Z M 0 303 " clip-rule="nonzero"/></clipPath><clipPath id="fa108dd2bb"><path d="M 0 89 L 711 89 L 711 810 L 0 810 Z M 0 89 " clip-rule="nonzero"/></clipPath><clipPath id="801e3b77a6"><path d="M 0 241 L 558 241 L 558 810 L 0 810 Z M 0 241 " clip-rule="nonzero"/></clipPath><clipPath id="d3abb287d8"><path d="M 0 27 L 772 27 L 772 810 L 0 810 Z M 0 27 " clip-rule="nonzero"/></clipPath><clipPath id="2661c3e209"><path d="M 0 180 L 619 180 L 619 810 L 0 810 Z M 0 180 " clip-rule="nonzero"/></clipPath><clipPath id="8ea7b6e48f"><path d="M 0 0 L 810 0 L 810 810 L 0 810 Z M 0 0 " clip-rule="nonzero"/></clipPath><clipPath id="3bbb285e32"><path d="M 0 119 L 681 119 L 681 810 L 0 810 Z M 0 119 " clip-rule="nonzero"/></clipPath><clipPath id="dcb4110e09"><path d="M 53 0 L 810 0 L 810 750 L 53 750 Z M 53 0 " clip-rule="nonzero"/></clipPath><clipPath id="72471d6032"><path d="M 0 58 L 742 58 L 742 810 L 0 810 Z M 0 58 " clip-rule="nonzero"/></clipPath><clipPath id="773332a1c9"><path d="M 114 0 L 810 0 L 810 689 L 114 689 Z M 114 0 " clip-rule="nonzero"/></clipPath><clipPath id="81c76310ee"><path d="M 0 0 L 803 0 L 803 810 L 0 810 Z M 0 0 " clip-rule="nonzero"/></clipPath><clipPath id="53cd7b38e7"><path d="M 175 0 L 810 0 L 810 628 L 175 628 Z M 175 0 " clip-rule="nonzero"/></clipPath><clipPath id="89515392e3"><path d="M 22 0 L 810 0 L 810 780 L 22 780 Z M 22 0 " clip-rule="nonzero"/></clipPath><clipPath id="eba912f941"><path d="M 236 0 L 810 0 L 810 566 L 236 566 Z M 236 0 " clip-rule="nonzero"/></clipPath><clipPath id="1e27c6abe9"><path d="M 83 0 L 810 0 L 810 719 L 83 719 Z M 83 0 " clip-rule="nonzero"/></clipPath><clipPath id="ba26ccf76a"><path d="M 298 0 L 810 0 L 810 505 L 298 505 Z M 298 0 " clip-rule="nonzero"/></clipPath><clipPath id="111d52d24d"><path d="M 145 0 L 810 0 L 810 658 L 145 658 Z M 145 0 " clip-rule="nonzero"/></clipPath><clipPath id="5124ba7481"><path d="M 328 0 L 810 0 L 810 475 L 328 475 Z M 328 0 " clip-rule="nonzero"/></clipPath><clipPath id="92cc3ef236"><path d="M 206 0 L 810 0 L 810 597 L 206 597 Z M 206 0 " clip-rule="nonzero"/></clipPath><clipPath id="b7d5fdfdd5"><path d="M 359 0 L 810 0 L 810 444 L 359 444 Z M 359 0 " clip-rule="nonzero"/></clipPath><clipPath id="f40d38e941"><path d="M 267 0 L 810 0 L 810 536 L 267 536 Z M 267 0 " clip-rule="nonzero"/></clipPath><clipPath id="c714341c92"><path d="M 0 0 L 531 0 L 531 537 L 0 537 Z M 0 0 " clip-rule="nonzero"/></clipPath><clipPath id="3f85b2ab68"><path d="M 0 0 L 440 0 L 440 445 L 0 445 Z M 0 0 " clip-rule="nonzero"/></clipPath><clipPath id="8a2d13dbbf"><path d="M 0 0 L 592 0 L 592 598 L 0 598 Z M 0 0 " clip-rule="nonzero"/></clipPath><clipPath id="55f7915b96"><path d="M 0 0 L 470 0 L 470 476 L 0 476 Z M 0 0 " clip-rule="nonzero"/></clipPath><clipPath id="3a8b5a2c26"><path d="M 0 0 L 653 0 L 653 659 L 0 659 Z M 0 0 " clip-rule="nonzero"/></clipPath><clipPath id="b5211b01da"><path d="M 0 0 L 501 0 L 501 506 L 0 506 Z M 0 0 " clip-rule="nonzero"/></clipPath><clipPath id="677b361aaa"><path d="M 0 0 L 714 0 L 714 719 L 0 719 Z M 0 0 " clip-rule="nonzero"/></clipPath><clipPath id="ade045217a"><path d="M 0 0 L 562 0 L 562 567 L 0 567 Z M 0 0 " clip-rule="nonzero"/></clipPath><clipPath id="5385c6224c"><path d="M 0 0 L 775 0 L 775 780 L 0 780 Z M 0 0 " clip-rule="nonzero"/></clipPath><clipPath id="6e0fa072b9"><path d="M 0 0 L 623 0 L 623 628 L 0 628 Z M 0 0 " clip-rule="nonzero"/></clipPath><clipPath id="38fcea6cc4"><path d="M 0 0 L 810 0 L 810 810 L 0 810 Z M 0 0 " clip-rule="nonzero"/></clipPath><clipPath id="57e66e6647"><path d="M 0 0 L 684 0 L 684 689 L 0 689 Z M 0 0 " clip-rule="nonzero"/></clipPath><clipPath id="0aeff9f6a2"><path d="M 50 58 L 810 58 L 810 810 L 50 810 Z M 50 58 " clip-rule="nonzero"/></clipPath><clipPath id="c16cb151c1"><path d="M 0 0 L 745 0 L 745 750 L 0 750 Z M 0 0 " clip-rule="nonzero"/></clipPath><clipPath id="11c25b25de"><path d="M 111 119 L 810 119 L 810 810 L 111 810 Z M 111 119 " clip-rule="nonzero"/></clipPath><clipPath id="887f41a247"><path d="M 0 0 L 806 0 L 806 810 L 0 810 Z M 0 0 " clip-rule="nonzero"/></clipPath><clipPath id="525172ff53"><path d="M 172 180 L 810 180 L 810 810 L 172 810 Z M 172 180 " clip-rule="nonzero"/></clipPath><clipPath id="5260d8a601"><path d="M 19 27 L 810 27 L 810 810 L 19 810 Z M 19 27 " clip-rule="nonzero"/></clipPath><clipPath id="303787b8ed"><path d="M 233 241 L 810 241 L 810 810 L 233 810 Z M 233 241 " clip-rule="nonzero"/></clipPath><clipPath id="ceb7fb8e06"><path d="M 80 88 L 810 88 L 810 810 L 80 810 Z M 80 88 " clip-rule="nonzero"/></clipPath><clipPath id="704f92837a"><path d="M 294 302 L 810 302 L 810 810 L 294 810 Z M 294 302 " clip-rule="nonzero"/></clipPath><clipPath id="dee8e7da9b"><path d="M 141 149 L 810 149 L 810 810 L 141 810 Z M 141 149 " clip-rule="nonzero"/></clipPath><clipPath id="5cd105a85e"><path d="M 324 332 L 810 332 L 810 810 L 324 810 Z M 324 332 " clip-rule="nonzero"/></clipPath><clipPath id="e582d98f85"><path d="M 202 210 L 810 210 L 810 810 L 202 810 Z M 202 210 " clip-rule="nonzero"/></clipPath><clipPath id="0b68c6e086"><path d="M 355 363 L 810 363 L 810 810 L 355 810 Z M 355 363 " clip-rule="nonzero"/></clipPath><clipPath id="df5ae65ae5"><path d="M 263 271 L 810 271 L 810 810 L 263 810 Z M 263 271 " clip-rule="nonzero"/></clipPath><clipPath id="d3324135e0"><rect x="0" width="810" y="0" height="810"/></clipPath></defs><g mask="url(#54a8d219a1)"><g transform="matrix(1, 0, 0, 1, 0, 0.000000000000039746)"><g clip-path="url(#d3324135e0)"><g clip-path="url(#290461ddaa)"><path stroke-linecap="butt" transform="matrix(0.529344, 0.531314, -0.531314, 0.529344, -304.558517, 280.532819)" fill="none" stroke-linejoin="miter" d="M 0.000307316 1.000329 L 1556.142559 1.000256 " stroke="#000000" stroke-width="2" stroke-opacity="1" stroke-miterlimit="4"/></g><g clip-path="url(#97bab19d07)"><path stroke-linecap="butt" transform="matrix(0.529344, 0.531314, -0.531314, 0.529344, -396.299509, 372.273868)" fill="none" stroke-linejoin="miter" d="M 0.0002571 1.00253 L 1556.146185 0.998767 " stroke="#000000" stroke-width="2" stroke-opacity="1" stroke-miterlimit="4"/></g><g clip-path="url(#1c1e451e64)"><path stroke-linecap="butt" transform="matrix(0.529344, 0.531314, -0.531314, 0.529344, -243.397791, 219.372124)" fill="none" stroke-linejoin="miter" d="M 0.000279841 1.001373 L 1556.142532 1.0013 " stroke="#000000" stroke-width="2" stroke-opacity="1" stroke-miterlimit="4"/></g><g clip-path="url(#6818ad0e88)"><path stroke-linecap="butt" transform="matrix(0.529344, 0.531314, -0.531314, 0.529344, -365.719197, 341.693499)" fill="none" stroke-linejoin="miter" d="M 0.000305481 0.999341 L 1556.142557 0.999268 " stroke="#000000" stroke-width="2" stroke-opacity="1" stroke-miterlimit="4"/></g><g clip-path="url(#a94ef064e9)"><path stroke-linecap="butt" transform="matrix(0.529344, 0.531314, -0.531314, 0.529344, -182.237097, 158.211427)" fill="none" stroke-linejoin="miter" d="M 0.000283994 1.002391 L 1556.146212 0.998628 " stroke="#000000" stroke-width="2" stroke-opacity="1" stroke-miterlimit="4"/></g><g clip-path="url(#1da3376a73)"><path stroke-linecap="butt" transform="matrix(0.529344, 0.531314, -0.531314, 0.529344, -335.138828, 311.113188)" fill="none" stroke-linejoin="miter" d="M -0.00343075 0.999842 L 1556.146187 0.999755 " stroke="#000000" stroke-width="2" stroke-opacity="1" stroke-miterlimit="4"/></g><g clip-path="url(#fa108dd2bb)"><path stroke-linecap="butt" transform="matrix(0.529344, 0.531314, -0.531314, 0.529344, -121.076417, 97.050747)" fill="none" stroke-linejoin="miter" d="M 0.000285829 1.003379 L 1556.146214 0.999616 " stroke="#000000" stroke-width="2" stroke-opacity="1" stroke-miterlimit="4"/></g><g clip-path="url(#801e3b77a6)"><path stroke-linecap="butt" transform="matrix(0.529344, 0.531314, -0.531314, 0.529344, -273.978146, 249.952479)" fill="none" stroke-linejoin="miter" d="M 0.000272031 0.99717 L 1556.146214 1.000772 " stroke="#000000" stroke-width="2" stroke-opacity="1" stroke-miterlimit="4"/></g><g clip-path="url(#d3abb287d8)"><path stroke-linecap="butt" transform="matrix(0.529344, 0.531314, -0.531314, 0.529344, -59.915705, 35.890038)" fill="none" stroke-linejoin="miter" d="M 0.000272275 0.997058 L 1556.146214 1.00066 " stroke="#000000" stroke-width="2" stroke-opacity="1" stroke-miterlimit="4"/></g><g clip-path="url(#2661c3e209)"><path stroke-linecap="butt" transform="matrix(0.529344, 0.531314, -0.531314, 0.529344, -212.817451, 188.791784)" fill="none" stroke-linejoin="miter" d="M 0.000273916 0.998185 L 1556.146216 1.001787 " stroke="#000000" stroke-width="2" stroke-opacity="1" stroke-miterlimit="4"/></g><g clip-path="url(#8ea7b6e48f)"><path stroke-linecap="butt" transform="matrix(0.529344, 0.531314, -0.531314, 0.529344, 1.244974, -25.270643)" fill="none" stroke-linejoin="miter" d="M 0.000275038 0.998046 L 1556.146217 1.001648 " stroke="#000000" stroke-width="2" stroke-opacity="1" stroke-miterlimit="4"/></g><g clip-path="url(#3bbb285e32)"><path stroke-linecap="butt" transform="matrix(0.529344, 0.531314, -0.531314, 0.529344, -151.656757, 127.631087)" fill="none" stroke-linejoin="miter" d="M 0.000278069 0.999202 L 1556.14253 0.999129 " stroke="#000000" stroke-width="2" stroke-opacity="1" stroke-miterlimit="4"/></g><g clip-path="url(#dcb4110e09)"><path stroke-linecap="butt" transform="matrix(0.529344, 0.531314, -0.531314, 0.529344, 62.405626, -86.431293)" fill="none" stroke-linejoin="miter" d="M 0.000275392 0.998979 L 1556.142527 0.998905 " stroke="#000000" stroke-width="2" stroke-opacity="1" stroke-miterlimit="4"/></g><g clip-path="url(#72471d6032)"><path stroke-linecap="butt" transform="matrix(0.529344, 0.531314, -0.531314, 0.529344, -90.496077, 66.470407)" fill="none" stroke-linejoin="miter" d="M 0.000279904 1.00019 L 1556.142532 1.000116 " stroke="#000000" stroke-width="2" stroke-opacity="1" stroke-miterlimit="4"/></g><g clip-path="url(#773332a1c9)"><path stroke-linecap="butt" transform="matrix(0.529344, 0.531314, -0.531314, 0.529344, 123.566306, -147.591973)" fill="none" stroke-linejoin="miter" d="M 0.000277227 0.999966 L 1556.142529 0.999893 " stroke="#000000" stroke-width="2" stroke-opacity="1" stroke-miterlimit="4"/></g><g clip-path="url(#81c76310ee)"><path stroke-linecap="butt" transform="matrix(0.529344, 0.531314, -0.531314, 0.529344, -29.335366, 5.309697)" fill="none" stroke-linejoin="miter" d="M 0.00028094 1.001234 L 1556.142533 1.001161 " stroke="#000000" stroke-width="2" stroke-opacity="1" stroke-miterlimit="4"/></g><g clip-path="url(#53cd7b38e7)"><path stroke-linecap="butt" transform="matrix(0.529344, 0.531314, -0.531314, 0.529344, 184.727044, -208.752713)" fill="none" stroke-linejoin="miter" d="M 0.000281531 1.001065 L 1556.142534 1.000992 " stroke="#000000" stroke-width="2" stroke-opacity="1" stroke-miterlimit="4"/></g><g clip-path="url(#89515392e3)"><path stroke-linecap="butt" transform="matrix(0.529344, 0.531314, -0.531314, 0.529344, 31.825285, -55.850953)" fill="none" stroke-linejoin="miter" d="M 0.000281994 1.002167 L 1556.14621 0.998404 " stroke="#000000" stroke-width="2" stroke-opacity="1" stroke-miterlimit="4"/></g><g clip-path="url(#eba912f941)"><path stroke-linecap="butt" transform="matrix(0.529344, 0.531314, -0.531314, 0.529344, 245.887726, -269.913394)" fill="none" stroke-linejoin="miter" d="M 0.000281108 1.002055 L 1556.146209 0.998292 " stroke="#000000" stroke-width="2" stroke-opacity="1" stroke-miterlimit="4"/></g><g clip-path="url(#1e27c6abe9)"><path stroke-linecap="butt" transform="matrix(0.529344, 0.531314, -0.531314, 0.529344, 92.985995, -117.011665)" fill="none" stroke-linejoin="miter" d="M 0.000285519 1.003212 L 1556.146214 0.999449 " stroke="#000000" stroke-width="2" stroke-opacity="1" stroke-miterlimit="4"/></g><g clip-path="url(#ba26ccf76a)"><path stroke-linecap="butt" transform="matrix(0.529344, 0.531314, -0.531314, 0.529344, 307.048406, -331.074074)" fill="none" stroke-linejoin="miter" d="M 0.000282943 1.003043 L 1556.146211 0.99928 " stroke="#000000" stroke-width="2" stroke-opacity="1" stroke-miterlimit="4"/></g><g clip-path="url(#111d52d24d)"><path stroke-linecap="butt" transform="matrix(0.529344, 0.531314, -0.531314, 0.529344, 154.146675, -178.172345)" fill="none" stroke-linejoin="miter" d="M 0.00027367 0.996834 L 1556.146215 1.000437 " stroke="#000000" stroke-width="2" stroke-opacity="1" stroke-miterlimit="4"/></g><g clip-path="url(#5124ba7481)"><path stroke-linecap="butt" transform="matrix(0.529344, 0.531314, -0.531314, 0.529344, 337.628718, -361.654385)" fill="none" stroke-linejoin="miter" d="M 0.000276917 0.9998 L 1556.142529 0.999727 " stroke="#000000" stroke-width="2" stroke-opacity="1" stroke-miterlimit="4"/></g><g clip-path="url(#92cc3ef236)"><path stroke-linecap="butt" transform="matrix(0.529344, 0.531314, -0.531314, 0.529344, 215.307415, -239.333082)" fill="none" stroke-linejoin="miter" d="M 0.000273449 0.997933 L 1556.146215 1.001535 " stroke="#000000" stroke-width="2" stroke-opacity="1" stroke-miterlimit="4"/></g><g clip-path="url(#b7d5fdfdd5)"><path stroke-linecap="butt" transform="matrix(0.529344, 0.531314, -0.531314, 0.529344, 368.209087, -392.234756)" fill="none" stroke-linejoin="miter" d="M 0.000273361 0.996667 L 1556.146215 1.00027 " stroke="#000000" stroke-width="2" stroke-opacity="1" stroke-miterlimit="4"/></g><g clip-path="url(#f40d38e941)"><path stroke-linecap="butt" transform="matrix(0.529344, 0.531314, -0.531314, 0.529344, 276.468095, -300.493765)" fill="none" stroke-linejoin="miter" d="M 0.000277551 0.998923 L 1556.14253 0.99885 " stroke="#000000" stroke-width="2" stroke-opacity="1" stroke-miterlimit="4"/></g><g clip-path="url(#c714341c92)"><path stroke-linecap="butt" transform="matrix(-0.531308, 0.52935, -0.52935, -0.531308, 523.002505, -298.306079)" fill="none" stroke-linejoin="miter" d="M 0.00183473 0.999101 L 1561.237471 0.99738 " stroke="#000000" stroke-width="2" stroke-opacity="1" stroke-miterlimit="4"/></g><g clip-path="url(#3f85b2ab68)"><path stroke-linecap="butt" transform="matrix(-0.531308, 0.52935, -0.52935, -0.531308, 431.560686, -389.747891)" fill="none" stroke-linejoin="miter" d="M 0.00182652 0.998328 L 1561.233787 1.000298 " stroke="#000000" stroke-width="2" stroke-opacity="1" stroke-miterlimit="4"/></g><g clip-path="url(#8a2d13dbbf)"><path stroke-linecap="butt" transform="matrix(-0.531308, 0.52935, -0.52935, -0.531308, 583.96375, -237.34485)" fill="none" stroke-linejoin="miter" d="M 0.00185161 0.999664 L 1561.237488 0.997944 " stroke="#000000" stroke-width="2" stroke-opacity="1" stroke-miterlimit="4"/></g><g clip-path="url(#55f7915b96)"><path stroke-linecap="butt" transform="matrix(-0.531308, 0.52935, -0.52935, -0.531308, 462.041284, -359.267276)" fill="none" stroke-linejoin="miter" d="M 0.00181116 0.998589 L 1561.233772 1.000558 " stroke="#000000" stroke-width="2" stroke-opacity="1" stroke-miterlimit="4"/></g><g clip-path="url(#3a8b5a2c26)"><path stroke-linecap="butt" transform="matrix(-0.531308, 0.52935, -0.52935, -0.531308, 644.924971, -176.383622)" fill="none" stroke-linejoin="miter" d="M 0.00184582 1.000206 L 1561.237482 0.998485 " stroke="#000000" stroke-width="2" stroke-opacity="1" stroke-miterlimit="4"/></g><g clip-path="url(#b5211b01da)"><path stroke-linecap="butt" transform="matrix(-0.531308, 0.52935, -0.52935, -0.531308, 492.521931, -328.786663)" fill="none" stroke-linejoin="miter" d="M 0.0018434 0.998892 L 1561.233804 1.000862 " stroke="#000000" stroke-width="2" stroke-opacity="1" stroke-miterlimit="4"/></g><g clip-path="url(#677b361aaa)"><path stroke-linecap="butt" transform="matrix(-0.531308, 0.52935, -0.52935, -0.531308, 705.886144, -115.422397)" fill="none" stroke-linejoin="miter" d="M 0.00179695 1.000699 L 1561.237434 0.998979 " stroke="#000000" stroke-width="2" stroke-opacity="1" stroke-miterlimit="4"/></g><g clip-path="url(#ade045217a)"><path stroke-linecap="butt" transform="matrix(-0.531308, 0.52935, -0.52935, -0.531308, 553.483104, -267.825435)" fill="none" stroke-linejoin="miter" d="M 0.00179227 0.999388 L 1561.237429 0.997668 " stroke="#000000" stroke-width="2" stroke-opacity="1" stroke-miterlimit="4"/></g><g clip-path="url(#5385c6224c)"><path stroke-linecap="butt" transform="matrix(-0.531308, 0.52935, -0.52935, -0.531308, 766.847437, -54.461168)" fill="none" stroke-linejoin="miter" d="M 0.00185917 1.001308 L 1561.237496 0.999588 " stroke="#000000" stroke-width="2" stroke-opacity="1" stroke-miterlimit="4"/></g><g clip-path="url(#6e0fa072b9)"><path stroke-linecap="butt" transform="matrix(-0.531308, 0.52935, -0.52935, -0.531308, 614.444325, -206.864209)" fill="none" stroke-linejoin="miter" d="M 0.00178874 0.999927 L 1561.237425 0.998207 " stroke="#000000" stroke-width="2" stroke-opacity="1" stroke-miterlimit="4"/></g><g clip-path="url(#38fcea6cc4)"><path stroke-linecap="butt" transform="matrix(-0.531308, 0.52935, -0.52935, -0.531308, 827.808586, 6.500059)" fill="none" stroke-linejoin="miter" d="M 0.00178628 1.001781 L 1561.237423 1.000061 " stroke="#000000" stroke-width="2" stroke-opacity="1" stroke-miterlimit="4"/></g><g clip-path="url(#57e66e6647)"><path stroke-linecap="butt" transform="matrix(-0.531308, 0.52935, -0.52935, -0.531308, 675.405546, -145.903038)" fill="none" stroke-linejoin="miter" d="M 0.00183715 1.000414 L 1561.237474 0.998694 " stroke="#000000" stroke-width="2" stroke-opacity="1" stroke-miterlimit="4"/></g><g clip-path="url(#0aeff9f6a2)"><path stroke-linecap="butt" transform="matrix(-0.531308, 0.52935, -0.52935, -0.531308, 888.769879, 67.461285)" fill="none" stroke-linejoin="miter" d="M -0.00183979 0.998713 L 1561.237486 1.000668 " stroke="#000000" stroke-width="2" stroke-opacity="1" stroke-miterlimit="4"/></g><g clip-path="url(#c16cb151c1)"><path stroke-linecap="butt" transform="matrix(-0.531308, 0.52935, -0.52935, -0.531308, 736.36679, -84.941753)" fill="none" stroke-linejoin="miter" d="M 0.00179983 1.001032 L 1561.237436 0.999312 " stroke="#000000" stroke-width="2" stroke-opacity="1" stroke-miterlimit="4"/></g><g clip-path="url(#11c25b25de)"><path stroke-linecap="butt" transform="matrix(-0.531308, 0.52935, -0.52935, -0.531308, 949.731052, 128.422514)" fill="none" stroke-linejoin="miter" d="M -0.00189092 0.999209 L 1561.237435 1.001165 " stroke="#000000" stroke-width="2" stroke-opacity="1" stroke-miterlimit="4"/></g><g clip-path="url(#887f41a247)"><path stroke-linecap="butt" transform="matrix(-0.531308, 0.52935, -0.52935, -0.531308, 797.328011, -23.980584)" fill="none" stroke-linejoin="miter" d="M 0.00185028 1.001517 L 1561.237487 0.999797 " stroke="#000000" stroke-width="2" stroke-opacity="1" stroke-miterlimit="4"/></g><g clip-path="url(#525172ff53)"><path stroke-linecap="butt" transform="matrix(-0.531308, 0.52935, -0.52935, -0.531308, 1010.692345, 189.383742)" fill="none" stroke-linejoin="miter" d="M -0.0018287 0.999818 L 1561.237498 1.001774 " stroke="#000000" stroke-width="2" stroke-opacity="1" stroke-miterlimit="4"/></g><g clip-path="url(#5260d8a601)"><path stroke-linecap="butt" transform="matrix(-0.531308, 0.52935, -0.52935, -0.531308, 858.289232, 36.980702)" fill="none" stroke-linejoin="miter" d="M -0.00189958 0.998437 L 1561.237427 1.000393 " stroke="#000000" stroke-width="2" stroke-opacity="1" stroke-miterlimit="4"/></g><g clip-path="url(#303787b8ed)"><path stroke-linecap="butt" transform="matrix(-0.531308, 0.52935, -0.52935, -0.531308, 1071.653494, 250.345027)" fill="none" stroke-linejoin="miter" d="M -0.0019567 1.000346 L 1561.23737 1.002301 " stroke="#000000" stroke-width="2" stroke-opacity="1" stroke-miterlimit="4"/></g><g clip-path="url(#ceb7fb8e06)"><path stroke-linecap="butt" transform="matrix(-0.531308, 0.52935, -0.52935, -0.531308, 919.250453, 97.941869)" fill="none" stroke-linejoin="miter" d="M -0.00184846 0.998921 L 1561.237478 1.000877 " stroke="#000000" stroke-width="2" stroke-opacity="1" stroke-miterlimit="4"/></g><g clip-path="url(#704f92837a)"><path stroke-linecap="butt" transform="matrix(-0.531308, 0.52935, -0.52935, -0.531308, 1132.614787, 311.306196)" fill="none" stroke-linejoin="miter" d="M -0.00183802 1.000898 L 1561.233799 0.999178 " stroke="#000000" stroke-width="2" stroke-opacity="1" stroke-miterlimit="4"/></g><g clip-path="url(#dee8e7da9b)"><path stroke-linecap="butt" transform="matrix(-0.531308, 0.52935, -0.52935, -0.531308, 980.211626, 158.903158)" fill="none" stroke-linejoin="miter" d="M -0.00195605 0.999474 L 1561.23737 1.00143 " stroke="#000000" stroke-width="2" stroke-opacity="1" stroke-miterlimit="4"/></g><g clip-path="url(#5cd105a85e)"><path stroke-linecap="butt" transform="matrix(-0.531308, 0.52935, -0.52935, -0.531308, 1163.095385, 341.786897)" fill="none" stroke-linejoin="miter" d="M -0.00193468 1.00124 L 1561.233702 0.99952 " stroke="#000000" stroke-width="2" stroke-opacity="1" stroke-miterlimit="4"/></g><g clip-path="url(#e582d98f85)"><path stroke-linecap="butt" transform="matrix(-0.531308, 0.52935, -0.52935, -0.531308, 1041.172919, 219.864326)" fill="none" stroke-linejoin="miter" d="M -0.00183736 1.000026 L 1561.237489 1.001982 " stroke="#000000" stroke-width="2" stroke-opacity="1" stroke-miterlimit="4"/></g><g clip-path="url(#0b68c6e086)"><path stroke-linecap="butt" transform="matrix(-0.531308, 0.52935, -0.52935, -0.531308, 1193.575959, 372.267364)" fill="none" stroke-linejoin="miter" d="M -0.00183268 1.001337 L 1561.233804 0.999617 " stroke="#000000" stroke-width="2" stroke-opacity="1" stroke-miterlimit="4"/></g><g clip-path="url(#df5ae65ae5)"><path stroke-linecap="butt" transform="matrix(-0.531308, 0.52935, -0.52935, -0.531308, 1102.134212, 280.825611)" fill="none" stroke-linejoin="miter" d="M -0.00182935 1.00069 L 1561.233807 0.998969 " stroke="#000000" stroke-width="2" stroke-opacity="1" stroke-miterlimit="4"/></g></g></g></g></svg>