<svg xmlns="http://www.w3.org/2000/svg" xmlns:xlink="http://www.w3.org/1999/xlink" width="1080" zoomAndPan="magnify" viewBox="0 0 810 809.999993" height="1080" preserveAspectRatio="xMidYMid meet" version="1.0"><defs><filter x="0%" y="0%" width="100%" height="100%" id="8a7163fa3d"><feColorMatrix values="0 0 0 0 1 0 0 0 0 1 0 0 0 0 1 0 0 0 1 0" color-interpolation-filters="sRGB"/></filter><mask id="c7c2d53d78"><g filter="url(#8a7163fa3d)"><rect x="-81" width="972" fill="#000000" y="-80.999999" height="971.999992" fill-opacity="0.05"/></g></mask><clipPath id="4f76343433"><path d="M 0 0 L 544.320312 0 L 544.320312 533.039062 L 0 533.039062 Z M 0 0 " clip-rule="nonzero"/></clipPath><clipPath id="6d25b8a9b1"><rect x="0" width="545" y="0" height="534"/></clipPath><mask id="b597d9ba31"><g filter="url(#8a7163fa3d)"><rect x="-81" width="972" fill="#000000" y="-80.999999" height="971.999992" fill-opacity="0.05"/></g></mask><clipPath id="00c6eccd5f"><path d="M 0 0 L 452.398438 0 L 452.398438 441.121094 L 0 441.121094 Z M 0 0 " clip-rule="nonzero"/></clipPath><clipPath id="dd3f0768dc"><rect x="0" width="453" y="0" height="442"/></clipPath><mask id="6117f66a36"><g filter="url(#8a7163fa3d)"><rect x="-81" width="972" fill="#000000" y="-80.999999" height="971.999992" fill-opacity="0.05"/></g></mask><clipPath id="5f1f1dbbd6"><path d="M 0 0 L 605.519531 0 L 605.519531 594.238281 L 0 594.238281 Z M 0 0 " clip-rule="nonzero"/></clipPath><clipPath id="ab34e017f0"><rect x="0" width="606" y="0" height="595"/></clipPath><mask id="92b5e475ca"><g filter="url(#8a7163fa3d)"><rect x="-81" width="972" fill="#000000" y="-80.999999" height="971.999992" fill-opacity="0.05"/></g></mask><clipPath id="8fa798e66b"><path d="M 0 0 L 482.878906 0 L 482.878906 471.839844 L 0 471.839844 Z M 0 0 " clip-rule="nonzero"/></clipPath><clipPath id="c179f33ada"><rect x="0" width="483" y="0" height="472"/></clipPath><mask id="1cb57e527b"><g filter="url(#8a7163fa3d)"><rect x="-81" width="972" fill="#000000" y="-80.999999" height="971.999992" fill-opacity="0.05"/></g></mask><clipPath id="744c94078b"><path d="M 0 0 L 666.71875 0 L 666.71875 655.441406 L 0 655.441406 Z M 0 0 " clip-rule="nonzero"/></clipPath><clipPath id="887c135447"><rect x="0" width="667" y="0" height="656"/></clipPath><mask id="82601400ee"><g filter="url(#8a7163fa3d)"><rect x="-81" width="972" fill="#000000" y="-80.999999" height="971.999992" fill-opacity="0.05"/></g></mask><clipPath id="1dcff8f60c"><path d="M 0 0 L 513.601562 0 L 513.601562 502.320312 L 0 502.320312 Z M 0 0 " clip-rule="nonzero"/></clipPath><clipPath id="f70ba48d25"><rect x="0" width="514" y="0" height="503"/></clipPath><mask id="e9d6170efc"><g filter="url(#8a7163fa3d)"><rect x="-81" width="972" fill="#000000" y="-80.999999" height="971.999992" fill-opacity="0.05"/></g></mask><clipPath id="a8d4d802ba"><path d="M 0 0 L 727.921875 0 L 727.921875 716.878906 L 0 716.878906 Z M 0 0 " clip-rule="nonzero"/></clipPath><clipPath id="4d3bd84d0c"><rect x="0" width="728" y="0" height="717"/></clipPath><mask id="b8e88fcbf5"><g filter="url(#8a7163fa3d)"><rect x="-81" width="972" fill="#000000" y="-80.999999" height="971.999992" fill-opacity="0.05"/></g></mask><clipPath id="2a10932903"><path d="M 0 0 L 574.800781 0 L 574.800781 563.761719 L 0 563.761719 Z M 0 0 " clip-rule="nonzero"/></clipPath><clipPath id="928e734a3b"><rect x="0" width="575" y="0" height="564"/></clipPath><mask id="fb3ae2778c"><g filter="url(#8a7163fa3d)"><rect x="-81" width="972" fill="#000000" y="-80.999999" height="971.999992" fill-opacity="0.05"/></g></mask><clipPath id="ce06b5dd3a"><path d="M 0 0 L 789.359375 0 L 789.359375 778.078125 L 0 778.078125 Z M 0 0 " clip-rule="nonzero"/></clipPath><clipPath id="3327dcad25"><rect x="0" width="790" y="0" height="779"/></clipPath><mask id="bcfcead81f"><g filter="url(#8a7163fa3d)"><rect x="-81" width="972" fill="#000000" y="-80.999999" height="971.999992" fill-opacity="0.05"/></g></mask><clipPath id="53a27212ce"><path d="M 0 0 L 636 0 L 636 624.960938 L 0 624.960938 Z M 0 0 " clip-rule="nonzero"/></clipPath><clipPath id="0acfc89656"><rect x="0" width="636" y="0" height="625"/></clipPath><mask id="dd3abc9796"><g filter="url(#8a7163fa3d)"><rect x="-81" width="972" fill="#000000" y="-80.999999" height="971.999992" fill-opacity="0.05"/></g></mask><clipPath id="7915594a26"><path d="M 0 0 L 810 0 L 810 810 L 0 810 Z M 0 0 " clip-rule="nonzero"/></clipPath><clipPath id="ddd5d49292"><rect x="0" width="810" y="0" height="810"/></clipPath><mask id="dc4ed78edd"><g filter="url(#8a7163fa3d)"><rect x="-81" width="972" fill="#000000" y="-80.999999" height="971.999992" fill-opacity="0.05"/></g></mask><clipPath id="977bc25564"><path d="M 0 0 L 697.441406 0 L 697.441406 686.160156 L 0 686.160156 Z M 0 0 " clip-rule="nonzero"/></clipPath><clipPath id="85f18dfa81"><rect x="0" width="698" y="0" height="687"/></clipPath><mask id="6e83d49793"><g filter="url(#8a7163fa3d)"><rect x="-81" width="972" fill="#000000" y="-80.999999" height="971.999992" fill-opacity="0.05"/></g></mask><clipPath id="7c26cc5d6a"><path d="M 0.480469 0.558594 L 756 0.558594 L 756 764 L 0.480469 764 Z M 0.480469 0.558594 " clip-rule="nonzero"/></clipPath><clipPath id="59809a6f3e"><rect x="0" width="756" y="0" height="764"/></clipPath><mask id="34f561afde"><g filter="url(#8a7163fa3d)"><rect x="-81" width="972" fill="#000000" y="-80.999999" height="971.999992" fill-opacity="0.05"/></g></mask><clipPath id="0cb32639c8"><path d="M 0 0 L 758.640625 0 L 758.640625 747.359375 L 0 747.359375 Z M 0 0 " clip-rule="nonzero"/></clipPath><clipPath id="5a2092480b"><rect x="0" width="759" y="0" height="748"/></clipPath><mask id="9c91d3e441"><g filter="url(#8a7163fa3d)"><rect x="-81" width="972" fill="#000000" y="-80.999999" height="971.999992" fill-opacity="0.05"/></g></mask><clipPath id="3957b6e447"><path d="M 0.921875 0.761719 L 695 0.761719 L 695 703 L 0.921875 703 Z M 0.921875 0.761719 " clip-rule="nonzero"/></clipPath><clipPath id="92fba1d29f"><rect x="0" width="695" y="0" height="703"/></clipPath><mask id="231b70f3b9"><g filter="url(#8a7163fa3d)"><rect x="-81" width="972" fill="#000000" y="-80.999999" height="971.999992" fill-opacity="0.05"/></g></mask><clipPath id="34a05c796c"><path d="M 0 0 L 810 0 L 810 808.800781 L 0 808.800781 Z M 0 0 " clip-rule="nonzero"/></clipPath><clipPath id="7724c9c798"><rect x="0" width="810" y="0" height="809"/></clipPath><mask id="00c478d5d6"><g filter="url(#8a7163fa3d)"><rect x="-81" width="972" fill="#000000" y="-80.999999" height="971.999992" fill-opacity="0.05"/></g></mask><clipPath id="92ad746230"><path d="M 0.121094 0.960938 L 633 0.960938 L 633 642 L 0.121094 642 Z M 0.121094 0.960938 " clip-rule="nonzero"/></clipPath><clipPath id="bea11fb9c2"><rect x="0" width="633" y="0" height="642"/></clipPath><mask id="72619e3954"><g filter="url(#8a7163fa3d)"><rect x="-81" width="972" fill="#000000" y="-80.999999" height="971.999992" fill-opacity="0.05"/></g></mask><clipPath id="6469a0137d"><path d="M 0 0.839844 L 786 0.839844 L 786 795 L 0 795 Z M 0 0.839844 " clip-rule="nonzero"/></clipPath><clipPath id="1ebbcdc6e1"><rect x="0" width="786" y="0" height="795"/></clipPath><mask id="507c388318"><g filter="url(#8a7163fa3d)"><rect x="-81" width="972" fill="#000000" y="-80.999999" height="971.999992" fill-opacity="0.05"/></g></mask><clipPath id="23df4e44c2"><path d="M 0.320312 0.160156 L 572 0.160156 L 572 580 L 0.320312 580 Z M 0.320312 0.160156 " clip-rule="nonzero"/></clipPath><clipPath id="a1650366d5"><rect x="0" width="572" y="0" height="580"/></clipPath><mask id="95141bbbb0"><g filter="url(#8a7163fa3d)"><rect x="-81" width="972" fill="#000000" y="-80.999999" height="971.999992" fill-opacity="0.05"/></g></mask><clipPath id="b0a551046e"><path d="M 0.199219 0.0390625 L 725 0.0390625 L 725 733 L 0.199219 733 Z M 0.199219 0.0390625 " clip-rule="nonzero"/></clipPath><clipPath id="0f22ff87c6"><rect x="0" width="725" y="0" height="733"/></clipPath><mask id="4212042142"><g filter="url(#8a7163fa3d)"><rect x="-81" width="972" fill="#000000" y="-80.999999" height="971.999992" fill-opacity="0.05"/></g></mask><clipPath id="2e8c246840"><path d="M 0.519531 0.601562 L 511 0.601562 L 511 519 L 0.519531 519 Z M 0.519531 0.601562 " clip-rule="nonzero"/></clipPath><clipPath id="d91f7c90d3"><rect x="0" width="511" y="0" height="519"/></clipPath><mask id="10c30b1762"><g filter="url(#8a7163fa3d)"><rect x="-81" width="972" fill="#000000" y="-80.999999" height="971.999992" fill-opacity="0.05"/></g></mask><clipPath id="f2b37a8b37"><path d="M 0.398438 0.238281 L 664 0.238281 L 664 672 L 0.398438 672 Z M 0.398438 0.238281 " clip-rule="nonzero"/></clipPath><clipPath id="b6e3100123"><rect x="0" width="664" y="0" height="672"/></clipPath><mask id="771c795c65"><g filter="url(#8a7163fa3d)"><rect x="-81" width="972" fill="#000000" y="-80.999999" height="971.999992" fill-opacity="0.05"/></g></mask><clipPath id="1a7a3133c0"><path d="M 0.238281 0.078125 L 480 0.078125 L 480 488 L 0.238281 488 Z M 0.238281 0.078125 " clip-rule="nonzero"/></clipPath><clipPath id="98a7f8dd68"><rect x="0" width="480" y="0" height="488"/></clipPath><mask id="7a8099779f"><g filter="url(#8a7163fa3d)"><rect x="-81" width="972" fill="#000000" y="-80.999999" height="971.999992" fill-opacity="0.05"/></g></mask><clipPath id="272b9e7ac6"><path d="M 0.839844 0.679688 L 603 0.679688 L 603 611 L 0.839844 611 Z M 0.839844 0.679688 " clip-rule="nonzero"/></clipPath><clipPath id="d984416936"><rect x="0" width="603" y="0" height="611"/></clipPath><mask id="93f522ee69"><g filter="url(#8a7163fa3d)"><rect x="-81" width="972" fill="#000000" y="-80.999999" height="971.999992" fill-opacity="0.05"/></g></mask><clipPath id="d3964beaaa"><path d="M 0.960938 0.800781 L 450 0.800781 L 450 458 L 0.960938 458 Z M 0.960938 0.800781 " clip-rule="nonzero"/></clipPath><clipPath id="d7de38156f"><rect x="0" width="450" y="0" height="458"/></clipPath><mask id="3c26e2e202"><g filter="url(#8a7163fa3d)"><rect x="-81" width="972" fill="#000000" y="-80.999999" height="971.999992" fill-opacity="0.05"/></g></mask><clipPath id="eeaeb820f9"><path d="M 0.0390625 0.878906 L 541 0.878906 L 541 550 L 0.0390625 550 Z M 0.0390625 0.878906 " clip-rule="nonzero"/></clipPath><clipPath id="04c62ac0cb"><rect x="0" width="541" y="0" height="550"/></clipPath></defs><g mask="url(#c7c2d53d78)"><g transform="matrix(1, 0, 0, 1, 0, 0.000000000000039746)"><g clip-path="url(#6d25b8a9b1)"><g clip-path="url(#4f76343433)"><path stroke-linecap="butt" transform="matrix(-0.531283, 0.529375, -0.529375, -0.531283, 543.566352, -319.916683)" fill="none" stroke-linejoin="miter" d="M -0.000360052 0.50203 L 1609.870871 0.500857 " stroke="#000000" stroke-width="1" stroke-opacity="1" stroke-miterlimit="4"/></g></g></g></g><g mask="url(#b597d9ba31)"><g transform="matrix(1, 0, 0, 1, 0, 0.000000000000039746)"><g clip-path="url(#dd3f0768dc)"><g clip-path="url(#00c6eccd5f)"><path stroke-linecap="butt" transform="matrix(-0.531283, 0.529375, -0.529375, -0.531283, 451.676765, -411.806455)" fill="none" stroke-linejoin="miter" d="M 0.0034936 0.500122 L 1609.874724 0.498949 " stroke="#000000" stroke-width="1" stroke-opacity="1" stroke-miterlimit="4"/></g></g></g></g><g mask="url(#6117f66a36)"><g transform="matrix(1, 0, 0, 1, 0, 0.000000000000039746)"><g clip-path="url(#ab34e017f0)"><g clip-path="url(#5f1f1dbbd6)"><path stroke-linecap="butt" transform="matrix(-0.531283, 0.529375, -0.529375, -0.531283, 604.826109, -258.656919)" fill="none" stroke-linejoin="miter" d="M -0.000373482 0.498337 L 1609.874547 0.50084 " stroke="#000000" stroke-width="1" stroke-opacity="1" stroke-miterlimit="4"/></g></g></g></g><g mask="url(#92b5e475ca)"><g transform="matrix(1, 0, 0, 1, 0, 0.000000000000039746)"><g clip-path="url(#c179f33ada)"><g clip-path="url(#8fa798e66b)"><path stroke-linecap="butt" transform="matrix(-0.531283, 0.529375, -0.529375, -0.531283, 482.306619, -381.176445)" fill="none" stroke-linejoin="miter" d="M -0.000339461 0.498382 L 1609.874581 0.500885 " stroke="#000000" stroke-width="1" stroke-opacity="1" stroke-miterlimit="4"/></g></g></g></g><g mask="url(#1cb57e527b)"><g transform="matrix(1, 0, 0, 1, 0, 0.000000000000039746)"><g clip-path="url(#887c135447)"><g clip-path="url(#744c94078b)"><path stroke-linecap="butt" transform="matrix(-0.531283, 0.529375, -0.529375, -0.531283, 666.085818, -197.397157)" fill="none" stroke-linejoin="miter" d="M -0.00041674 0.501963 L 1609.870814 0.50079 " stroke="#000000" stroke-width="1" stroke-opacity="1" stroke-miterlimit="4"/></g></g></g></g><g mask="url(#82601400ee)"><g transform="matrix(1, 0, 0, 1, 0, 0.000000000000039746)"><g clip-path="url(#f70ba48d25)"><g clip-path="url(#1dcff8f60c)"><path stroke-linecap="butt" transform="matrix(-0.531283, 0.529375, -0.529375, -0.531283, 512.936474, -350.546682)" fill="none" stroke-linejoin="miter" d="M -0.000250416 0.500083 L 1609.87098 0.49891 " stroke="#000000" stroke-width="1" stroke-opacity="1" stroke-miterlimit="4"/></g></g></g></g><g mask="url(#e9d6170efc)"><g transform="matrix(1, 0, 0, 1, 0, 0.000000000000039746)"><g clip-path="url(#4d3bd84d0c)"><g clip-path="url(#a8d4d802ba)"><path stroke-linecap="butt" transform="matrix(-0.531283, 0.529375, -0.529375, -0.531283, 727.345503, -136.137628)" fill="none" stroke-linejoin="miter" d="M -0.000276825 0.497981 L 1609.874643 0.500484 " stroke="#000000" stroke-width="1" stroke-opacity="1" stroke-miterlimit="4"/></g></g></g></g><g mask="url(#b8e88fcbf5)"><g transform="matrix(1, 0, 0, 1, 0, 0.000000000000039746)"><g clip-path="url(#928e734a3b)"><g clip-path="url(#2a10932903)"><path stroke-linecap="butt" transform="matrix(-0.531283, 0.529375, -0.529375, -0.531283, 574.196231, -289.286917)" fill="none" stroke-linejoin="miter" d="M 0.00342562 0.500067 L 1609.874656 0.498894 " stroke="#000000" stroke-width="1" stroke-opacity="1" stroke-miterlimit="4"/></g></g></g></g><g mask="url(#fb3ae2778c)"><g transform="matrix(1, 0, 0, 1, 0, 0.000000000000039746)"><g clip-path="url(#3327dcad25)"><g clip-path="url(#ce06b5dd3a)"><path stroke-linecap="butt" transform="matrix(-0.531283, 0.529375, -0.529375, -0.531283, 788.605284, -74.877867)" fill="none" stroke-linejoin="miter" d="M -0.000252079 0.501674 L 1609.870979 0.500501 " stroke="#000000" stroke-width="1" stroke-opacity="1" stroke-miterlimit="4"/></g></g></g></g><g mask="url(#bcfcead81f)"><g transform="matrix(1, 0, 0, 1, 0, 0.000000000000039746)"><g clip-path="url(#0acfc89656)"><g clip-path="url(#53a27212ce)"><path stroke-linecap="butt" transform="matrix(-0.531283, 0.529375, -0.529375, -0.531283, 635.45594, -228.027156)" fill="none" stroke-linejoin="miter" d="M -0.000307104 0.500017 L 1609.870924 0.498843 " stroke="#000000" stroke-width="1" stroke-opacity="1" stroke-miterlimit="4"/></g></g></g></g><g mask="url(#dd3abc9796)"><g transform="matrix(1, 0, 0, 1, 0, 0.000000000000039746)"><g clip-path="url(#ddd5d49292)"><g clip-path="url(#7915594a26)"><path stroke-linecap="butt" transform="matrix(-0.531283, 0.529375, -0.529375, -0.531283, 849.864921, -13.618104)" fill="none" stroke-linejoin="miter" d="M -0.000377043 0.497867 L 1609.874543 0.50037 " stroke="#000000" stroke-width="1" stroke-opacity="1" stroke-miterlimit="4"/></g></g></g></g><g mask="url(#dc4ed78edd)"><g transform="matrix(1, 0, 0, 1, 0, 0.000000000000039746)"><g clip-path="url(#85f18dfa81)"><g clip-path="url(#977bc25564)"><path stroke-linecap="butt" transform="matrix(-0.531283, 0.529375, -0.529375, -0.531283, 696.715696, -166.767394)" fill="none" stroke-linejoin="miter" d="M 0.00337119 0.499998 L 1609.874602 0.498825 " stroke="#000000" stroke-width="1" stroke-opacity="1" stroke-miterlimit="4"/></g></g></g></g><g mask="url(#6e83d49793)"><g transform="matrix(1, 0, 0, 1, 54, 46)"><g clip-path="url(#59809a6f3e)"><g clip-path="url(#7c26cc5d6a)"><path stroke-linecap="butt" transform="matrix(-0.531283, 0.529375, -0.529375, -0.531283, 857.124678, 1.641658)" fill="none" stroke-linejoin="miter" d="M -0.000375846 0.501539 L 1609.870855 0.500366 " stroke="#000000" stroke-width="1" stroke-opacity="1" stroke-miterlimit="4"/></g></g></g></g><g mask="url(#34f561afde)"><g transform="matrix(1, 0, 0, 1, 0, 0.000000000000039746)"><g clip-path="url(#5a2092480b)"><g clip-path="url(#0cb32639c8)"><path stroke-linecap="butt" transform="matrix(-0.531283, 0.529375, -0.529375, -0.531283, 757.975405, -105.50763)" fill="none" stroke-linejoin="miter" d="M -0.000363793 0.49995 L 1609.870867 0.498777 " stroke="#000000" stroke-width="1" stroke-opacity="1" stroke-miterlimit="4"/></g></g></g></g><g mask="url(#9c91d3e441)"><g transform="matrix(1, 0, 0, 1, 115, 107)"><g clip-path="url(#92fba1d29f)"><g clip-path="url(#3957b6e447)"><path stroke-linecap="butt" transform="matrix(-0.531283, 0.529375, -0.529375, -0.531283, 857.384459, 1.901421)" fill="none" stroke-linejoin="miter" d="M -0.00036514 0.497868 L 1609.874555 0.500371 " stroke="#000000" stroke-width="1" stroke-opacity="1" stroke-miterlimit="4"/></g></g></g></g><g mask="url(#231b70f3b9)"><g transform="matrix(1, 0, 0, 1, 0, 0.000000000000039746)"><g clip-path="url(#7724c9c798)"><g clip-path="url(#34a05c796c)"><path stroke-linecap="butt" transform="matrix(-0.531283, 0.529375, -0.529375, -0.531283, 819.235162, -44.247868)" fill="none" stroke-linejoin="miter" d="M 0.0033145 0.499931 L 1609.874545 0.498758 " stroke="#000000" stroke-width="1" stroke-opacity="1" stroke-miterlimit="4"/></g></g></g></g><g mask="url(#00c478d5d6)"><g transform="matrix(1, 0, 0, 1, 177, 168)"><g clip-path="url(#bea11fb9c2)"><g clip-path="url(#92ad746230)"><path stroke-linecap="butt" transform="matrix(-0.531283, 0.529375, -0.529375, -0.531283, 856.644095, 2.160949)" fill="none" stroke-linejoin="miter" d="M -0.000256612 0.501205 L 1609.870974 0.500032 " stroke="#000000" stroke-width="1" stroke-opacity="1" stroke-miterlimit="4"/></g></g></g></g><g mask="url(#72619e3954)"><g transform="matrix(1, 0, 0, 1, 24, 15)"><g clip-path="url(#1ebbcdc6e1)"><g clip-path="url(#6469a0137d)"><path stroke-linecap="butt" transform="matrix(-0.531283, 0.529375, -0.529375, -0.531283, 856.494799, 2.011894)" fill="none" stroke-linejoin="miter" d="M -0.000486792 0.499814 L 1609.870744 0.498641 " stroke="#000000" stroke-width="1" stroke-opacity="1" stroke-miterlimit="4"/></g></g></g></g><g mask="url(#507c388318)"><g transform="matrix(1, 0, 0, 1, 238, 230)"><g clip-path="url(#a1650366d5)"><g clip-path="url(#23df4e44c2)"><path stroke-linecap="butt" transform="matrix(-0.531283, 0.529375, -0.529375, -0.531283, 856.903852, 1.420711)" fill="none" stroke-linejoin="miter" d="M -0.000268551 0.497511 L 1609.874652 0.500014 " stroke="#000000" stroke-width="1" stroke-opacity="1" stroke-miterlimit="4"/></g></g></g></g><g mask="url(#95141bbbb0)"><g transform="matrix(1, 0, 0, 1, 85, 77)"><g clip-path="url(#0f22ff87c6)"><g clip-path="url(#b0a551046e)"><path stroke-linecap="butt" transform="matrix(-0.531283, 0.529375, -0.529375, -0.531283, 856.754556, 1.271657)" fill="none" stroke-linejoin="miter" d="M 0.00319074 0.499796 L 1609.874422 0.498623 " stroke="#000000" stroke-width="1" stroke-opacity="1" stroke-miterlimit="4"/></g></g></g></g><g mask="url(#4212042142)"><g transform="matrix(1, 0, 0, 1, 299, 291)"><g clip-path="url(#d91f7c90d3)"><g clip-path="url(#2e8c246840)"><path stroke-linecap="butt" transform="matrix(-0.531283, 0.529375, -0.529375, -0.531283, 857.163609, 1.680474)" fill="none" stroke-linejoin="miter" d="M -0.000267241 0.501183 L 1609.870964 0.50001 " stroke="#000000" stroke-width="1" stroke-opacity="1" stroke-miterlimit="4"/></g></g></g></g><g mask="url(#10c30b1762)"><g transform="matrix(1, 0, 0, 1, 146, 138)"><g clip-path="url(#b6e3100123)"><g clip-path="url(#f2b37a8b37)"><path stroke-linecap="butt" transform="matrix(-0.531283, 0.529375, -0.529375, -0.531283, 857.014217, 1.531419)" fill="none" stroke-linejoin="miter" d="M -0.000588116 0.499701 L 1609.870643 0.498528 " stroke="#000000" stroke-width="1" stroke-opacity="1" stroke-miterlimit="4"/></g></g></g></g><g mask="url(#771c795c65)"><g transform="matrix(1, 0, 0, 1, 330, 322)"><g clip-path="url(#98a7f8dd68)"><g clip-path="url(#1a7a3133c0)"><path stroke-linecap="butt" transform="matrix(-0.531283, 0.529375, -0.529375, -0.531283, 856.793488, 1.310472)" fill="none" stroke-linejoin="miter" d="M -0.000376877 0.503129 L 1609.870854 0.501956 " stroke="#000000" stroke-width="1" stroke-opacity="1" stroke-miterlimit="4"/></g></g></g></g><g mask="url(#7a8099779f)"><g transform="matrix(1, 0, 0, 1, 207, 199)"><g clip-path="url(#d984416936)"><g clip-path="url(#272b9e7ac6)"><path stroke-linecap="butt" transform="matrix(-0.531283, 0.529375, -0.529375, -0.531283, 857.273974, 1.790947)" fill="none" stroke-linejoin="miter" d="M -0.000366247 0.503152 L 1609.870865 0.501978 " stroke="#000000" stroke-width="1" stroke-opacity="1" stroke-miterlimit="4"/></g></g></g></g><g mask="url(#93f522ee69)"><g transform="matrix(1, 0, 0, 1, 360, 352)"><g clip-path="url(#d7de38156f)"><g clip-path="url(#d3964beaaa)"><path stroke-linecap="butt" transform="matrix(-0.531283, 0.529375, -0.529375, -0.531283, 857.42339, 1.940237)" fill="none" stroke-linejoin="miter" d="M -0.000256535 0.497512 L 1609.874664 0.500015 " stroke="#000000" stroke-width="1" stroke-opacity="1" stroke-miterlimit="4"/></g></g></g></g><g mask="url(#3c26e2e202)"><g transform="matrix(1, 0, 0, 1, 269, 260)"><g clip-path="url(#04c62ac0cb)"><g clip-path="url(#eeaeb820f9)"><path stroke-linecap="butt" transform="matrix(-0.531283, 0.529375, -0.529375, -0.531283, 856.533731, 2.05071)" fill="none" stroke-linejoin="miter" d="M -0.000378187 0.499458 L 1609.870853 0.498285 " stroke="#000000" stroke-width="1" stroke-opacity="1" stroke-miterlimit="4"/></g></g></g></g></svg>