<svg xmlns="http://www.w3.org/2000/svg" xmlns:xlink="http://www.w3.org/1999/xlink" width="1080" zoomAndPan="magnify" viewBox="0 0 810 809.999993" height="1080" preserveAspectRatio="xMidYMid meet" version="1.0"><defs><filter x="0%" y="0%" width="100%" height="100%" id="f8ad3843c9"><feColorMatrix values="0 0 0 0 1 0 0 0 0 1 0 0 0 0 1 0 0 0 1 0" color-interpolation-filters="sRGB"/></filter><mask id="67b3d6d19b"><g filter="url(#f8ad3843c9)"><rect x="-81" width="972" fill="#000000" y="-80.999999" height="971.999992" fill-opacity="0.05"/></g></mask><clipPath id="eb666a3c37"><path d="M 0 0.078125 L 519.601562 0.078125 L 519.601562 530 L 0 530 Z M 0 0.078125 " clip-rule="nonzero"/></clipPath><clipPath id="56d5d52ff5"><rect x="0" width="520" y="0" height="530"/></clipPath><mask id="2419bf53de"><g filter="url(#f8ad3843c9)"><rect x="-81" width="972" fill="#000000" y="-80.999999" height="971.999992" fill-opacity="0.05"/></g></mask><clipPath id="ec686359de"><path d="M 0 0 L 427.679688 0 L 427.679688 438 L 0 438 Z M 0 0 " clip-rule="nonzero"/></clipPath><clipPath id="e99893f52b"><rect x="0" width="428" y="0" height="438"/></clipPath><mask id="e6746864a1"><g filter="url(#f8ad3843c9)"><rect x="-81" width="972" fill="#000000" y="-80.999999" height="971.999992" fill-opacity="0.05"/></g></mask><clipPath id="452989f397"><path d="M 0 0.878906 L 580.558594 0.878906 L 580.558594 592 L 0 592 Z M 0 0.878906 " clip-rule="nonzero"/></clipPath><clipPath id="0f9ac2f55a"><rect x="0" width="581" y="0" height="592"/></clipPath><mask id="e45e63c751"><g filter="url(#f8ad3843c9)"><rect x="-81" width="972" fill="#000000" y="-80.999999" height="971.999992" fill-opacity="0.05"/></g></mask><clipPath id="a3c8a48780"><path d="M 0 0.28125 L 458.398438 0.28125 L 458.398438 469 L 0 469 Z M 0 0.28125 " clip-rule="nonzero"/></clipPath><clipPath id="033d66b028"><rect x="0" width="459" y="0" height="469"/></clipPath><mask id="77f53dfd33"><g filter="url(#f8ad3843c9)"><rect x="-81" width="972" fill="#000000" y="-80.999999" height="971.999992" fill-opacity="0.05"/></g></mask><clipPath id="79a149b197"><path d="M 0 0.921875 L 641.761719 0.921875 L 641.761719 653 L 0 653 Z M 0 0.921875 " clip-rule="nonzero"/></clipPath><clipPath id="fe52a803b6"><rect x="0" width="642" y="0" height="653"/></clipPath><mask id="fa0496361f"><g filter="url(#f8ad3843c9)"><rect x="-81" width="972" fill="#000000" y="-80.999999" height="971.999992" fill-opacity="0.05"/></g></mask><clipPath id="82e048a723"><path d="M 0 0.800781 L 488.878906 0.800781 L 488.878906 500 L 0 500 Z M 0 0.800781 " clip-rule="nonzero"/></clipPath><clipPath id="4378fa082d"><rect x="0" width="489" y="0" height="500"/></clipPath><mask id="3a04eecba5"><g filter="url(#f8ad3843c9)"><rect x="-81" width="972" fill="#000000" y="-80.999999" height="971.999992" fill-opacity="0.05"/></g></mask><clipPath id="b8c6968303"><path d="M 0 0.71875 L 702.960938 0.71875 L 702.960938 714 L 0 714 Z M 0 0.71875 " clip-rule="nonzero"/></clipPath><clipPath id="7b1b34d485"><rect x="0" width="703" y="0" height="714"/></clipPath><mask id="780635f105"><g filter="url(#f8ad3843c9)"><rect x="-81" width="972" fill="#000000" y="-80.999999" height="971.999992" fill-opacity="0.05"/></g></mask><clipPath id="62f7fa10af"><path d="M 0 0.601562 L 550.078125 0.601562 L 550.078125 561 L 0 561 Z M 0 0.601562 " clip-rule="nonzero"/></clipPath><clipPath id="180fde9fd7"><rect x="0" width="551" y="0" height="561"/></clipPath><mask id="6a43410f56"><g filter="url(#f8ad3843c9)"><rect x="-81" width="972" fill="#000000" y="-80.999999" height="971.999992" fill-opacity="0.05"/></g></mask><clipPath id="1ea61d4292"><path d="M 0 0.519531 L 764.160156 0.519531 L 764.160156 775 L 0 775 Z M 0 0.519531 " clip-rule="nonzero"/></clipPath><clipPath id="951afa5f37"><rect x="0" width="765" y="0" height="775"/></clipPath><mask id="68164d5677"><g filter="url(#f8ad3843c9)"><rect x="-81" width="972" fill="#000000" y="-80.999999" height="971.999992" fill-opacity="0.05"/></g></mask><clipPath id="7d9308d1af"><path d="M 0 0.398438 L 611.28125 0.398438 L 611.28125 622 L 0 622 Z M 0 0.398438 " clip-rule="nonzero"/></clipPath><clipPath id="c07478314b"><rect x="0" width="612" y="0" height="622"/></clipPath><mask id="b52f4d2bc3"><g filter="url(#f8ad3843c9)"><rect x="-81" width="972" fill="#000000" y="-80.999999" height="971.999992" fill-opacity="0.05"/></g></mask><clipPath id="bb0b8e8998"><path d="M 0 0 L 810 0 L 810 802.800781 L 0 802.800781 Z M 0 0 " clip-rule="nonzero"/></clipPath><clipPath id="79c3d92147"><rect x="0" width="810" y="0" height="803"/></clipPath><mask id="df7598346f"><g filter="url(#f8ad3843c9)"><rect x="-81" width="972" fill="#000000" y="-80.999999" height="971.999992" fill-opacity="0.05"/></g></mask><clipPath id="ac7601c4d2"><path d="M 0 0.199219 L 672.480469 0.199219 L 672.480469 683 L 0 683 Z M 0 0.199219 " clip-rule="nonzero"/></clipPath><clipPath id="017620f98e"><rect x="0" width="673" y="0" height="683"/></clipPath><mask id="db4a697e1a"><g filter="url(#f8ad3843c9)"><rect x="-81" width="972" fill="#000000" y="-80.999999" height="971.999992" fill-opacity="0.05"/></g></mask><clipPath id="66330e7aa4"><path d="M 0.960938 0 L 750 0 L 750 741.839844 L 0.960938 741.839844 Z M 0.960938 0 " clip-rule="nonzero"/></clipPath><clipPath id="a3f64f50a8"><rect x="0" width="750" y="0" height="742"/></clipPath><mask id="dc4d180b2c"><g filter="url(#f8ad3843c9)"><rect x="-81" width="972" fill="#000000" y="-80.999999" height="971.999992" fill-opacity="0.05"/></g></mask><clipPath id="4d298ddcb5"><path d="M 0 0 L 733.441406 0 L 733.441406 744 L 0 744 Z M 0 0 " clip-rule="nonzero"/></clipPath><clipPath id="dd89075282"><rect x="0" width="734" y="0" height="744"/></clipPath><mask id="bb021d4ebd"><g filter="url(#f8ad3843c9)"><rect x="-81" width="972" fill="#000000" y="-80.999999" height="971.999992" fill-opacity="0.05"/></g></mask><clipPath id="5e6e9dae44"><path d="M 0.160156 0 L 688 0 L 688 680.640625 L 0.160156 680.640625 Z M 0.160156 0 " clip-rule="nonzero"/></clipPath><clipPath id="2b3aa00d53"><rect x="0" width="688" y="0" height="681"/></clipPath><mask id="a75636d7a2"><g filter="url(#f8ad3843c9)"><rect x="-81" width="972" fill="#000000" y="-80.999999" height="971.999992" fill-opacity="0.05"/></g></mask><clipPath id="40e47685f9"><path d="M 0 0.0390625 L 794.640625 0.0390625 L 794.640625 805 L 0 805 Z M 0 0.0390625 " clip-rule="nonzero"/></clipPath><clipPath id="128e41de45"><rect x="0" width="795" y="0" height="805"/></clipPath><mask id="aee518cbd5"><g filter="url(#f8ad3843c9)"><rect x="-81" width="972" fill="#000000" y="-80.999999" height="971.999992" fill-opacity="0.05"/></g></mask><clipPath id="2e1784b43e"><path d="M 0.359375 0 L 627 0 L 627 619.441406 L 0.359375 619.441406 Z M 0.359375 0 " clip-rule="nonzero"/></clipPath><clipPath id="14aa4bc846"><rect x="0" width="627" y="0" height="620"/></clipPath><mask id="c4534c0357"><g filter="url(#f8ad3843c9)"><rect x="-81" width="972" fill="#000000" y="-80.999999" height="971.999992" fill-opacity="0.05"/></g></mask><clipPath id="b8de1a10cb"><path d="M 0.480469 0 L 780 0 L 780 772.320312 L 0.480469 772.320312 Z M 0.480469 0 " clip-rule="nonzero"/></clipPath><clipPath id="11f5bb1f16"><rect x="0" width="780" y="0" height="773"/></clipPath><mask id="adc5fed65f"><g filter="url(#f8ad3843c9)"><rect x="-81" width="972" fill="#000000" y="-80.999999" height="971.999992" fill-opacity="0.05"/></g></mask><clipPath id="a4e8ea4805"><path d="M 0.320312 0 L 566 0 L 566 558.238281 L 0.320312 558.238281 Z M 0.320312 0 " clip-rule="nonzero"/></clipPath><clipPath id="cff6cb5b36"><rect x="0" width="566" y="0" height="559"/></clipPath><mask id="5296704d81"><g filter="url(#f8ad3843c9)"><rect x="-81" width="972" fill="#000000" y="-80.999999" height="971.999992" fill-opacity="0.05"/></g></mask><clipPath id="af98fd6ba9"><path d="M 0.441406 0 L 719 0 L 719 711.121094 L 0.441406 711.121094 Z M 0.441406 0 " clip-rule="nonzero"/></clipPath><clipPath id="0b72e52437"><rect x="0" width="719" y="0" height="712"/></clipPath><mask id="72387d7269"><g filter="url(#f8ad3843c9)"><rect x="-81" width="972" fill="#000000" y="-80.999999" height="971.999992" fill-opacity="0.05"/></g></mask><clipPath id="6a44f2ec9d"><path d="M 0.519531 0 L 505 0 L 505 497.039062 L 0.519531 497.039062 Z M 0.519531 0 " clip-rule="nonzero"/></clipPath><clipPath id="11a551ada5"><rect x="0" width="505" y="0" height="498"/></clipPath><mask id="60d89df4fe"><g filter="url(#f8ad3843c9)"><rect x="-81" width="972" fill="#000000" y="-80.999999" height="971.999992" fill-opacity="0.05"/></g></mask><clipPath id="3f974faffa"><path d="M 0.640625 0 L 658 0 L 658 649.921875 L 0.640625 649.921875 Z M 0.640625 0 " clip-rule="nonzero"/></clipPath><clipPath id="389bd29f6a"><rect x="0" width="658" y="0" height="650"/></clipPath><mask id="c453c6439c"><g filter="url(#f8ad3843c9)"><rect x="-81" width="972" fill="#000000" y="-80.999999" height="971.999992" fill-opacity="0.05"/></g></mask><clipPath id="1919cdb6b7"><path d="M 0.238281 0 L 474 0 L 474 466.558594 L 0.238281 466.558594 Z M 0.238281 0 " clip-rule="nonzero"/></clipPath><clipPath id="db2da0827d"><rect x="0" width="474" y="0" height="467"/></clipPath><mask id="133ca5564d"><g filter="url(#f8ad3843c9)"><rect x="-81" width="972" fill="#000000" y="-80.999999" height="971.999992" fill-opacity="0.05"/></g></mask><clipPath id="cd93e55084"><path d="M 0.839844 0 L 597 0 L 597 588.71875 L 0.839844 588.71875 Z M 0.839844 0 " clip-rule="nonzero"/></clipPath><clipPath id="29a0c99858"><rect x="0" width="597" y="0" height="589"/></clipPath><mask id="a7b153ce15"><g filter="url(#f8ad3843c9)"><rect x="-81" width="972" fill="#000000" y="-80.999999" height="971.999992" fill-opacity="0.05"/></g></mask><clipPath id="919fd39ff5"><path d="M 0.71875 0 L 444 0 L 444 435.839844 L 0.71875 435.839844 Z M 0.71875 0 " clip-rule="nonzero"/></clipPath><clipPath id="9757fc05e9"><rect x="0" width="444" y="0" height="436"/></clipPath><mask id="d9645d667f"><g filter="url(#f8ad3843c9)"><rect x="-81" width="972" fill="#000000" y="-80.999999" height="971.999992" fill-opacity="0.05"/></g></mask><clipPath id="022393f876"><path d="M 0.0390625 0 L 535 0 L 535 527.761719 L 0.0390625 527.761719 Z M 0.0390625 0 " clip-rule="nonzero"/></clipPath><clipPath id="39ad8109e4"><rect x="0" width="535" y="0" height="528"/></clipPath><mask id="4664427981"><g filter="url(#f8ad3843c9)"><rect x="-81" width="972" fill="#000000" y="-80.999999" height="971.999992" fill-opacity="0.05"/></g></mask><clipPath id="50ec9b0899"><path d="M 0 0 L 523.441406 0 L 523.441406 528.480469 L 0 528.480469 Z M 0 0 " clip-rule="nonzero"/></clipPath><clipPath id="48b9df6b4e"><rect x="0" width="524" y="0" height="529"/></clipPath><mask id="909f0b5a3f"><g filter="url(#f8ad3843c9)"><rect x="-81" width="972" fill="#000000" y="-80.999999" height="971.999992" fill-opacity="0.05"/></g></mask><clipPath id="c9a54bf705"><path d="M 0 0 L 432 0 L 432 437.039062 L 0 437.039062 Z M 0 0 " clip-rule="nonzero"/></clipPath><clipPath id="73608bc813"><rect x="0" width="432" y="0" height="438"/></clipPath><mask id="3e78fe25ea"><g filter="url(#f8ad3843c9)"><rect x="-81" width="972" fill="#000000" y="-80.999999" height="971.999992" fill-opacity="0.05"/></g></mask><clipPath id="e876627523"><path d="M 0 0 L 584.398438 0 L 584.398438 589.441406 L 0 589.441406 Z M 0 0 " clip-rule="nonzero"/></clipPath><clipPath id="e50fadd40c"><rect x="0" width="585" y="0" height="590"/></clipPath><mask id="4e45ac7f8f"><g filter="url(#f8ad3843c9)"><rect x="-81" width="972" fill="#000000" y="-80.999999" height="971.999992" fill-opacity="0.05"/></g></mask><clipPath id="edf11edfca"><path d="M 0 0 L 462.480469 0 L 462.480469 467.519531 L 0 467.519531 Z M 0 0 " clip-rule="nonzero"/></clipPath><clipPath id="75f1f4dfe1"><rect x="0" width="463" y="0" height="468"/></clipPath><mask id="cf21fa1427"><g filter="url(#f8ad3843c9)"><rect x="-81" width="972" fill="#000000" y="-80.999999" height="971.999992" fill-opacity="0.05"/></g></mask><clipPath id="ba2942f0a5"><path d="M 0 0 L 645.359375 0 L 645.359375 650.398438 L 0 650.398438 Z M 0 0 " clip-rule="nonzero"/></clipPath><clipPath id="c6f1149a0d"><rect x="0" width="646" y="0" height="651"/></clipPath><mask id="4ea4b832ff"><g filter="url(#f8ad3843c9)"><rect x="-81" width="972" fill="#000000" y="-80.999999" height="971.999992" fill-opacity="0.05"/></g></mask><clipPath id="ebde2b33b8"><path d="M 0 0 L 492.960938 0 L 492.960938 498 L 0 498 Z M 0 0 " clip-rule="nonzero"/></clipPath><clipPath id="96a0eabae4"><rect x="0" width="493" y="0" height="498"/></clipPath><mask id="887ef9a8d6"><g filter="url(#f8ad3843c9)"><rect x="-81" width="972" fill="#000000" y="-80.999999" height="971.999992" fill-opacity="0.05"/></g></mask><clipPath id="c3c7b3c99e"><path d="M 0 0 L 706.320312 0 L 706.320312 711.359375 L 0 711.359375 Z M 0 0 " clip-rule="nonzero"/></clipPath><clipPath id="6293bbf776"><rect x="0" width="707" y="0" height="712"/></clipPath><mask id="4dffb30143"><g filter="url(#f8ad3843c9)"><rect x="-81" width="972" fill="#000000" y="-80.999999" height="971.999992" fill-opacity="0.05"/></g></mask><clipPath id="bfb5ab4dfe"><path d="M 0 0 L 553.921875 0 L 553.921875 558.960938 L 0 558.960938 Z M 0 0 " clip-rule="nonzero"/></clipPath><clipPath id="d7ec68f3da"><rect x="0" width="554" y="0" height="559"/></clipPath><mask id="7f3b59203e"><g filter="url(#f8ad3843c9)"><rect x="-81" width="972" fill="#000000" y="-80.999999" height="971.999992" fill-opacity="0.05"/></g></mask><clipPath id="6de5b4ee98"><path d="M 0 0 L 767.28125 0 L 767.28125 772.320312 L 0 772.320312 Z M 0 0 " clip-rule="nonzero"/></clipPath><clipPath id="3bec2ec53f"><rect x="0" width="768" y="0" height="773"/></clipPath><mask id="19896fd51c"><g filter="url(#f8ad3843c9)"><rect x="-81" width="972" fill="#000000" y="-80.999999" height="971.999992" fill-opacity="0.05"/></g></mask><clipPath id="8f4beb226e"><path d="M 0 0 L 614.878906 0 L 614.878906 619.921875 L 0 619.921875 Z M 0 0 " clip-rule="nonzero"/></clipPath><clipPath id="2c46e862a0"><rect x="0" width="615" y="0" height="620"/></clipPath><mask id="74c616ea55"><g filter="url(#f8ad3843c9)"><rect x="-81" width="972" fill="#000000" y="-80.999999" height="971.999992" fill-opacity="0.05"/></g></mask><clipPath id="ccfc33b0f1"><path d="M 0 0.0390625 L 810 0.0390625 L 810 805 L 0 805 Z M 0 0.0390625 " clip-rule="nonzero"/></clipPath><clipPath id="82c7b106f8"><rect x="0" width="810" y="0" height="805"/></clipPath><mask id="affb03ae01"><g filter="url(#f8ad3843c9)"><rect x="-81" width="972" fill="#000000" y="-80.999999" height="971.999992" fill-opacity="0.05"/></g></mask><clipPath id="ab377c5a4f"><path d="M 0 0 L 675.839844 0 L 675.839844 680.878906 L 0 680.878906 Z M 0 0 " clip-rule="nonzero"/></clipPath><clipPath id="bb513e6f2b"><rect x="0" width="676" y="0" height="681"/></clipPath><mask id="c1c9a909c8"><g filter="url(#f8ad3843c9)"><rect x="-81" width="972" fill="#000000" y="-80.999999" height="971.999992" fill-opacity="0.05"/></g></mask><clipPath id="68b8044334"><path d="M 0.839844 0 L 753 0 L 753 744 L 0.839844 744 Z M 0.839844 0 " clip-rule="nonzero"/></clipPath><clipPath id="25f5daa450"><rect x="0" width="753" y="0" height="744"/></clipPath><mask id="0678ec04e3"><g filter="url(#f8ad3843c9)"><rect x="-81" width="972" fill="#000000" y="-80.999999" height="971.999992" fill-opacity="0.05"/></g></mask><clipPath id="b5d08d5837"><path d="M 0 0 L 736.800781 0 L 736.800781 741.839844 L 0 741.839844 Z M 0 0 " clip-rule="nonzero"/></clipPath><clipPath id="1f4f8f2c57"><rect x="0" width="737" y="0" height="742"/></clipPath><mask id="5f7833c1ef"><g filter="url(#f8ad3843c9)"><rect x="-81" width="972" fill="#000000" y="-80.999999" height="971.999992" fill-opacity="0.05"/></g></mask><clipPath id="01141a381e"><path d="M 0.800781 0.960938 L 692 0.960938 L 692 684 L 0.800781 684 Z M 0.800781 0.960938 " clip-rule="nonzero"/></clipPath><clipPath id="4a91519ab9"><rect x="0" width="692" y="0" height="684"/></clipPath><mask id="0a2567c616"><g filter="url(#f8ad3843c9)"><rect x="-81" width="972" fill="#000000" y="-80.999999" height="971.999992" fill-opacity="0.05"/></g></mask><clipPath id="ef2b5b3194"><path d="M 0 0 L 797.761719 0 L 797.761719 802.800781 L 0 802.800781 Z M 0 0 " clip-rule="nonzero"/></clipPath><clipPath id="c004167729"><rect x="0" width="798" y="0" height="803"/></clipPath><mask id="64952f72e4"><g filter="url(#f8ad3843c9)"><rect x="-81" width="972" fill="#000000" y="-80.999999" height="971.999992" fill-opacity="0.05"/></g></mask><clipPath id="c601b60ccc"><path d="M 0.761719 0.921875 L 631 0.921875 L 631 623 L 0.761719 623 Z M 0.761719 0.921875 " clip-rule="nonzero"/></clipPath><clipPath id="8e9299eb9f"><rect x="0" width="631" y="0" height="623"/></clipPath><mask id="719bdcc167"><g filter="url(#f8ad3843c9)"><rect x="-81" width="972" fill="#000000" y="-80.999999" height="971.999992" fill-opacity="0.05"/></g></mask><clipPath id="0c2aafe576"><path d="M 0.359375 0.519531 L 783 0.519531 L 783 775 L 0.359375 775 Z M 0.359375 0.519531 " clip-rule="nonzero"/></clipPath><clipPath id="b8bb7c9c36"><rect x="0" width="783" y="0" height="775"/></clipPath><mask id="4bf97d56c9"><g filter="url(#f8ad3843c9)"><rect x="-81" width="972" fill="#000000" y="-80.999999" height="971.999992" fill-opacity="0.05"/></g></mask><clipPath id="dd36660d69"><path d="M 0.71875 0.878906 L 570 0.878906 L 570 562 L 0.71875 562 Z M 0.71875 0.878906 " clip-rule="nonzero"/></clipPath><clipPath id="6f14bf9b50"><rect x="0" width="570" y="0" height="562"/></clipPath><mask id="3700efca8d"><g filter="url(#f8ad3843c9)"><rect x="-81" width="972" fill="#000000" y="-80.999999" height="971.999992" fill-opacity="0.05"/></g></mask><clipPath id="de71352940"><path d="M 0.320312 0.480469 L 722 0.480469 L 722 714 L 0.320312 714 Z M 0.320312 0.480469 " clip-rule="nonzero"/></clipPath><clipPath id="313e682af1"><rect x="0" width="722" y="0" height="714"/></clipPath><mask id="9977285987"><g filter="url(#f8ad3843c9)"><rect x="-81" width="972" fill="#000000" y="-80.999999" height="971.999992" fill-opacity="0.05"/></g></mask><clipPath id="4c5517e375"><path d="M 0.679688 0.839844 L 509 0.839844 L 509 501 L 0.679688 501 Z M 0.679688 0.839844 " clip-rule="nonzero"/></clipPath><clipPath id="19216089d1"><rect x="0" width="509" y="0" height="501"/></clipPath><mask id="384ffbc8c9"><g filter="url(#f8ad3843c9)"><rect x="-81" width="972" fill="#000000" y="-80.999999" height="971.999992" fill-opacity="0.05"/></g></mask><clipPath id="094726a8a6"><path d="M 0.28125 0.441406 L 661 0.441406 L 661 653 L 0.28125 653 Z M 0.28125 0.441406 " clip-rule="nonzero"/></clipPath><clipPath id="bcd1c91b27"><rect x="0" width="661" y="0" height="653"/></clipPath><mask id="97c7525764"><g filter="url(#f8ad3843c9)"><rect x="-81" width="972" fill="#000000" y="-80.999999" height="971.999992" fill-opacity="0.05"/></g></mask><clipPath id="72b8945dd5"><path d="M 0.160156 0.320312 L 478 0.320312 L 478 470 L 0.160156 470 Z M 0.160156 0.320312 " clip-rule="nonzero"/></clipPath><clipPath id="be2fbbbdca"><rect x="0" width="478" y="0" height="470"/></clipPath><mask id="08659b52d8"><g filter="url(#f8ad3843c9)"><rect x="-81" width="972" fill="#000000" y="-80.999999" height="971.999992" fill-opacity="0.05"/></g></mask><clipPath id="16dc5626f7"><path d="M 0.238281 0.398438 L 600 0.398438 L 600 592 L 0.238281 592 Z M 0.238281 0.398438 " clip-rule="nonzero"/></clipPath><clipPath id="6b86bbc28f"><rect x="0" width="600" y="0" height="592"/></clipPath><mask id="2dd4c11ba9"><g filter="url(#f8ad3843c9)"><rect x="-81" width="972" fill="#000000" y="-80.999999" height="971.999992" fill-opacity="0.05"/></g></mask><clipPath id="47b776b675"><path d="M 0.640625 0.800781 L 448 0.800781 L 448 440 L 0.640625 440 Z M 0.640625 0.800781 " clip-rule="nonzero"/></clipPath><clipPath id="383478eb04"><rect x="0" width="448" y="0" height="440"/></clipPath><mask id="d8d5cacff9"><g filter="url(#f8ad3843c9)"><rect x="-81" width="972" fill="#000000" y="-80.999999" height="971.999992" fill-opacity="0.05"/></g></mask><clipPath id="6d359007f8"><path d="M 0.199219 0.359375 L 539 0.359375 L 539 531 L 0.199219 531 Z M 0.199219 0.359375 " clip-rule="nonzero"/></clipPath><clipPath id="bfd908efda"><rect x="0" width="539" y="0" height="531"/></clipPath></defs><g mask="url(#67b3d6d19b)"><g transform="matrix(1, 0, 0, 1, 0, 280)"><g clip-path="url(#56d5d52ff5)"><g clip-path="url(#eb666a3c37)"><path stroke-linecap="butt" transform="matrix(0.529344, 0.531314, -0.531314, 0.529344, -304.826261, 0.800123)" fill="none" stroke-linejoin="miter" d="M -0.00020171 0.503246 L 1556.145656 0.499413 " stroke="#000000" stroke-width="1" stroke-opacity="1" stroke-miterlimit="4"/></g></g></g></g><g mask="url(#2419bf53de)"><g transform="matrix(1, 0, 0, 1, 0, 372)"><g clip-path="url(#e99893f52b)"><g clip-path="url(#ec686359de)"><path stroke-linecap="butt" transform="matrix(0.529344, 0.531314, -0.531314, 0.529344, -396.567281, 0.541173)" fill="none" stroke-linejoin="miter" d="M -0.000239529 0.498054 L 1556.145632 0.501586 " stroke="#000000" stroke-width="1" stroke-opacity="1" stroke-miterlimit="4"/></g></g></g></g><g mask="url(#e6746864a1)"><g transform="matrix(1, 0, 0, 1, 0, 218)"><g clip-path="url(#0f9ac2f55a)"><g clip-path="url(#452989f397)"><path stroke-linecap="butt" transform="matrix(0.529344, 0.531314, -0.531314, 0.529344, -243.66555, 1.639384)" fill="none" stroke-linejoin="miter" d="M -0.000187199 0.496953 L 1556.145684 0.500486 " stroke="#000000" stroke-width="1" stroke-opacity="1" stroke-miterlimit="4"/></g></g></g></g><g mask="url(#e45e63c751)"><g transform="matrix(1, 0, 0, 1, 0, 341)"><g clip-path="url(#033d66b028)"><g clip-path="url(#a3c8a48780)"><path stroke-linecap="butt" transform="matrix(0.529344, 0.531314, -0.531314, 0.529344, -365.986941, 0.960862)" fill="none" stroke-linejoin="miter" d="M -0.000259267 0.502203 L 1556.145598 0.49837 " stroke="#000000" stroke-width="1" stroke-opacity="1" stroke-miterlimit="4"/></g></g></g></g><g mask="url(#77f53dfd33)"><g transform="matrix(1, 0, 0, 1, 0, 157)"><g clip-path="url(#fe52a803b6)"><g clip-path="url(#79a149b197)"><path stroke-linecap="butt" transform="matrix(0.529344, 0.531314, -0.531314, 0.529344, -182.504884, 1.478762)" fill="none" stroke-linejoin="miter" d="M -0.000226786 0.497873 L 1556.145644 0.501405 " stroke="#000000" stroke-width="1" stroke-opacity="1" stroke-miterlimit="4"/></g></g></g></g><g mask="url(#fa0496361f)"><g transform="matrix(1, 0, 0, 1, 0, 310)"><g clip-path="url(#4378fa082d)"><g clip-path="url(#82e048a723)"><path stroke-linecap="butt" transform="matrix(0.529344, 0.531314, -0.531314, 0.529344, -335.406572, 1.380317)" fill="none" stroke-linejoin="miter" d="M -0.0000984025 0.499234 L 1556.142083 0.499091 " stroke="#000000" stroke-width="1" stroke-opacity="1" stroke-miterlimit="4"/></g></g></g></g><g mask="url(#3a04eecba5)"><g transform="matrix(1, 0, 0, 1, 0, 96)"><g clip-path="url(#7b1b34d485)"><g clip-path="url(#b8c6968303)"><path stroke-linecap="butt" transform="matrix(0.529344, 0.531314, -0.531314, 0.529344, -121.34419, 1.318023)" fill="none" stroke-linejoin="miter" d="M -0.00018278 0.49893 L 1556.145688 0.502462 " stroke="#000000" stroke-width="1" stroke-opacity="1" stroke-miterlimit="4"/></g></g></g></g><g mask="url(#780635f105)"><g transform="matrix(1, 0, 0, 1, 0, 249)"><g clip-path="url(#180fde9fd7)"><g clip-path="url(#62f7fa10af)"><path stroke-linecap="butt" transform="matrix(0.529344, 0.531314, -0.531314, 0.529344, -274.24589, 1.219812)" fill="none" stroke-linejoin="miter" d="M -0.000264471 0.50006 L 1556.141917 0.499916 " stroke="#000000" stroke-width="1" stroke-opacity="1" stroke-miterlimit="4"/></g></g></g></g><g mask="url(#6a43410f56)"><g transform="matrix(1, 0, 0, 1, 0, 35)"><g clip-path="url(#951afa5f37)"><g clip-path="url(#1ea61d4292)"><path stroke-linecap="butt" transform="matrix(0.529344, 0.531314, -0.531314, 0.529344, -60.183495, 1.157284)" fill="none" stroke-linejoin="miter" d="M -0.000138775 0.499987 L 1556.142043 0.499843 " stroke="#000000" stroke-width="1" stroke-opacity="1" stroke-miterlimit="4"/></g></g></g></g><g mask="url(#68164d5677)"><g transform="matrix(1, 0, 0, 1, 0, 188)"><g clip-path="url(#c07478314b)"><g clip-path="url(#7d9308d1af)"><path stroke-linecap="butt" transform="matrix(0.529344, 0.531314, -0.531314, 0.529344, -213.085224, 1.05919)" fill="none" stroke-linejoin="miter" d="M -0.000304058 0.500979 L 1556.145553 0.497146 " stroke="#000000" stroke-width="1" stroke-opacity="1" stroke-miterlimit="4"/></g></g></g></g><g mask="url(#b52f4d2bc3)"><g transform="matrix(1, 0, 0, 1, 0, 0.000000000000039746)"><g clip-path="url(#79c3d92147)"><g clip-path="url(#bb0b8e8998)"><path stroke-linecap="butt" transform="matrix(0.529344, 0.531314, -0.531314, 0.529344, 0.977197, -25.003338)" fill="none" stroke-linejoin="miter" d="M -0.000203341 0.500931 L 1556.141978 0.500788 " stroke="#000000" stroke-width="1" stroke-opacity="1" stroke-miterlimit="4"/></g></g></g></g><g mask="url(#df7598346f)"><g transform="matrix(1, 0, 0, 1, 0, 127)"><g clip-path="url(#017620f98e)"><g clip-path="url(#ac7601c4d2)"><path stroke-linecap="butt" transform="matrix(0.529344, 0.531314, -0.531314, 0.529344, -151.92453, 0.898451)" fill="none" stroke-linejoin="miter" d="M -0.000260075 0.502036 L 1556.145597 0.498203 " stroke="#000000" stroke-width="1" stroke-opacity="1" stroke-miterlimit="4"/></g></g></g></g><g mask="url(#db4a697e1a)"><g transform="matrix(1, 0, 0, 1, 60, 0.000000000000039746)"><g clip-path="url(#a3f64f50a8)"><g clip-path="url(#66330e7aa4)"><path stroke-linecap="butt" transform="matrix(0.529344, 0.531314, -0.531314, 0.529344, 2.137881, -86.164077)" fill="none" stroke-linejoin="miter" d="M -0.000149443 0.501978 L 1556.145708 0.498145 " stroke="#000000" stroke-width="1" stroke-opacity="1" stroke-miterlimit="4"/></g></g></g></g><g mask="url(#dc4d180b2c)"><g transform="matrix(1, 0, 0, 1, 0, 66)"><g clip-path="url(#dd89075282)"><g clip-path="url(#4d298ddcb5)"><path stroke-linecap="butt" transform="matrix(0.529344, 0.531314, -0.531314, 0.529344, -90.763842, 0.737712)" fill="none" stroke-linejoin="miter" d="M -0.000209294 0.503086 L 1556.145648 0.499253 " stroke="#000000" stroke-width="1" stroke-opacity="1" stroke-miterlimit="4"/></g></g></g></g><g mask="url(#bb021d4ebd)"><g transform="matrix(1, 0, 0, 1, 122, 0.000000000000039746)"><g clip-path="url(#2b3aa00d53)"><g clip-path="url(#5e6e9dae44)"><path stroke-linecap="butt" transform="matrix(0.529344, 0.531314, -0.531314, 0.529344, 1.298591, -147.3247)" fill="none" stroke-linejoin="miter" d="M -0.000229953 0.50294 L 1556.145627 0.499107 " stroke="#000000" stroke-width="1" stroke-opacity="1" stroke-miterlimit="4"/></g></g></g></g><g mask="url(#a75636d7a2)"><g transform="matrix(1, 0, 0, 1, 0, 5)"><g clip-path="url(#128e41de45)"><g clip-path="url(#40e47685f9)"><path stroke-linecap="butt" transform="matrix(0.529344, 0.531314, -0.531314, 0.529344, -29.603149, 0.57709)" fill="none" stroke-linejoin="miter" d="M -0.000288765 0.496666 L 1556.145582 0.500199 " stroke="#000000" stroke-width="1" stroke-opacity="1" stroke-miterlimit="4"/></g></g></g></g><g mask="url(#aee518cbd5)"><g transform="matrix(1, 0, 0, 1, 183, 0.000000000000039746)"><g clip-path="url(#14aa4bc846)"><g clip-path="url(#2e1784b43e)"><path stroke-linecap="butt" transform="matrix(0.529344, 0.531314, -0.531314, 0.529344, 1.459272, -208.485438)" fill="none" stroke-linejoin="miter" d="M -0.000187779 0.496617 L 1556.145683 0.500149 " stroke="#000000" stroke-width="1" stroke-opacity="1" stroke-miterlimit="4"/></g></g></g></g><g mask="url(#c4534c0357)"><g transform="matrix(1, 0, 0, 1, 30, 0.000000000000039746)"><g clip-path="url(#11f5bb1f16)"><g clip-path="url(#b8de1a10cb)"><path stroke-linecap="butt" transform="matrix(0.529344, 0.531314, -0.531314, 0.529344, 1.557541, -55.583648)" fill="none" stroke-linejoin="miter" d="M -0.000240899 0.497718 L 1556.14563 0.50125 " stroke="#000000" stroke-width="1" stroke-opacity="1" stroke-miterlimit="4"/></g></g></g></g><g mask="url(#adc5fed65f)"><g transform="matrix(1, 0, 0, 1, 244, 0.000000000000039746)"><g clip-path="url(#cff6cb5b36)"><g clip-path="url(#a4e8ea4805)"><path stroke-linecap="butt" transform="matrix(0.529344, 0.531314, -0.531314, 0.529344, 1.619952, -269.64606)" fill="none" stroke-linejoin="miter" d="M -0.000240712 0.497551 L 1556.14563 0.501083 " stroke="#000000" stroke-width="1" stroke-opacity="1" stroke-miterlimit="4"/></g></g></g></g><g mask="url(#5296704d81)"><g transform="matrix(1, 0, 0, 1, 91, 0.000000000000039746)"><g clip-path="url(#0b72e52437)"><g clip-path="url(#af98fd6ba9)"><path stroke-linecap="butt" transform="matrix(0.529344, 0.531314, -0.531314, 0.529344, 1.718229, -116.744389)" fill="none" stroke-linejoin="miter" d="M -0.000189663 0.498769 L 1556.145681 0.502302 " stroke="#000000" stroke-width="1" stroke-opacity="1" stroke-miterlimit="4"/></g></g></g></g><g mask="url(#72387d7269)"><g transform="matrix(1, 0, 0, 1, 305, 0.000000000000039746)"><g clip-path="url(#11a551ada5)"><g clip-path="url(#6a44f2ec9d)"><path stroke-linecap="butt" transform="matrix(0.529344, 0.531314, -0.531314, 0.529344, 1.780662, -330.8068)" fill="none" stroke-linejoin="miter" d="M -0.000210141 0.498623 L 1556.145661 0.502156 " stroke="#000000" stroke-width="1" stroke-opacity="1" stroke-miterlimit="4"/></g></g></g></g><g mask="url(#60d89df4fe)"><g transform="matrix(1, 0, 0, 1, 152, 0.000000000000039746)"><g clip-path="url(#389bd29f6a)"><g clip-path="url(#3f974faffa)"><path stroke-linecap="butt" transform="matrix(0.529344, 0.531314, -0.531314, 0.529344, 1.878931, -177.905011)" fill="none" stroke-linejoin="miter" d="M -0.000263261 0.499724 L 1556.141918 0.499581 " stroke="#000000" stroke-width="1" stroke-opacity="1" stroke-miterlimit="4"/></g></g></g></g><g mask="url(#c453c6439c)"><g transform="matrix(1, 0, 0, 1, 336, 0.000000000000039746)"><g clip-path="url(#db2da0827d)"><g clip-path="url(#1919cdb6b7)"><path stroke-linecap="butt" transform="matrix(0.529344, 0.531314, -0.531314, 0.529344, 1.360973, -361.387111)" fill="none" stroke-linejoin="miter" d="M -0.000202211 0.502745 L 1556.145655 0.498912 " stroke="#000000" stroke-width="1" stroke-opacity="1" stroke-miterlimit="4"/></g></g></g></g><g mask="url(#133ca5564d)"><g transform="matrix(1, 0, 0, 1, 213, 0.000000000000039746)"><g clip-path="url(#29a0c99858)"><g clip-path="url(#cd93e55084)"><path stroke-linecap="butt" transform="matrix(0.529344, 0.531314, -0.531314, 0.529344, 2.039612, -239.065749)" fill="none" stroke-linejoin="miter" d="M -0.000207403 0.500767 L 1556.141974 0.500623 " stroke="#000000" stroke-width="1" stroke-opacity="1" stroke-miterlimit="4"/></g></g></g></g><g mask="url(#a7b153ce15)"><g transform="matrix(1, 0, 0, 1, 366, 0.000000000000039746)"><g clip-path="url(#9757fc05e9)"><g clip-path="url(#919fd39ff5)"><path stroke-linecap="butt" transform="matrix(0.529344, 0.531314, -0.531314, 0.529344, 1.941313, -391.96742)" fill="none" stroke-linejoin="miter" d="M -0.000237787 0.499527 L 1556.141944 0.499384 " stroke="#000000" stroke-width="1" stroke-opacity="1" stroke-miterlimit="4"/></g></g></g></g><g mask="url(#d9645d667f)"><g transform="matrix(1, 0, 0, 1, 275, 0.000000000000039746)"><g clip-path="url(#39ad8109e4)"><g clip-path="url(#022393f876)"><path stroke-linecap="butt" transform="matrix(0.529344, 0.531314, -0.531314, 0.529344, 1.200322, -300.226489)" fill="none" stroke-linejoin="miter" d="M -0.000176833 0.501839 L 1556.145681 0.498006 " stroke="#000000" stroke-width="1" stroke-opacity="1" stroke-miterlimit="4"/></g></g></g></g><g mask="url(#4664427981)"><g transform="matrix(1, 0, 0, 1, 0, 0.000000000000039746)"><g clip-path="url(#48b9df6b4e)"><g clip-path="url(#50ec9b0899)"><path stroke-linecap="butt" transform="matrix(-0.531308, 0.52935, -0.52935, -0.531308, 522.735673, -298.569107)" fill="none" stroke-linejoin="miter" d="M -0.00267378 0.499551 L 1561.236652 0.501507 " stroke="#000000" stroke-width="1" stroke-opacity="1" stroke-miterlimit="4"/></g></g></g></g><g mask="url(#909f0b5a3f)"><g transform="matrix(1, 0, 0, 1, 0, 0.000000000000039746)"><g clip-path="url(#73608bc813)"><g clip-path="url(#c9a54bf705)"><path stroke-linecap="butt" transform="matrix(-0.531308, 0.52935, -0.52935, -0.531308, 431.29383, -390.010976)" fill="none" stroke-linejoin="miter" d="M 0.00103918 0.502378 L 1561.236676 0.500658 " stroke="#000000" stroke-width="1" stroke-opacity="1" stroke-miterlimit="4"/></g></g></g></g><g mask="url(#3e78fe25ea)"><g transform="matrix(1, 0, 0, 1, 0, 0.000000000000039746)"><g clip-path="url(#e50fadd40c)"><g clip-path="url(#e876627523)"><path stroke-linecap="butt" transform="matrix(-0.531308, 0.52935, -0.52935, -0.531308, 583.696918, -237.607936)" fill="none" stroke-linejoin="miter" d="M -0.0026027 0.500061 L 1561.236724 0.502016 " stroke="#000000" stroke-width="1" stroke-opacity="1" stroke-miterlimit="4"/></g></g></g></g><g mask="url(#4e45ac7f8f)"><g transform="matrix(1, 0, 0, 1, 0, 0.000000000000039746)"><g clip-path="url(#75f1f4dfe1)"><g clip-path="url(#edf11edfca)"><path stroke-linecap="butt" transform="matrix(-0.531308, 0.52935, -0.52935, -0.531308, 461.774476, -359.530275)" fill="none" stroke-linejoin="miter" d="M -0.00270179 0.499089 L 1561.236624 0.501045 " stroke="#000000" stroke-width="1" stroke-opacity="1" stroke-miterlimit="4"/></g></g></g></g><g mask="url(#cf21fa1427)"><g transform="matrix(1, 0, 0, 1, 0, 0.000000000000039746)"><g clip-path="url(#c6f1149a0d)"><g clip-path="url(#ba2942f0a5)"><path stroke-linecap="butt" transform="matrix(-0.531308, 0.52935, -0.52935, -0.531308, 644.658139, -176.64665)" fill="none" stroke-linejoin="miter" d="M -0.00266269 0.500656 L 1561.236664 0.502612 " stroke="#000000" stroke-width="1" stroke-opacity="1" stroke-miterlimit="4"/></g></g></g></g><g mask="url(#4ea4b832ff)"><g transform="matrix(1, 0, 0, 1, 0, 0.000000000000039746)"><g clip-path="url(#96a0eabae4)"><g clip-path="url(#ebde2b33b8)"><path stroke-linecap="butt" transform="matrix(-0.531308, 0.52935, -0.52935, -0.531308, 492.255099, -329.049691)" fill="none" stroke-linejoin="miter" d="M -0.00266512 0.499343 L 1561.236661 0.501299 " stroke="#000000" stroke-width="1" stroke-opacity="1" stroke-miterlimit="4"/></g></g></g></g><g mask="url(#887ef9a8d6)"><g transform="matrix(1, 0, 0, 1, 0, 0.000000000000039746)"><g clip-path="url(#6293bbf776)"><g clip-path="url(#c3c7b3c99e)"><path stroke-linecap="butt" transform="matrix(-0.531308, 0.52935, -0.52935, -0.531308, 705.619312, -115.685482)" fill="none" stroke-linejoin="miter" d="M 0.00101869 0.497406 L 1561.236669 0.503052 " stroke="#000000" stroke-width="1" stroke-opacity="1" stroke-miterlimit="4"/></g></g></g></g><g mask="url(#4dffb30143)"><g transform="matrix(1, 0, 0, 1, 0, 0.000000000000039746)"><g clip-path="url(#d7ec68f3da)"><g clip-path="url(#bfb5ab4dfe)"><path stroke-linecap="butt" transform="matrix(-0.531308, 0.52935, -0.52935, -0.531308, 553.21632, -268.088405)" fill="none" stroke-linejoin="miter" d="M -0.00272511 0.499938 L 1561.236601 0.501894 " stroke="#000000" stroke-width="1" stroke-opacity="1" stroke-miterlimit="4"/></g></g></g></g><g mask="url(#7f3b59203e)"><g transform="matrix(1, 0, 0, 1, 0, 0.000000000000039746)"><g clip-path="url(#3bec2ec53f)"><g clip-path="url(#6de5b4ee98)"><path stroke-linecap="butt" transform="matrix(-0.531308, 0.52935, -0.52935, -0.531308, 766.580581, -54.724196)" fill="none" stroke-linejoin="miter" d="M 0.00100403 0.498047 L 1561.232965 0.500016 " stroke="#000000" stroke-width="1" stroke-opacity="1" stroke-miterlimit="4"/></g></g></g></g><g mask="url(#19896fd51c)"><g transform="matrix(1, 0, 0, 1, 0, 0.000000000000039746)"><g clip-path="url(#2c46e862a0)"><g clip-path="url(#8f4beb226e)"><path stroke-linecap="butt" transform="matrix(-0.531308, 0.52935, -0.52935, -0.531308, 614.177493, -207.127234)" fill="none" stroke-linejoin="miter" d="M -0.00272203 0.50038 L 1561.236604 0.502336 " stroke="#000000" stroke-width="1" stroke-opacity="1" stroke-miterlimit="4"/></g></g></g></g><g mask="url(#74c616ea55)"><g transform="matrix(1, 0, 0, 1, 0, 5)"><g clip-path="url(#82c7b106f8)"><g clip-path="url(#ccfc33b0f1)"><path stroke-linecap="butt" transform="matrix(-0.531308, 0.52935, -0.52935, -0.531308, 827.541826, 1.236973)" fill="none" stroke-linejoin="miter" d="M 0.00107631 0.498555 L 1561.236713 0.496835 " stroke="#000000" stroke-width="1" stroke-opacity="1" stroke-miterlimit="4"/></g></g></g></g><g mask="url(#affb03ae01)"><g transform="matrix(1, 0, 0, 1, 0, 0.000000000000039746)"><g clip-path="url(#bb513e6f2b)"><g clip-path="url(#ab377c5a4f)"><path stroke-linecap="butt" transform="matrix(-0.531308, 0.52935, -0.52935, -0.531308, 675.138714, -146.166066)" fill="none" stroke-linejoin="miter" d="M -0.00267136 0.500865 L 1561.236655 0.502821 " stroke="#000000" stroke-width="1" stroke-opacity="1" stroke-miterlimit="4"/></g></g></g></g><g mask="url(#c1c9a909c8)"><g transform="matrix(1, 0, 0, 1, 57, 66)"><g clip-path="url(#25f5daa450)"><g clip-path="url(#68b8044334)"><path stroke-linecap="butt" transform="matrix(-0.531308, 0.52935, -0.52935, -0.531308, 831.503047, 1.198259)" fill="none" stroke-linejoin="miter" d="M 0.00101607 0.499151 L 1561.236653 0.497431 " stroke="#000000" stroke-width="1" stroke-opacity="1" stroke-miterlimit="4"/></g></g></g></g><g mask="url(#0678ec04e3)"><g transform="matrix(1, 0, 0, 1, 0, 0.000000000000039746)"><g clip-path="url(#1f4f8f2c57)"><g clip-path="url(#b5d08d5837)"><path stroke-linecap="butt" transform="matrix(-0.531308, 0.52935, -0.52935, -0.531308, 736.099958, -85.204781)" fill="none" stroke-linejoin="miter" d="M 0.000967359 0.497793 L 1561.236618 0.503439 " stroke="#000000" stroke-width="1" stroke-opacity="1" stroke-miterlimit="4"/></g></g></g></g><g mask="url(#5f7833c1ef)"><g transform="matrix(1, 0, 0, 1, 118, 126)"><g clip-path="url(#4a91519ab9)"><g clip-path="url(#01141a381e)"><path stroke-linecap="butt" transform="matrix(-0.531308, 0.52935, -0.52935, -0.531308, 831.464268, 2.159428)" fill="none" stroke-linejoin="miter" d="M 0.00106611 0.499636 L 1561.236703 0.497916 " stroke="#000000" stroke-width="1" stroke-opacity="1" stroke-miterlimit="4"/></g></g></g></g><g mask="url(#0a2567c616)"><g transform="matrix(1, 0, 0, 1, 0, 0.000000000000039746)"><g clip-path="url(#c004167729)"><g clip-path="url(#ef2b5b3194)"><path stroke-linecap="butt" transform="matrix(-0.531308, 0.52935, -0.52935, -0.531308, 797.061179, -24.243494)" fill="none" stroke-linejoin="miter" d="M 0.000906912 0.498389 L 1561.236544 0.496669 " stroke="#000000" stroke-width="1" stroke-opacity="1" stroke-miterlimit="4"/></g></g></g></g><g mask="url(#64952f72e4)"><g transform="matrix(1, 0, 0, 1, 179, 187)"><g clip-path="url(#8e9299eb9f)"><g clip-path="url(#c601b60ccc)"><path stroke-linecap="butt" transform="matrix(-0.531308, 0.52935, -0.52935, -0.531308, 831.425489, 2.120714)" fill="none" stroke-linejoin="miter" d="M 0.00100587 0.500232 L 1561.236642 0.498512 " stroke="#000000" stroke-width="1" stroke-opacity="1" stroke-miterlimit="4"/></g></g></g></g><g mask="url(#719bdcc167)"><g transform="matrix(1, 0, 0, 1, 27, 35)"><g clip-path="url(#b8bb7c9c36)"><g clip-path="url(#0c2aafe576)"><path stroke-linecap="butt" transform="matrix(-0.531308, 0.52935, -0.52935, -0.531308, 831.0224, 1.717557)" fill="none" stroke-linejoin="miter" d="M 0.00106733 0.498764 L 1561.236704 0.497044 " stroke="#000000" stroke-width="1" stroke-opacity="1" stroke-miterlimit="4"/></g></g></g></g><g mask="url(#4bf97d56c9)"><g transform="matrix(1, 0, 0, 1, 240, 248)"><g clip-path="url(#6f14bf9b50)"><g clip-path="url(#dd36660d69)"><path stroke-linecap="butt" transform="matrix(-0.531308, 0.52935, -0.52935, -0.531308, 831.386662, 2.082)" fill="none" stroke-linejoin="miter" d="M 0.000900288 0.500783 L 1561.236537 0.499063 " stroke="#000000" stroke-width="1" stroke-opacity="1" stroke-miterlimit="4"/></g></g></g></g><g mask="url(#3700efca8d)"><g transform="matrix(1, 0, 0, 1, 88, 96)"><g clip-path="url(#313e682af1)"><g clip-path="url(#de71352940)"><path stroke-linecap="butt" transform="matrix(-0.531308, 0.52935, -0.52935, -0.531308, 830.983693, 1.67896)" fill="none" stroke-linejoin="miter" d="M 0.000964809 0.499538 L 1561.236601 0.497818 " stroke="#000000" stroke-width="1" stroke-opacity="1" stroke-miterlimit="4"/></g></g></g></g><g mask="url(#9977285987)"><g transform="matrix(1, 0, 0, 1, 301, 309)"><g clip-path="url(#19216089d1)"><g clip-path="url(#4c5517e375)"><path stroke-linecap="butt" transform="matrix(-0.531308, 0.52935, -0.52935, -0.531308, 831.347835, 2.043051)" fill="none" stroke-linejoin="miter" d="M 0.00101528 0.501112 L 1561.236652 0.499392 " stroke="#000000" stroke-width="1" stroke-opacity="1" stroke-miterlimit="4"/></g></g></g></g><g mask="url(#384ffbc8c9)"><g transform="matrix(1, 0, 0, 1, 149, 157)"><g clip-path="url(#bcd1c91b27)"><g clip-path="url(#094726a8a6)"><path stroke-linecap="butt" transform="matrix(-0.531308, 0.52935, -0.52935, -0.531308, 830.944914, 1.640012)" fill="none" stroke-linejoin="miter" d="M 0.00112514 0.499913 L 1561.236762 0.498192 " stroke="#000000" stroke-width="1" stroke-opacity="1" stroke-miterlimit="4"/></g></g></g></g><g mask="url(#97c7525764)"><g transform="matrix(1, 0, 0, 1, 332, 340)"><g clip-path="url(#be2fbbbdca)"><g clip-path="url(#72b8945dd5)"><path stroke-linecap="butt" transform="matrix(-0.531308, 0.52935, -0.52935, -0.531308, 830.828529, 1.523753)" fill="none" stroke-linejoin="miter" d="M 0.00100936 0.501545 L 1561.236646 0.499824 " stroke="#000000" stroke-width="1" stroke-opacity="1" stroke-miterlimit="4"/></g></g></g></g><g mask="url(#08659b52d8)"><g transform="matrix(1, 0, 0, 1, 210, 218)"><g clip-path="url(#6b86bbc28f)"><g clip-path="url(#16dc5626f7)"><path stroke-linecap="butt" transform="matrix(-0.531308, 0.52935, -0.52935, -0.531308, 830.906087, 1.601298)" fill="none" stroke-linejoin="miter" d="M 0.00101956 0.500463 L 1561.236656 0.498743 " stroke="#000000" stroke-width="1" stroke-opacity="1" stroke-miterlimit="4"/></g></g></g></g><g mask="url(#2dd4c11ba9)"><g transform="matrix(1, 0, 0, 1, 362, 370)"><g clip-path="url(#383478eb04)"><g clip-path="url(#47b776b675)"><path stroke-linecap="butt" transform="matrix(-0.531308, 0.52935, -0.52935, -0.531308, 831.309127, 2.004454)" fill="none" stroke-linejoin="miter" d="M 0.000912756 0.501887 L 1561.236549 0.500166 " stroke="#000000" stroke-width="1" stroke-opacity="1" stroke-miterlimit="4"/></g></g></g></g><g mask="url(#d8d5cacff9)"><g transform="matrix(1, 0, 0, 1, 271, 279)"><g clip-path="url(#bfd908efda)"><g clip-path="url(#6d359007f8)"><path stroke-linecap="butt" transform="matrix(-0.531308, 0.52935, -0.52935, -0.531308, 830.86738, 1.562467)" fill="none" stroke-linejoin="miter" d="M 0.00113761 0.501016 L 1561.236774 0.499296 " stroke="#000000" stroke-width="1" stroke-opacity="1" stroke-miterlimit="4"/></g></g></g></g></svg>