<svg xmlns="http://www.w3.org/2000/svg" xmlns:xlink="http://www.w3.org/1999/xlink" width="1080" zoomAndPan="magnify" viewBox="0 0 810 809.999993" height="1080" preserveAspectRatio="xMidYMid meet" version="1.0"><defs><filter x="0%" y="0%" width="100%" height="100%" id="4761139b93"><feColorMatrix values="0 0 0 0 1 0 0 0 0 1 0 0 0 0 1 0 0 0 1 0" color-interpolation-filters="sRGB"/></filter><mask id="d7fa3b3650"><g filter="url(#4761139b93)"><rect x="-81" width="972" fill="#000000" y="-80.999999" height="971.999992" fill-opacity="0.05"/></g></mask><clipPath id="a264ebc49b"><path d="M 0 0.359375 L 810 0.359375 L 810 2.761719 L 0 2.761719 Z M 0 0.359375 " clip-rule="nonzero"/></clipPath><clipPath id="1193862037"><rect x="0" width="810" y="0" height="3"/></clipPath><mask id="73ec9f813b"><g filter="url(#4761139b93)"><rect x="-81" width="972" fill="#000000" y="-80.999999" height="971.999992" fill-opacity="0.05"/></g></mask><clipPath id="f05bffd094"><path d="M 0 0.601562 L 810 0.601562 L 810 3 L 0 3 Z M 0 0.601562 " clip-rule="nonzero"/></clipPath><clipPath id="56e085d504"><rect x="0" width="810" y="0" height="3"/></clipPath><mask id="a12e2d1118"><g filter="url(#4761139b93)"><rect x="-81" width="972" fill="#000000" y="-80.999999" height="971.999992" fill-opacity="0.05"/></g></mask><clipPath id="c28684cb95"><path d="M 0 0.359375 L 810 0.359375 L 810 2.761719 L 0 2.761719 Z M 0 0.359375 " clip-rule="nonzero"/></clipPath><clipPath id="d275f54cad"><rect x="0" width="810" y="0" height="3"/></clipPath><mask id="d7de7a108a"><g filter="url(#4761139b93)"><rect x="-81" width="972" fill="#000000" y="-80.999999" height="971.999992" fill-opacity="0.05"/></g></mask><clipPath id="e5c83726f7"><path d="M 0 0.839844 L 810 0.839844 L 810 3.238281 L 0 3.238281 Z M 0 0.839844 " clip-rule="nonzero"/></clipPath><clipPath id="de8e5d1dbb"><rect x="0" width="810" y="0" height="4"/></clipPath><mask id="3a1855c49f"><g filter="url(#4761139b93)"><rect x="-81" width="972" fill="#000000" y="-80.999999" height="971.999992" fill-opacity="0.05"/></g></mask><clipPath id="f6f49abef9"><path d="M 0 0.359375 L 810 0.359375 L 810 3 L 0 3 Z M 0 0.359375 " clip-rule="nonzero"/></clipPath><clipPath id="0a93bf4036"><rect x="0" width="810" y="0" height="3"/></clipPath><mask id="2874102b18"><g filter="url(#4761139b93)"><rect x="-81" width="972" fill="#000000" y="-80.999999" height="971.999992" fill-opacity="0.05"/></g></mask><clipPath id="34ad2060ac"><path d="M 0 0.839844 L 810 0.839844 L 810 3.480469 L 0 3.480469 Z M 0 0.839844 " clip-rule="nonzero"/></clipPath><clipPath id="ed7e63d87f"><rect x="0" width="810" y="0" height="4"/></clipPath><mask id="8dae44ff39"><g filter="url(#4761139b93)"><rect x="-81" width="972" fill="#000000" y="-80.999999" height="971.999992" fill-opacity="0.05"/></g></mask><clipPath id="e39e6ffc7b"><path d="M 0 0.601562 L 810 0.601562 L 810 3 L 0 3 Z M 0 0.601562 " clip-rule="nonzero"/></clipPath><clipPath id="f162000caa"><rect x="0" width="810" y="0" height="3"/></clipPath><mask id="8ca6b8b027"><g filter="url(#4761139b93)"><rect x="-81" width="972" fill="#000000" y="-80.999999" height="971.999992" fill-opacity="0.05"/></g></mask><clipPath id="6f4ab8a96b"><path d="M 0 0.078125 L 810 0.078125 L 810 2.480469 L 0 2.480469 Z M 0 0.078125 " clip-rule="nonzero"/></clipPath><clipPath id="ea915bd4af"><rect x="0" width="810" y="0" height="3"/></clipPath><mask id="6326cbeddd"><g filter="url(#4761139b93)"><rect x="-81" width="972" fill="#000000" y="-80.999999" height="971.999992" fill-opacity="0.05"/></g></mask><clipPath id="442b7d63ee"><path d="M 0 0.601562 L 810 0.601562 L 810 3.238281 L 0 3.238281 Z M 0 0.601562 " clip-rule="nonzero"/></clipPath><clipPath id="7ea51de86b"><rect x="0" width="810" y="0" height="4"/></clipPath><mask id="e5f032dcd6"><g filter="url(#4761139b93)"><rect x="-81" width="972" fill="#000000" y="-80.999999" height="971.999992" fill-opacity="0.05"/></g></mask><clipPath id="9b34b6c597"><path d="M 0 0.320312 L 810 0.320312 L 810 2.71875 L 0 2.71875 Z M 0 0.320312 " clip-rule="nonzero"/></clipPath><clipPath id="da25ba6b78"><rect x="0" width="810" y="0" height="3"/></clipPath><mask id="7ab2462197"><g filter="url(#4761139b93)"><rect x="-81" width="972" fill="#000000" y="-80.999999" height="971.999992" fill-opacity="0.05"/></g></mask><clipPath id="248b0edc6c"><path d="M 0 0.839844 L 810 0.839844 L 810 3.238281 L 0 3.238281 Z M 0 0.839844 " clip-rule="nonzero"/></clipPath><clipPath id="ca29c7484d"><rect x="0" width="810" y="0" height="4"/></clipPath><mask id="e5140c91cd"><g filter="url(#4761139b93)"><rect x="-81" width="972" fill="#000000" y="-80.999999" height="971.999992" fill-opacity="0.05"/></g></mask><clipPath id="0c0f53ea38"><path d="M 0 0.320312 L 810 0.320312 L 810 2.960938 L 0 2.960938 Z M 0 0.320312 " clip-rule="nonzero"/></clipPath><clipPath id="00fde52599"><rect x="0" width="810" y="0" height="3"/></clipPath><mask id="8df9d38684"><g filter="url(#4761139b93)"><rect x="-81" width="972" fill="#000000" y="-80.999999" height="971.999992" fill-opacity="0.05"/></g></mask><clipPath id="133b7b7b94"><path d="M 0 0.078125 L 810 0.078125 L 810 2.480469 L 0 2.480469 Z M 0 0.078125 " clip-rule="nonzero"/></clipPath><clipPath id="19626356b2"><rect x="0" width="810" y="0" height="3"/></clipPath><mask id="427764d6f0"><g filter="url(#4761139b93)"><rect x="-81" width="972" fill="#000000" y="-80.999999" height="971.999992" fill-opacity="0.05"/></g></mask><clipPath id="f664d1b6aa"><path d="M 0 0.558594 L 810 0.558594 L 810 2.960938 L 0 2.960938 Z M 0 0.558594 " clip-rule="nonzero"/></clipPath><clipPath id="e93b733c5e"><rect x="0" width="810" y="0" height="3"/></clipPath><mask id="2cab5a5ed3"><g filter="url(#4761139b93)"><rect x="-81" width="972" fill="#000000" y="-80.999999" height="971.999992" fill-opacity="0.05"/></g></mask><clipPath id="71a2638079"><path d="M 0 0.078125 L 810 0.078125 L 810 2.71875 L 0 2.71875 Z M 0 0.078125 " clip-rule="nonzero"/></clipPath><clipPath id="32c7b28efa"><rect x="0" width="810" y="0" height="3"/></clipPath><mask id="231c2d6440"><g filter="url(#4761139b93)"><rect x="-81" width="972" fill="#000000" y="-80.999999" height="971.999992" fill-opacity="0.05"/></g></mask><clipPath id="bfd31b13d6"><path d="M 0 0.800781 L 810 0.800781 L 810 3.199219 L 0 3.199219 Z M 0 0.800781 " clip-rule="nonzero"/></clipPath><clipPath id="7f41587657"><rect x="0" width="810" y="0" height="4"/></clipPath><mask id="5b17c4b41e"><g filter="url(#4761139b93)"><rect x="-81" width="972" fill="#000000" y="-80.999999" height="971.999992" fill-opacity="0.05"/></g></mask><clipPath id="4645b3cb5d"><path d="M 0 0.320312 L 810 0.320312 L 810 2.71875 L 0 2.71875 Z M 0 0.320312 " clip-rule="nonzero"/></clipPath><clipPath id="c3d248594d"><rect x="0" width="810" y="0" height="3"/></clipPath><mask id="e6d049f677"><g filter="url(#4761139b93)"><rect x="-81" width="972" fill="#000000" y="-80.999999" height="971.999992" fill-opacity="0.05"/></g></mask><clipPath id="5d308895d2"><path d="M 0 0.800781 L 810 0.800781 L 810 3.441406 L 0 3.441406 Z M 0 0.800781 " clip-rule="nonzero"/></clipPath><clipPath id="d5b77f6ec4"><rect x="0" width="810" y="0" height="4"/></clipPath><mask id="c2e8523034"><g filter="url(#4761139b93)"><rect x="-81" width="972" fill="#000000" y="-80.999999" height="971.999992" fill-opacity="0.05"/></g></mask><clipPath id="08245cb319"><path d="M 0 0.558594 L 810 0.558594 L 810 2.960938 L 0 2.960938 Z M 0 0.558594 " clip-rule="nonzero"/></clipPath><clipPath id="3dc81c28c1"><rect x="0" width="810" y="0" height="3"/></clipPath><mask id="a91eacd9b7"><g filter="url(#4761139b93)"><rect x="-81" width="972" fill="#000000" y="-80.999999" height="971.999992" fill-opacity="0.05"/></g></mask><clipPath id="334442ecc8"><path d="M 0 0.0390625 L 810 0.0390625 L 810 2.679688 L 0 2.679688 Z M 0 0.0390625 " clip-rule="nonzero"/></clipPath><clipPath id="ff099a8d9e"><rect x="0" width="810" y="0" height="3"/></clipPath><mask id="a14a2ea542"><g filter="url(#4761139b93)"><rect x="-81" width="972" fill="#000000" y="-80.999999" height="971.999992" fill-opacity="0.05"/></g></mask><clipPath id="b7d0b2ecbe"><path d="M 0 0.558594 L 810 0.558594 L 810 3.199219 L 0 3.199219 Z M 0 0.558594 " clip-rule="nonzero"/></clipPath><clipPath id="db3481cd00"><rect x="0" width="810" y="0" height="4"/></clipPath><mask id="08dd19994f"><g filter="url(#4761139b93)"><rect x="-81" width="972" fill="#000000" y="-80.999999" height="971.999992" fill-opacity="0.05"/></g></mask><clipPath id="038937b3cf"><path d="M 0 0.28125 L 810 0.28125 L 810 2.679688 L 0 2.679688 Z M 0 0.28125 " clip-rule="nonzero"/></clipPath><clipPath id="57ccbb413e"><rect x="0" width="810" y="0" height="3"/></clipPath><mask id="926cbe4b0f"><g filter="url(#4761139b93)"><rect x="-81" width="972" fill="#000000" y="-80.999999" height="971.999992" fill-opacity="0.05"/></g></mask><clipPath id="0e32ee76cf"><path d="M 0 0.800781 L 810 0.800781 L 810 3.441406 L 0 3.441406 Z M 0 0.800781 " clip-rule="nonzero"/></clipPath><clipPath id="41d2c9f9fc"><rect x="0" width="810" y="0" height="4"/></clipPath><mask id="b8179c0189"><g filter="url(#4761139b93)"><rect x="-81" width="972" fill="#000000" y="-80.999999" height="971.999992" fill-opacity="0.05"/></g></mask><clipPath id="ca48b2ac8e"><path d="M 0 0.28125 L 810 0.28125 L 810 2.921875 L 0 2.921875 Z M 0 0.28125 " clip-rule="nonzero"/></clipPath><clipPath id="f1103535e6"><rect x="0" width="810" y="0" height="3"/></clipPath><mask id="5c64cd5b66"><g filter="url(#4761139b93)"><rect x="-81" width="972" fill="#000000" y="-80.999999" height="971.999992" fill-opacity="0.05"/></g></mask><clipPath id="0caf4c321a"><path d="M 0 0.0390625 L 810 0.0390625 L 810 2.441406 L 0 2.441406 Z M 0 0.0390625 " clip-rule="nonzero"/></clipPath><clipPath id="d548e57f1f"><rect x="0" width="810" y="0" height="3"/></clipPath><mask id="5d4141f74b"><g filter="url(#4761139b93)"><rect x="-81" width="972" fill="#000000" y="-80.999999" height="971.999992" fill-opacity="0.05"/></g></mask><clipPath id="fe89ac8334"><path d="M 0 0.519531 L 810 0.519531 L 810 2.921875 L 0 2.921875 Z M 0 0.519531 " clip-rule="nonzero"/></clipPath><clipPath id="07a9eebeb4"><rect x="0" width="810" y="0" height="3"/></clipPath><mask id="0af36dba2c"><g filter="url(#4761139b93)"><rect x="-81" width="972" fill="#000000" y="-80.999999" height="971.999992" fill-opacity="0.05"/></g></mask><clipPath id="340b884770"><path d="M 0 0.28125 L 810 0.28125 L 810 2.679688 L 0 2.679688 Z M 0 0.28125 " clip-rule="nonzero"/></clipPath><clipPath id="ed539dd826"><rect x="0" width="810" y="0" height="3"/></clipPath><mask id="7c63109377"><g filter="url(#4761139b93)"><rect x="-81" width="972" fill="#000000" y="-80.999999" height="971.999992" fill-opacity="0.05"/></g></mask><clipPath id="eb09ca2fdb"><path d="M 0 0 L 810 0 L 810 1.921875 L 0 1.921875 Z M 0 0 " clip-rule="nonzero"/></clipPath><clipPath id="e34033b5f9"><rect x="0" width="810" y="0" height="2"/></clipPath><mask id="fbdef9dea4"><g filter="url(#4761139b93)"><rect x="-81" width="972" fill="#000000" y="-80.999999" height="971.999992" fill-opacity="0.05"/></g></mask><clipPath id="e5970313ba"><path d="M 0.238281 0 L 2.640625 0 L 2.640625 810 L 0.238281 810 Z M 0.238281 0 " clip-rule="nonzero"/></clipPath><clipPath id="8a1437cde7"><rect x="0" width="3" y="0" height="810"/></clipPath><mask id="9e2c39bedd"><g filter="url(#4761139b93)"><rect x="-81" width="972" fill="#000000" y="-80.999999" height="971.999992" fill-opacity="0.05"/></g></mask><clipPath id="d25322c122"><path d="M 0 0 L 2.398438 0 L 2.398438 810 L 0 810 Z M 0 0 " clip-rule="nonzero"/></clipPath><clipPath id="23592116a3"><rect x="0" width="3" y="0" height="810"/></clipPath><mask id="24d24a0e64"><g filter="url(#4761139b93)"><rect x="-81" width="972" fill="#000000" y="-80.999999" height="971.999992" fill-opacity="0.05"/></g></mask><clipPath id="a131c8607c"><path d="M 0.238281 0 L 2.640625 0 L 2.640625 810 L 0.238281 810 Z M 0.238281 0 " clip-rule="nonzero"/></clipPath><clipPath id="f8a12a6267"><rect x="0" width="3" y="0" height="810"/></clipPath><mask id="2b8268f74b"><g filter="url(#4761139b93)"><rect x="-81" width="972" fill="#000000" y="-80.999999" height="971.999992" fill-opacity="0.05"/></g></mask><clipPath id="ff60b1d162"><path d="M 0.761719 0 L 3.160156 0 L 3.160156 810 L 0.761719 810 Z M 0.761719 0 " clip-rule="nonzero"/></clipPath><clipPath id="15c50bff46"><rect x="0" width="4" y="0" height="810"/></clipPath><mask id="b65892893c"><g filter="url(#4761139b93)"><rect x="-81" width="972" fill="#000000" y="-80.999999" height="971.999992" fill-opacity="0.05"/></g></mask><clipPath id="cf6c9b78c2"><path d="M 0 0 L 2.640625 0 L 2.640625 810 L 0 810 Z M 0 0 " clip-rule="nonzero"/></clipPath><clipPath id="19ee33cc25"><rect x="0" width="3" y="0" height="810"/></clipPath><mask id="49f4396bbd"><g filter="url(#4761139b93)"><rect x="-81" width="972" fill="#000000" y="-80.999999" height="971.999992" fill-opacity="0.05"/></g></mask><clipPath id="5353657de2"><path d="M 0.519531 0 L 3.160156 0 L 3.160156 810 L 0.519531 810 Z M 0.519531 0 " clip-rule="nonzero"/></clipPath><clipPath id="632d4bd316"><rect x="0" width="4" y="0" height="810"/></clipPath><mask id="087e77945e"><g filter="url(#4761139b93)"><rect x="-81" width="972" fill="#000000" y="-80.999999" height="971.999992" fill-opacity="0.05"/></g></mask><clipPath id="aa56c14220"><path d="M 0 0 L 2.398438 0 L 2.398438 810 L 0 810 Z M 0 0 " clip-rule="nonzero"/></clipPath><clipPath id="14d65deefa"><rect x="0" width="3" y="0" height="810"/></clipPath><mask id="d81b132652"><g filter="url(#4761139b93)"><rect x="-81" width="972" fill="#000000" y="-80.999999" height="971.999992" fill-opacity="0.05"/></g></mask><clipPath id="9c32306d46"><path d="M 0.519531 0 L 2.921875 0 L 2.921875 810 L 0.519531 810 Z M 0.519531 0 " clip-rule="nonzero"/></clipPath><clipPath id="6ccd4d16e0"><rect x="0" width="3" y="0" height="810"/></clipPath><mask id="daea542dc8"><g filter="url(#4761139b93)"><rect x="-81" width="972" fill="#000000" y="-80.999999" height="971.999992" fill-opacity="0.05"/></g></mask><clipPath id="62fd541db0"><path d="M 0.761719 0 L 3.398438 0 L 3.398438 810 L 0.761719 810 Z M 0.761719 0 " clip-rule="nonzero"/></clipPath><clipPath id="dd8813a56d"><rect x="0" width="4" y="0" height="810"/></clipPath><mask id="71b4d03553"><g filter="url(#4761139b93)"><rect x="-81" width="972" fill="#000000" y="-80.999999" height="971.999992" fill-opacity="0.05"/></g></mask><clipPath id="e9784e97e1"><path d="M 0.28125 0 L 2.679688 0 L 2.679688 810 L 0.28125 810 Z M 0.28125 0 " clip-rule="nonzero"/></clipPath><clipPath id="4f22202467"><rect x="0" width="3" y="0" height="810"/></clipPath><mask id="a56cd6819d"><g filter="url(#4761139b93)"><rect x="-81" width="972" fill="#000000" y="-80.999999" height="971.999992" fill-opacity="0.05"/></g></mask><clipPath id="7d360cd5e4"><path d="M 0.761719 0 L 3.160156 0 L 3.160156 810 L 0.761719 810 Z M 0.761719 0 " clip-rule="nonzero"/></clipPath><clipPath id="c2f2a98b3d"><rect x="0" width="4" y="0" height="810"/></clipPath><mask id="73c117307d"><g filter="url(#4761139b93)"><rect x="-81" width="972" fill="#000000" y="-80.999999" height="971.999992" fill-opacity="0.05"/></g></mask><clipPath id="d41180a8ba"><path d="M 0.0390625 0 L 2.679688 0 L 2.679688 810 L 0.0390625 810 Z M 0.0390625 0 " clip-rule="nonzero"/></clipPath><clipPath id="be2b720607"><rect x="0" width="3" y="0" height="810"/></clipPath><mask id="938f0f1dc7"><g filter="url(#4761139b93)"><rect x="-81" width="972" fill="#000000" y="-80.999999" height="971.999992" fill-opacity="0.05"/></g></mask><clipPath id="bb60541f0d"><path d="M 0.519531 0 L 2.921875 0 L 2.921875 810 L 0.519531 810 Z M 0.519531 0 " clip-rule="nonzero"/></clipPath><clipPath id="03b1a9fe3e"><rect x="0" width="3" y="0" height="810"/></clipPath><mask id="21fdca1459"><g filter="url(#4761139b93)"><rect x="-81" width="972" fill="#000000" y="-80.999999" height="971.999992" fill-opacity="0.05"/></g></mask><clipPath id="2b1937b68a"><path d="M 0.0390625 0 L 2.441406 0 L 2.441406 810 L 0.0390625 810 Z M 0.0390625 0 " clip-rule="nonzero"/></clipPath><clipPath id="be930db306"><rect x="0" width="3" y="0" height="810"/></clipPath><mask id="55ea6befc7"><g filter="url(#4761139b93)"><rect x="-81" width="972" fill="#000000" y="-80.999999" height="971.999992" fill-opacity="0.05"/></g></mask><clipPath id="9460cf75aa"><path d="M 0.28125 0 L 2.921875 0 L 2.921875 810 L 0.28125 810 Z M 0.28125 0 " clip-rule="nonzero"/></clipPath><clipPath id="b460c92462"><rect x="0" width="3" y="0" height="810"/></clipPath><mask id="c43ad69c0b"><g filter="url(#4761139b93)"><rect x="-81" width="972" fill="#000000" y="-80.999999" height="971.999992" fill-opacity="0.05"/></g></mask><clipPath id="7154d39536"><path d="M 0.800781 0 L 3.199219 0 L 3.199219 810 L 0.800781 810 Z M 0.800781 0 " clip-rule="nonzero"/></clipPath><clipPath id="24fb3e0594"><rect x="0" width="4" y="0" height="810"/></clipPath><mask id="3c2c00b811"><g filter="url(#4761139b93)"><rect x="-81" width="972" fill="#000000" y="-80.999999" height="971.999992" fill-opacity="0.05"/></g></mask><clipPath id="de96a450d9"><path d="M 0.28125 0 L 2.679688 0 L 2.679688 810 L 0.28125 810 Z M 0.28125 0 " clip-rule="nonzero"/></clipPath><clipPath id="1cb26b8115"><rect x="0" width="3" y="0" height="810"/></clipPath><mask id="5405f33f15"><g filter="url(#4761139b93)"><rect x="-81" width="972" fill="#000000" y="-80.999999" height="971.999992" fill-opacity="0.05"/></g></mask><clipPath id="3b7a053cb1"><path d="M 0.558594 0 L 2.960938 0 L 2.960938 810 L 0.558594 810 Z M 0.558594 0 " clip-rule="nonzero"/></clipPath><clipPath id="e654c1c70f"><rect x="0" width="3" y="0" height="810"/></clipPath><mask id="682844e5f6"><g filter="url(#4761139b93)"><rect x="-81" width="972" fill="#000000" y="-80.999999" height="971.999992" fill-opacity="0.05"/></g></mask><clipPath id="40da86aea5"><path d="M 0.0390625 0 L 2.441406 0 L 2.441406 810 L 0.0390625 810 Z M 0.0390625 0 " clip-rule="nonzero"/></clipPath><clipPath id="2689ea447d"><rect x="0" width="3" y="0" height="810"/></clipPath><mask id="78c2bdc238"><g filter="url(#4761139b93)"><rect x="-81" width="972" fill="#000000" y="-80.999999" height="971.999992" fill-opacity="0.05"/></g></mask><clipPath id="eafc4e7883"><path d="M 0.320312 0 L 2.960938 0 L 2.960938 810 L 0.320312 810 Z M 0.320312 0 " clip-rule="nonzero"/></clipPath><clipPath id="b86adb4e2d"><rect x="0" width="3" y="0" height="810"/></clipPath><mask id="0fd2327b2d"><g filter="url(#4761139b93)"><rect x="-81" width="972" fill="#000000" y="-80.999999" height="971.999992" fill-opacity="0.05"/></g></mask><clipPath id="af55b13b55"><path d="M 0.800781 0 L 3.441406 0 L 3.441406 810 L 0.800781 810 Z M 0.800781 0 " clip-rule="nonzero"/></clipPath><clipPath id="fe03fa7304"><rect x="0" width="4" y="0" height="810"/></clipPath><mask id="0745fb5b4f"><g filter="url(#4761139b93)"><rect x="-81" width="972" fill="#000000" y="-80.999999" height="971.999992" fill-opacity="0.05"/></g></mask><clipPath id="cd7d8f0e44"><path d="M 0.320312 0 L 2.71875 0 L 2.71875 810 L 0.320312 810 Z M 0.320312 0 " clip-rule="nonzero"/></clipPath><clipPath id="c020547a1f"><rect x="0" width="3" y="0" height="810"/></clipPath><mask id="b8f6495aa8"><g filter="url(#4761139b93)"><rect x="-81" width="972" fill="#000000" y="-80.999999" height="971.999992" fill-opacity="0.05"/></g></mask><clipPath id="c94eae08fb"><path d="M 0.558594 0 L 3.199219 0 L 3.199219 810 L 0.558594 810 Z M 0.558594 0 " clip-rule="nonzero"/></clipPath><clipPath id="6e10d8dfdf"><rect x="0" width="4" y="0" height="810"/></clipPath><mask id="f82552425b"><g filter="url(#4761139b93)"><rect x="-81" width="972" fill="#000000" y="-80.999999" height="971.999992" fill-opacity="0.05"/></g></mask><clipPath id="225e494aee"><path d="M 0.078125 0 L 2.71875 0 L 2.71875 810 L 0.078125 810 Z M 0.078125 0 " clip-rule="nonzero"/></clipPath><clipPath id="4e968303a4"><rect x="0" width="3" y="0" height="810"/></clipPath><mask id="3430bd6d74"><g filter="url(#4761139b93)"><rect x="-81" width="972" fill="#000000" y="-80.999999" height="971.999992" fill-opacity="0.05"/></g></mask><clipPath id="7797971dcf"><path d="M 0.558594 0 L 2.960938 0 L 2.960938 810 L 0.558594 810 Z M 0.558594 0 " clip-rule="nonzero"/></clipPath><clipPath id="4a0cc9fc8c"><rect x="0" width="3" y="0" height="810"/></clipPath><mask id="6f1ab77364"><g filter="url(#4761139b93)"><rect x="-81" width="972" fill="#000000" y="-80.999999" height="971.999992" fill-opacity="0.05"/></g></mask><clipPath id="85240a513e"><path d="M 0.078125 0 L 2.480469 0 L 2.480469 810 L 0.078125 810 Z M 0.078125 0 " clip-rule="nonzero"/></clipPath><clipPath id="1cb86a9ffd"><rect x="0" width="3" y="0" height="810"/></clipPath><mask id="96c272ed37"><g filter="url(#4761139b93)"><rect x="-81" width="972" fill="#000000" y="-80.999999" height="971.999992" fill-opacity="0.05"/></g></mask><clipPath id="10e2d652c5"><path d="M 0.320312 0 L 2.71875 0 L 2.71875 810 L 0.320312 810 Z M 0.320312 0 " clip-rule="nonzero"/></clipPath><clipPath id="c9021c2bd7"><rect x="0" width="3" y="0" height="810"/></clipPath><mask id="a9f852d8a1"><g filter="url(#4761139b93)"><rect x="-81" width="972" fill="#000000" y="-80.999999" height="971.999992" fill-opacity="0.05"/></g></mask><clipPath id="abc59b2589"><path d="M 0.078125 0 L 2 0 L 2 810 L 0.078125 810 Z M 0.078125 0 " clip-rule="nonzero"/></clipPath><clipPath id="6d808e992e"><rect x="0" width="2" y="0" height="810"/></clipPath></defs><g mask="url(#d7fa3b3650)"><g transform="matrix(1, 0, 0, 1, 0, 807)"><g clip-path="url(#1193862037)"><g clip-path="url(#a264ebc49b)"><path stroke-linecap="butt" transform="matrix(0.749999, 0.00138889, -0.00138889, 0.749999, 0.376384, 0.374276)" fill="none" stroke-linejoin="miter" d="M -0.00091752 0.500968 L 1080.001038 0.500969 " stroke="#000000" stroke-width="1" stroke-opacity="1" stroke-miterlimit="4"/></g></g></g></g><g mask="url(#73ec9f813b)"><g transform="matrix(1, 0, 0, 1, 0, 687)"><g clip-path="url(#56e085d504)"><g clip-path="url(#f05bffd094)"><path stroke-linecap="butt" transform="matrix(0.749999, 0.00138889, -0.00138889, 0.749999, 0.376384, 0.707622)" fill="none" stroke-linejoin="miter" d="M -0.000920766 0.499215 L 1080.001034 0.499216 " stroke="#000000" stroke-width="1" stroke-opacity="1" stroke-miterlimit="4"/></g></g></g></g><g mask="url(#a12e2d1118)"><g transform="matrix(1, 0, 0, 1, 0, 777)"><g clip-path="url(#d275f54cad)"><g clip-path="url(#c28684cb95)"><path stroke-linecap="butt" transform="matrix(0.749999, 0.00138889, -0.00138889, 0.749999, 0.376384, 0.457657)" fill="none" stroke-linejoin="miter" d="M -0.000920851 0.499169 L 1080.001034 0.49917 " stroke="#000000" stroke-width="1" stroke-opacity="1" stroke-miterlimit="4"/></g></g></g></g><g mask="url(#d7de7a108a)"><g transform="matrix(1, 0, 0, 1, 0, 627)"><g clip-path="url(#de8e5d1dbb)"><g clip-path="url(#e5c83726f7)"><path stroke-linecap="butt" transform="matrix(0.749999, 0.00138889, -0.00138889, 0.749999, 0.376384, 0.874266)" fill="none" stroke-linejoin="miter" d="M -0.000917494 0.500982 L 1080.001038 0.500983 " stroke="#000000" stroke-width="1" stroke-opacity="1" stroke-miterlimit="4"/></g></g></g></g><g mask="url(#3a1855c49f)"><g transform="matrix(1, 0, 0, 1, 0, 747)"><g clip-path="url(#0a93bf4036)"><g clip-path="url(#f6f49abef9)"><path stroke-linecap="butt" transform="matrix(0.749999, 0.00138889, -0.00138889, 0.749999, 0.376384, 0.540978)" fill="none" stroke-linejoin="miter" d="M -0.000924037 0.497448 L 1080.001031 0.497449 " stroke="#000000" stroke-width="1" stroke-opacity="1" stroke-miterlimit="4"/></g></g></g></g><g mask="url(#2874102b18)"><g transform="matrix(1, 0, 0, 1, 0, 567)"><g clip-path="url(#ed7e63d87f)"><g clip-path="url(#34ad2060ac)"><path stroke-linecap="butt" transform="matrix(0.749999, 0.00138889, -0.00138889, 0.749999, 0.376384, 1.040968)" fill="none" stroke-linejoin="miter" d="M -0.000924011 0.497462 L 1080.001031 0.497463 " stroke="#000000" stroke-width="1" stroke-opacity="1" stroke-miterlimit="4"/></g></g></g></g><g mask="url(#8dae44ff39)"><g transform="matrix(1, 0, 0, 1, 0, 717)"><g clip-path="url(#f162000caa)"><g clip-path="url(#e39e6ffc7b)"><path stroke-linecap="butt" transform="matrix(0.749999, 0.00138889, -0.00138889, 0.749999, 0.376384, 0.6243)" fill="none" stroke-linejoin="miter" d="M -0.000917579 0.500936 L 1080.001038 0.500937 " stroke="#000000" stroke-width="1" stroke-opacity="1" stroke-miterlimit="4"/></g></g></g></g><g mask="url(#8ca6b8b027)"><g transform="matrix(1, 0, 0, 1, 0, 508)"><g clip-path="url(#ea915bd4af)"><g clip-path="url(#6f4ab8a96b)"><path stroke-linecap="butt" transform="matrix(0.749999, 0.00138889, -0.00138889, 0.749999, 0.376384, 0.207612)" fill="none" stroke-linejoin="miter" d="M -0.00092074 0.499229 L 1080.001034 0.49923 " stroke="#000000" stroke-width="1" stroke-opacity="1" stroke-miterlimit="4"/></g></g></g></g><g mask="url(#6326cbeddd)"><g transform="matrix(1, 0, 0, 1, 0, 657)"><g clip-path="url(#7ea51de86b)"><g clip-path="url(#442b7d63ee)"><path stroke-linecap="butt" transform="matrix(0.749999, 0.00138889, -0.00138889, 0.749999, 0.376384, 0.790944)" fill="none" stroke-linejoin="miter" d="M -0.000923952 0.497494 L 1080.001031 0.497495 " stroke="#000000" stroke-width="1" stroke-opacity="1" stroke-miterlimit="4"/></g></g></g></g><g mask="url(#e5f032dcd6)"><g transform="matrix(1, 0, 0, 1, 0, 448)"><g clip-path="url(#da25ba6b78)"><g clip-path="url(#9b34b6c597)"><path stroke-linecap="butt" transform="matrix(0.749999, 0.00138889, -0.00138889, 0.749999, 0.376384, 0.374285)" fill="none" stroke-linejoin="miter" d="M -0.00091754 0.500957 L 1080.001038 0.500958 " stroke="#000000" stroke-width="1" stroke-opacity="1" stroke-miterlimit="4"/></g></g></g></g><g mask="url(#7ab2462197)"><g transform="matrix(1, 0, 0, 1, 0, 597)"><g clip-path="url(#ca29c7484d)"><g clip-path="url(#248b0edc6c)"><path stroke-linecap="butt" transform="matrix(0.749999, 0.00138889, -0.00138889, 0.749999, 0.376384, 0.957646)" fill="none" stroke-linejoin="miter" d="M -0.000920825 0.499183 L 1080.001034 0.499184 " stroke="#000000" stroke-width="1" stroke-opacity="1" stroke-miterlimit="4"/></g></g></g></g><g mask="url(#e5140c91cd)"><g transform="matrix(1, 0, 0, 1, 0, 388)"><g clip-path="url(#00fde52599)"><g clip-path="url(#0c0f53ea38)"><path stroke-linecap="butt" transform="matrix(0.749999, 0.00138889, -0.00138889, 0.749999, 0.376384, 0.540957)" fill="none" stroke-linejoin="miter" d="M -0.000923986 0.497476 L 1080.001031 0.497477 " stroke="#000000" stroke-width="1" stroke-opacity="1" stroke-miterlimit="4"/></g></g></g></g><g mask="url(#8df9d38684)"><g transform="matrix(1, 0, 0, 1, 0, 538)"><g clip-path="url(#19626356b2)"><g clip-path="url(#133b7b7b94)"><path stroke-linecap="butt" transform="matrix(0.749999, 0.00138889, -0.00138889, 0.749999, 0.376384, 0.12429)" fill="none" stroke-linejoin="miter" d="M -0.000917553 0.50095 L 1080.001038 0.500951 " stroke="#000000" stroke-width="1" stroke-opacity="1" stroke-miterlimit="4"/></g></g></g></g><g mask="url(#427764d6f0)"><g transform="matrix(1, 0, 0, 1, 0, 328)"><g clip-path="url(#e93b733c5e)"><g clip-path="url(#f664d1b6aa)"><path stroke-linecap="butt" transform="matrix(0.749999, 0.00138889, -0.00138889, 0.749999, 0.376384, 0.70766)" fill="none" stroke-linejoin="miter" d="M -0.000920858 0.499165 L 1080.001034 0.499166 " stroke="#000000" stroke-width="1" stroke-opacity="1" stroke-miterlimit="4"/></g></g></g></g><g mask="url(#2cab5a5ed3)"><g transform="matrix(1, 0, 0, 1, 0, 478)"><g clip-path="url(#32c7b28efa)"><g clip-path="url(#71a2638079)"><path stroke-linecap="butt" transform="matrix(0.749999, 0.00138889, -0.00138889, 0.749999, 0.376384, 0.290992)" fill="none" stroke-linejoin="miter" d="M -0.000924071 0.49743 L 1080.001031 0.497431 " stroke="#000000" stroke-width="1" stroke-opacity="1" stroke-miterlimit="4"/></g></g></g></g><g mask="url(#231c2d6440)"><g transform="matrix(1, 0, 0, 1, 0, 268)"><g clip-path="url(#7f41587657)"><g clip-path="url(#bfd31b13d6)"><path stroke-linecap="butt" transform="matrix(0.749999, 0.00138889, -0.00138889, 0.749999, 0.376384, 0.874333)" fill="none" stroke-linejoin="miter" d="M -0.000917659 0.500892 L 1080.001037 0.500894 " stroke="#000000" stroke-width="1" stroke-opacity="1" stroke-miterlimit="4"/></g></g></g></g><g mask="url(#5b17c4b41e)"><g transform="matrix(1, 0, 0, 1, 0, 418)"><g clip-path="url(#c3d248594d)"><g clip-path="url(#4645b3cb5d)"><path stroke-linecap="butt" transform="matrix(0.749999, 0.00138889, -0.00138889, 0.749999, 0.376384, 0.457665)" fill="none" stroke-linejoin="miter" d="M -0.000920871 0.499158 L 1080.001034 0.499159 " stroke="#000000" stroke-width="1" stroke-opacity="1" stroke-miterlimit="4"/></g></g></g></g><g mask="url(#e6d049f677)"><g transform="matrix(1, 0, 0, 1, 0, 208)"><g clip-path="url(#d5b77f6ec4)"><g clip-path="url(#5d308895d2)"><path stroke-linecap="butt" transform="matrix(0.749999, 0.00138889, -0.00138889, 0.749999, 0.376384, 1.040991)" fill="none" stroke-linejoin="miter" d="M -0.000924068 0.497431 L 1080.001031 0.497433 " stroke="#000000" stroke-width="1" stroke-opacity="1" stroke-miterlimit="4"/></g></g></g></g><g mask="url(#c2e8523034)"><g transform="matrix(1, 0, 0, 1, 0, 358)"><g clip-path="url(#3dc81c28c1)"><g clip-path="url(#08245cb319)"><path stroke-linecap="butt" transform="matrix(0.749999, 0.00138889, -0.00138889, 0.749999, 0.376384, 0.624309)" fill="none" stroke-linejoin="miter" d="M -0.000917599 0.500924 L 1080.001038 0.500926 " stroke="#000000" stroke-width="1" stroke-opacity="1" stroke-miterlimit="4"/></g></g></g></g><g mask="url(#a91eacd9b7)"><g transform="matrix(1, 0, 0, 1, 0, 149)"><g clip-path="url(#ff099a8d9e)"><g clip-path="url(#334442ecc8)"><path stroke-linecap="butt" transform="matrix(0.749999, 0.00138889, -0.00138889, 0.749999, 0.376384, 0.207664)" fill="none" stroke-linejoin="miter" d="M -0.000920869 0.499159 L 1080.001034 0.49916 " stroke="#000000" stroke-width="1" stroke-opacity="1" stroke-miterlimit="4"/></g></g></g></g><g mask="url(#a14a2ea542)"><g transform="matrix(1, 0, 0, 1, 0, 298)"><g clip-path="url(#db3481cd00)"><g clip-path="url(#b7d0b2ecbe)"><path stroke-linecap="butt" transform="matrix(0.749999, 0.00138889, -0.00138889, 0.749999, 0.376384, 0.790982)" fill="none" stroke-linejoin="miter" d="M -0.000924045 0.497444 L 1080.001031 0.497445 " stroke="#000000" stroke-width="1" stroke-opacity="1" stroke-miterlimit="4"/></g></g></g></g><g mask="url(#08dd19994f)"><g transform="matrix(1, 0, 0, 1, 0, 89)"><g clip-path="url(#57ccbb413e)"><g clip-path="url(#038937b3cf)"><path stroke-linecap="butt" transform="matrix(0.749999, 0.00138889, -0.00138889, 0.749999, 0.376384, 0.374315)" fill="none" stroke-linejoin="miter" d="M -0.000917615 0.500916 L 1080.001038 0.500917 " stroke="#000000" stroke-width="1" stroke-opacity="1" stroke-miterlimit="4"/></g></g></g></g><g mask="url(#926cbe4b0f)"><g transform="matrix(1, 0, 0, 1, 0, 238)"><g clip-path="url(#41d2c9f9fc)"><g clip-path="url(#0e32ee76cf)"><path stroke-linecap="butt" transform="matrix(0.749999, 0.00138889, -0.00138889, 0.749999, 0.376384, 0.957654)" fill="none" stroke-linejoin="miter" d="M -0.000920845 0.499172 L 1080.001034 0.499173 " stroke="#000000" stroke-width="1" stroke-opacity="1" stroke-miterlimit="4"/></g></g></g></g><g mask="url(#b8179c0189)"><g transform="matrix(1, 0, 0, 1, 0, 59)"><g clip-path="url(#f1103535e6)"><g clip-path="url(#ca48b2ac8e)"><path stroke-linecap="butt" transform="matrix(0.749999, 0.00138889, -0.00138889, 0.749999, 0.376384, 0.457651)" fill="none" stroke-linejoin="miter" d="M -0.000920838 0.499176 L 1080.001034 0.499177 " stroke="#000000" stroke-width="1" stroke-opacity="1" stroke-miterlimit="4"/></g></g></g></g><g mask="url(#5c64cd5b66)"><g transform="matrix(1, 0, 0, 1, 0, 179)"><g clip-path="url(#d548e57f1f)"><g clip-path="url(#0caf4c321a)"><path stroke-linecap="butt" transform="matrix(0.749999, 0.00138889, -0.00138889, 0.749999, 0.376384, 0.124327)" fill="none" stroke-linejoin="miter" d="M -0.000917646 0.500899 L 1080.001037 0.500901 " stroke="#000000" stroke-width="1" stroke-opacity="1" stroke-miterlimit="4"/></g></g></g></g><g mask="url(#5d4141f74b)"><g transform="matrix(1, 0, 0, 1, 0, 29)"><g clip-path="url(#07a9eebeb4)"><g clip-path="url(#fe89ac8334)"><path stroke-linecap="butt" transform="matrix(0.749999, 0.00138889, -0.00138889, 0.749999, 0.376384, 0.54099)" fill="none" stroke-linejoin="miter" d="M -0.000924065 0.497433 L 1080.001031 0.497434 " stroke="#000000" stroke-width="1" stroke-opacity="1" stroke-miterlimit="4"/></g></g></g></g><g mask="url(#0af36dba2c)"><g transform="matrix(1, 0, 0, 1, 0, 119)"><g clip-path="url(#ed539dd826)"><g clip-path="url(#340b884770)"><path stroke-linecap="butt" transform="matrix(0.749999, 0.00138889, -0.00138889, 0.749999, 0.376384, 0.290986)" fill="none" stroke-linejoin="miter" d="M -0.000924055 0.497438 L 1080.001031 0.49744 " stroke="#000000" stroke-width="1" stroke-opacity="1" stroke-miterlimit="4"/></g></g></g></g><g mask="url(#7c63109377)"><g transform="matrix(1, 0, 0, 1, 0, 0.000000000000039746)"><g clip-path="url(#e34033b5f9)"><g clip-path="url(#eb09ca2fdb)"><path stroke-linecap="butt" transform="matrix(0.749999, 0.00138889, -0.00138889, 0.749999, 0.376384, -0.375671)" fill="none" stroke-linejoin="miter" d="M -0.000917649 0.500898 L 1080.001037 0.500899 " stroke="#000000" stroke-width="1" stroke-opacity="1" stroke-miterlimit="4"/></g></g></g></g><g mask="url(#fbdef9dea4)"><g transform="matrix(1, 0, 0, 1, 0, 0.000000000000039746)"><g clip-path="url(#8a1437cde7)"><g clip-path="url(#e5970313ba)"><path stroke-linecap="butt" transform="matrix(-0.00138889, 0.749999, -0.749999, -0.00138889, 2.625, -0.374285)" fill="none" stroke-linejoin="miter" d="M -0.000027623 0.500001 L 1080.001928 0.500001 " stroke="#000000" stroke-width="1" stroke-opacity="1" stroke-miterlimit="4"/></g></g></g></g><g mask="url(#9e2c39bedd)"><g transform="matrix(1, 0, 0, 1, 120, 0.000000000000039746)"><g clip-path="url(#23592116a3)"><g clip-path="url(#d25322c122)"><path stroke-linecap="butt" transform="matrix(-0.00138889, 0.749999, -0.749999, -0.00138889, 2.291665, -0.374285)" fill="none" stroke-linejoin="miter" d="M -0.0000308429 0.498262 L 1080.001924 0.498262 " stroke="#000000" stroke-width="1" stroke-opacity="1" stroke-miterlimit="4"/></g></g></g></g><g mask="url(#24d24a0e64)"><g transform="matrix(1, 0, 0, 1, 30, 0.000000000000039746)"><g clip-path="url(#f8a12a6267)"><g clip-path="url(#a131c8607c)"><path stroke-linecap="butt" transform="matrix(-0.00138889, 0.749999, -0.749999, -0.00138889, 2.541663, -0.374285)" fill="none" stroke-linejoin="miter" d="M -0.0000308469 0.49826 L 1080.001924 0.49826 " stroke="#000000" stroke-width="1" stroke-opacity="1" stroke-miterlimit="4"/></g></g></g></g><g mask="url(#2b8268f74b)"><g transform="matrix(1, 0, 0, 1, 179, 0.000000000000039746)"><g clip-path="url(#15c50bff46)"><g clip-path="url(#ff60b1d162)"><path stroke-linecap="butt" transform="matrix(-0.00138889, 0.749999, -0.749999, -0.00138889, 3.124985, -0.374285)" fill="none" stroke-linejoin="miter" d="M -0.0000276614 0.49998 L 1080.001927 0.49998 " stroke="#000000" stroke-width="1" stroke-opacity="1" stroke-miterlimit="4"/></g></g></g></g><g mask="url(#b65892893c)"><g transform="matrix(1, 0, 0, 1, 60, 0.000000000000039746)"><g clip-path="url(#19ee33cc25)"><g clip-path="url(#cf6c9b78c2)"><path stroke-linecap="butt" transform="matrix(-0.00138889, 0.749999, -0.749999, -0.00138889, 2.45833, -0.374285)" fill="none" stroke-linejoin="miter" d="M -0.0000244155 0.501733 L 1080.001931 0.501733 " stroke="#000000" stroke-width="1" stroke-opacity="1" stroke-miterlimit="4"/></g></g></g></g><g mask="url(#49f4396bbd)"><g transform="matrix(1, 0, 0, 1, 239, 0.000000000000039746)"><g clip-path="url(#632d4bd316)"><g clip-path="url(#5353657de2)"><path stroke-linecap="butt" transform="matrix(-0.00138889, 0.749999, -0.749999, -0.00138889, 2.958326, -0.374285)" fill="none" stroke-linejoin="miter" d="M -0.0000244257 0.501728 L 1080.001931 0.501728 " stroke="#000000" stroke-width="1" stroke-opacity="1" stroke-miterlimit="4"/></g></g></g></g><g mask="url(#087e77945e)"><g transform="matrix(1, 0, 0, 1, 90, 0.000000000000039746)"><g clip-path="url(#14d65deefa)"><g clip-path="url(#aa56c14220)"><path stroke-linecap="butt" transform="matrix(-0.00138889, 0.749999, -0.749999, -0.00138889, 2.374994, -0.374285)" fill="none" stroke-linejoin="miter" d="M -0.0000276382 0.499993 L 1080.001927 0.499993 " stroke="#000000" stroke-width="1" stroke-opacity="1" stroke-miterlimit="4"/></g></g></g></g><g mask="url(#d81b132652)"><g transform="matrix(1, 0, 0, 1, 299, 0.000000000000039746)"><g clip-path="url(#6ccd4d16e0)"><g clip-path="url(#9c32306d46)"><path stroke-linecap="butt" transform="matrix(-0.00138889, 0.749999, -0.749999, -0.00138889, 2.791639, -0.374285)" fill="none" stroke-linejoin="miter" d="M -0.0000309074 0.498228 L 1080.001924 0.498227 " stroke="#000000" stroke-width="1" stroke-opacity="1" stroke-miterlimit="4"/></g></g></g></g><g mask="url(#daea542dc8)"><g transform="matrix(1, 0, 0, 1, 149, 0.000000000000039746)"><g clip-path="url(#dd8813a56d)"><g clip-path="url(#62fd541db0)"><path stroke-linecap="butt" transform="matrix(-0.00138889, 0.749999, -0.749999, -0.00138889, 3.208321, -0.374285)" fill="none" stroke-linejoin="miter" d="M -0.0000244387 0.501721 L 1080.001931 0.501721 " stroke="#000000" stroke-width="1" stroke-opacity="1" stroke-miterlimit="4"/></g></g></g></g><g mask="url(#71b4d03553)"><g transform="matrix(1, 0, 0, 1, 359, 0.000000000000039746)"><g clip-path="url(#4f22202467)"><g clip-path="url(#e9784e97e1)"><path stroke-linecap="butt" transform="matrix(-0.00138889, 0.749999, -0.749999, -0.00138889, 2.624995, -0.374285)" fill="none" stroke-linejoin="miter" d="M -0.0000276355 0.499994 L 1080.001928 0.499994 " stroke="#000000" stroke-width="1" stroke-opacity="1" stroke-miterlimit="4"/></g></g></g></g><g mask="url(#a56cd6819d)"><g transform="matrix(1, 0, 0, 1, 209, 0.000000000000039746)"><g clip-path="url(#c2f2a98b3d)"><g clip-path="url(#7d360cd5e4)"><path stroke-linecap="butt" transform="matrix(-0.00138889, 0.749999, -0.749999, -0.00138889, 3.041663, -0.374285)" fill="none" stroke-linejoin="miter" d="M -0.000030848 0.49826 L 1080.001924 0.49826 " stroke="#000000" stroke-width="1" stroke-opacity="1" stroke-miterlimit="4"/></g></g></g></g><g mask="url(#73c117307d)"><g transform="matrix(1, 0, 0, 1, 419, 0.000000000000039746)"><g clip-path="url(#be2b720607)"><g clip-path="url(#d41180a8ba)"><path stroke-linecap="butt" transform="matrix(-0.00138889, 0.749999, -0.749999, -0.00138889, 2.458322, -0.374285)" fill="none" stroke-linejoin="miter" d="M -0.000024436 0.501722 L 1080.001931 0.501722 " stroke="#000000" stroke-width="1" stroke-opacity="1" stroke-miterlimit="4"/></g></g></g></g><g mask="url(#938f0f1dc7)"><g transform="matrix(1, 0, 0, 1, 269, 0.000000000000039746)"><g clip-path="url(#03b1a9fe3e)"><g clip-path="url(#bb60541f0d)"><path stroke-linecap="butt" transform="matrix(-0.00138889, 0.749999, -0.749999, -0.00138889, 2.87499, -0.374285)" fill="none" stroke-linejoin="miter" d="M -0.0000276485 0.499987 L 1080.001927 0.499987 " stroke="#000000" stroke-width="1" stroke-opacity="1" stroke-miterlimit="4"/></g></g></g></g><g mask="url(#21fdca1459)"><g transform="matrix(1, 0, 0, 1, 479, 0.000000000000039746)"><g clip-path="url(#be930db306)"><g clip-path="url(#2b1937b68a)"><path stroke-linecap="butt" transform="matrix(-0.00138889, 0.749999, -0.749999, -0.00138889, 2.291649, -0.374285)" fill="none" stroke-linejoin="miter" d="M -0.0000308815 0.498242 L 1080.001924 0.498241 " stroke="#000000" stroke-width="1" stroke-opacity="1" stroke-miterlimit="4"/></g></g></g></g><g mask="url(#55ea6befc7)"><g transform="matrix(1, 0, 0, 1, 329, 0.000000000000039746)"><g clip-path="url(#b460c92462)"><g clip-path="url(#9460cf75aa)"><path stroke-linecap="butt" transform="matrix(-0.00138889, 0.749999, -0.749999, -0.00138889, 2.708346, -0.374285)" fill="none" stroke-linejoin="miter" d="M -0.0000243766 0.501754 L 1080.001931 0.501754 " stroke="#000000" stroke-width="1" stroke-opacity="1" stroke-miterlimit="4"/></g></g></g></g><g mask="url(#c43ad69c0b)"><g transform="matrix(1, 0, 0, 1, 538, 0.000000000000039746)"><g clip-path="url(#24fb3e0594)"><g clip-path="url(#7154d39536)"><path stroke-linecap="butt" transform="matrix(-0.00138889, 0.749999, -0.749999, -0.00138889, 3.124976, -0.374285)" fill="none" stroke-linejoin="miter" d="M -0.0000276819 0.499969 L 1080.001927 0.499969 " stroke="#000000" stroke-width="1" stroke-opacity="1" stroke-miterlimit="4"/></g></g></g></g><g mask="url(#3c2c00b811)"><g transform="matrix(1, 0, 0, 1, 389, 0.000000000000039746)"><g clip-path="url(#1cb26b8115)"><g clip-path="url(#de96a450d9)"><path stroke-linecap="butt" transform="matrix(-0.00138889, 0.749999, -0.749999, -0.00138889, 2.541644, -0.374285)" fill="none" stroke-linejoin="miter" d="M -0.0000308944 0.498235 L 1080.001924 0.498234 " stroke="#000000" stroke-width="1" stroke-opacity="1" stroke-miterlimit="4"/></g></g></g></g><g mask="url(#5405f33f15)"><g transform="matrix(1, 0, 0, 1, 598, 0.000000000000039746)"><g clip-path="url(#e654c1c70f)"><g clip-path="url(#3b7a053cb1)"><path stroke-linecap="butt" transform="matrix(-0.00138889, 0.749999, -0.749999, -0.00138889, 2.958274, -0.374285)" fill="none" stroke-linejoin="miter" d="M -0.0000245547 0.501658 L 1080.001931 0.501658 " stroke="#000000" stroke-width="1" stroke-opacity="1" stroke-miterlimit="4"/></g></g></g></g><g mask="url(#682844e5f6)"><g transform="matrix(1, 0, 0, 1, 449, 0.000000000000039746)"><g clip-path="url(#2689ea447d)"><g clip-path="url(#40da86aea5)"><path stroke-linecap="butt" transform="matrix(-0.00138889, 0.749999, -0.749999, -0.00138889, 2.375, -0.374285)" fill="none" stroke-linejoin="miter" d="M -0.0000276226 0.500001 L 1080.001928 0.500001 " stroke="#000000" stroke-width="1" stroke-opacity="1" stroke-miterlimit="4"/></g></g></g></g><g mask="url(#78c2bdc238)"><g transform="matrix(1, 0, 0, 1, 658, 0.000000000000039746)"><g clip-path="url(#b86adb4e2d)"><g clip-path="url(#eafc4e7883)"><path stroke-linecap="butt" transform="matrix(-0.00138889, 0.749999, -0.749999, -0.00138889, 2.79163, -0.374285)" fill="none" stroke-linejoin="miter" d="M -0.0000309279 0.498217 L 1080.001924 0.498216 " stroke="#000000" stroke-width="1" stroke-opacity="1" stroke-miterlimit="4"/></g></g></g></g><g mask="url(#0fd2327b2d)"><g transform="matrix(1, 0, 0, 1, 508, 0.000000000000039746)"><g clip-path="url(#fe03fa7304)"><g clip-path="url(#af55b13b55)"><path stroke-linecap="butt" transform="matrix(-0.00138889, 0.749999, -0.749999, -0.00138889, 3.208357, -0.374285)" fill="none" stroke-linejoin="miter" d="M -0.0000243507 0.501768 L 1080.001931 0.501768 " stroke="#000000" stroke-width="1" stroke-opacity="1" stroke-miterlimit="4"/></g></g></g></g><g mask="url(#0745fb5b4f)"><g transform="matrix(1, 0, 0, 1, 718, 0.000000000000039746)"><g clip-path="url(#c020547a1f)"><g clip-path="url(#cd7d8f0e44)"><path stroke-linecap="butt" transform="matrix(-0.00138889, 0.749999, -0.749999, -0.00138889, 2.624987, -0.374285)" fill="none" stroke-linejoin="miter" d="M -0.000027656 0.499983 L 1080.001927 0.499983 " stroke="#000000" stroke-width="1" stroke-opacity="1" stroke-miterlimit="4"/></g></g></g></g><g mask="url(#b8f6495aa8)"><g transform="matrix(1, 0, 0, 1, 568, 0.000000000000039746)"><g clip-path="url(#6e10d8dfdf)"><g clip-path="url(#c94eae08fb)"><path stroke-linecap="butt" transform="matrix(-0.00138889, 0.749999, -0.749999, -0.00138889, 3.041654, -0.374285)" fill="none" stroke-linejoin="miter" d="M -0.0000308685 0.498249 L 1080.001924 0.498248 " stroke="#000000" stroke-width="1" stroke-opacity="1" stroke-miterlimit="4"/></g></g></g></g><g mask="url(#f82552425b)"><g transform="matrix(1, 0, 0, 1, 748, 0.000000000000039746)"><g clip-path="url(#4e968303a4)"><g clip-path="url(#225e494aee)"><path stroke-linecap="butt" transform="matrix(-0.00138889, 0.749999, -0.749999, -0.00138889, 2.541665, -0.374285)" fill="none" stroke-linejoin="miter" d="M -0.0000308426 0.498263 L 1080.001924 0.498262 " stroke="#000000" stroke-width="1" stroke-opacity="1" stroke-miterlimit="4"/></g></g></g></g><g mask="url(#3430bd6d74)"><g transform="matrix(1, 0, 0, 1, 628, 0.000000000000039746)"><g clip-path="url(#4a0cc9fc8c)"><g clip-path="url(#7797971dcf)"><path stroke-linecap="butt" transform="matrix(-0.00138889, 0.749999, -0.749999, -0.00138889, 2.875011, -0.374285)" fill="none" stroke-linejoin="miter" d="M -0.0000275966 0.500015 L 1080.001928 0.500015 " stroke="#000000" stroke-width="1" stroke-opacity="1" stroke-miterlimit="4"/></g></g></g></g><g mask="url(#6f1ab77364)"><g transform="matrix(1, 0, 0, 1, 778, 0.000000000000039746)"><g clip-path="url(#1cb86a9ffd)"><g clip-path="url(#85240a513e)"><path stroke-linecap="butt" transform="matrix(-0.00138889, 0.749999, -0.749999, -0.00138889, 2.458285, -0.374285)" fill="none" stroke-linejoin="miter" d="M -0.0000245288 0.501672 L 1080.001931 0.501672 " stroke="#000000" stroke-width="1" stroke-opacity="1" stroke-miterlimit="4"/></g></g></g></g><g mask="url(#96c272ed37)"><g transform="matrix(1, 0, 0, 1, 688, 0.000000000000039746)"><g clip-path="url(#c9021c2bd7)"><g clip-path="url(#10e2d652c5)"><path stroke-linecap="butt" transform="matrix(-0.00138889, 0.749999, -0.749999, -0.00138889, 2.708309, -0.374285)" fill="none" stroke-linejoin="miter" d="M -0.0000244694 0.501704 L 1080.001931 0.501704 " stroke="#000000" stroke-width="1" stroke-opacity="1" stroke-miterlimit="4"/></g></g></g></g><g mask="url(#a9f852d8a1)"><g transform="matrix(1, 0, 0, 1, 808, 0.000000000000039746)"><g clip-path="url(#6d808e992e)"><g clip-path="url(#abc59b2589)"><path stroke-linecap="butt" transform="matrix(-0.00138889, 0.749999, -0.749999, -0.00138889, 2.374963, -0.374285)" fill="none" stroke-linejoin="miter" d="M -0.0000277154 0.499951 L 1080.001927 0.499951 " stroke="#000000" stroke-width="1" stroke-opacity="1" stroke-miterlimit="4"/></g></g></g></g></svg>