<svg xmlns="http://www.w3.org/2000/svg" xmlns:xlink="http://www.w3.org/1999/xlink" width="1080" zoomAndPan="magnify" viewBox="0 0 810 809.999993" height="1080" preserveAspectRatio="xMidYMid meet" version="1.0"><defs><filter x="0%" y="0%" width="100%" height="100%" id="9a9486a590"><feColorMatrix values="0 0 0 0 1 0 0 0 0 1 0 0 0 0 1 0 0 0 1 0" color-interpolation-filters="sRGB"/></filter><mask id="aa336d7d24"><g filter="url(#9a9486a590)"><rect x="-81" width="972" fill="#000000" y="-80.999999" height="971.999992" fill-opacity="0.05"/></g></mask><clipPath id="84989cc9a6"><path d="M 0 799 L 810 799 L 810 810 L 0 810 Z M 0 799 " clip-rule="nonzero"/></clipPath><clipPath id="bc0cee1d8e"><path d="M 0 505 L 810 505 L 810 525 L 0 525 Z M 0 505 " clip-rule="nonzero"/></clipPath><clipPath id="db09fb69b5"><path d="M 0 726 L 810 726 L 810 745 L 0 745 Z M 0 726 " clip-rule="nonzero"/></clipPath><clipPath id="d432ca3c7b"><path d="M 0 652 L 810 652 L 810 672 L 0 672 Z M 0 652 " clip-rule="nonzero"/></clipPath><clipPath id="fbdc876880"><path d="M 0 579 L 810 579 L 810 598 L 0 598 Z M 0 579 " clip-rule="nonzero"/></clipPath><clipPath id="2bbe57f6ce"><path d="M 0 432 L 810 432 L 810 451 L 0 451 Z M 0 432 " clip-rule="nonzero"/></clipPath><clipPath id="57c1014711"><path d="M 0 285 L 810 285 L 810 305 L 0 305 Z M 0 285 " clip-rule="nonzero"/></clipPath><clipPath id="be85e298ab"><path d="M 0 138 L 810 138 L 810 158 L 0 158 Z M 0 138 " clip-rule="nonzero"/></clipPath><clipPath id="05e945387b"><path d="M 0 65 L 810 65 L 810 84 L 0 84 Z M 0 65 " clip-rule="nonzero"/></clipPath><clipPath id="14e01dd4b4"><path d="M 0 359 L 810 359 L 810 378 L 0 378 Z M 0 359 " clip-rule="nonzero"/></clipPath><clipPath id="64101b01a4"><path d="M 0 212 L 810 212 L 810 231 L 0 231 Z M 0 212 " clip-rule="nonzero"/></clipPath><clipPath id="58cfbaa101"><path d="M 0 0 L 810 0 L 810 11 L 0 11 Z M 0 0 " clip-rule="nonzero"/></clipPath><clipPath id="47b6fb1a0b"><path d="M 0 0 L 10 0 L 10 810 L 0 810 Z M 0 0 " clip-rule="nonzero"/></clipPath><clipPath id="64094cd502"><path d="M 285 0 L 304 0 L 304 810 L 285 810 Z M 285 0 " clip-rule="nonzero"/></clipPath><clipPath id="63a1a6e20b"><path d="M 64 0 L 84 0 L 84 810 L 64 810 Z M 64 0 " clip-rule="nonzero"/></clipPath><clipPath id="31610547e4"><path d="M 138 0 L 157 0 L 157 810 L 138 810 Z M 138 0 " clip-rule="nonzero"/></clipPath><clipPath id="fadb8e9e6d"><path d="M 211 0 L 231 0 L 231 810 L 211 810 Z M 211 0 " clip-rule="nonzero"/></clipPath><clipPath id="fa66dc7461"><path d="M 358 0 L 378 0 L 378 810 L 358 810 Z M 358 0 " clip-rule="nonzero"/></clipPath><clipPath id="b8cd15f6ef"><path d="M 505 0 L 525 0 L 525 810 L 505 810 Z M 505 0 " clip-rule="nonzero"/></clipPath><clipPath id="a40f6c4d57"><path d="M 652 0 L 671 0 L 671 810 L 652 810 Z M 652 0 " clip-rule="nonzero"/></clipPath><clipPath id="a9728c6301"><path d="M 725 0 L 745 0 L 745 810 L 725 810 Z M 725 0 " clip-rule="nonzero"/></clipPath><clipPath id="fbbd3aa908"><path d="M 432 0 L 451 0 L 451 810 L 432 810 Z M 432 0 " clip-rule="nonzero"/></clipPath><clipPath id="51d0032a16"><path d="M 578 0 L 598 0 L 598 810 L 578 810 Z M 578 0 " clip-rule="nonzero"/></clipPath><clipPath id="bcb2b6318c"><path d="M 799 0 L 810 0 L 810 810 L 799 810 Z M 799 0 " clip-rule="nonzero"/></clipPath><clipPath id="b5afde8e43"><rect x="0" width="810" y="0" height="810"/></clipPath></defs><g mask="url(#aa336d7d24)"><g transform="matrix(1, 0, 0, 1, 0, 0.000000000000039746)"><g clip-path="url(#b5afde8e43)"><g clip-path="url(#84989cc9a6)"><path stroke-linecap="butt" transform="matrix(0.749999, 0.00138889, -0.00138889, 0.749999, -0.373607, 807.377091)" fill="none" stroke-linejoin="miter" d="M -0.00000108306 1.002422 L 1080.001954 1.002423 " stroke="#000000" stroke-width="2" stroke-opacity="1" stroke-miterlimit="4"/></g><g clip-path="url(#bc0cee1d8e)"><path stroke-linecap="butt" transform="matrix(0.749999, 0.00138889, -0.00138889, 0.749999, -0.373607, 513.649866)" fill="none" stroke-linejoin="miter" d="M -0.00000909175 0.998097 L 1080.001946 0.998098 " stroke="#000000" stroke-width="2" stroke-opacity="1" stroke-miterlimit="4"/></g><g clip-path="url(#db09fb69b5)"><path stroke-linecap="butt" transform="matrix(0.749999, 0.00138889, -0.00138889, 0.749999, -0.373607, 733.945231)" fill="none" stroke-linejoin="miter" d="M -0.00000536316 1.00011 L 1080.00195 1.000112 " stroke="#000000" stroke-width="2" stroke-opacity="1" stroke-miterlimit="4"/></g><g clip-path="url(#d432ca3c7b)"><path stroke-linecap="butt" transform="matrix(0.749999, 0.00138889, -0.00138889, 0.749999, -0.373607, 660.513443)" fill="none" stroke-linejoin="miter" d="M -0.00000982103 0.997703 L 1080.001945 0.997704 " stroke="#000000" stroke-width="2" stroke-opacity="1" stroke-miterlimit="4"/></g><g clip-path="url(#fbdc876880)"><path stroke-linecap="butt" transform="matrix(0.749999, 0.00138889, -0.00138889, 0.749999, -0.373607, 587.081654)" fill="none" stroke-linejoin="miter" d="M -0.00000463387 1.000504 L 1080.001951 1.000505 " stroke="#000000" stroke-width="2" stroke-opacity="1" stroke-miterlimit="4"/></g><g clip-path="url(#2bbe57f6ce)"><path stroke-linecap="butt" transform="matrix(0.749999, 0.00138889, -0.00138889, 0.749999, -0.373607, 440.218006)" fill="none" stroke-linejoin="miter" d="M -0.00000372681 1.000994 L 1080.001951 1.000995 " stroke="#000000" stroke-width="2" stroke-opacity="1" stroke-miterlimit="4"/></g><g clip-path="url(#57c1014711)"><path stroke-linecap="butt" transform="matrix(0.749999, 0.00138889, -0.00138889, 0.749999, -0.373607, 293.354391)" fill="none" stroke-linejoin="miter" d="M -0.00000290271 1.001439 L 1080.001952 1.00144 " stroke="#000000" stroke-width="2" stroke-opacity="1" stroke-miterlimit="4"/></g><g clip-path="url(#be85e298ab)"><path stroke-linecap="butt" transform="matrix(0.749999, 0.00138889, -0.00138889, 0.749999, -0.373607, 146.490759)" fill="none" stroke-linejoin="miter" d="M -0.00000203713 1.001906 L 1080.001953 1.001908 " stroke="#000000" stroke-width="2" stroke-opacity="1" stroke-miterlimit="4"/></g><g clip-path="url(#05e945387b)"><path stroke-linecap="butt" transform="matrix(0.749999, 0.00138889, -0.00138889, 0.749999, -0.373607, 73.058944)" fill="none" stroke-linejoin="miter" d="M -0.00000642982 0.999534 L 1080.001949 0.999536 " stroke="#000000" stroke-width="2" stroke-opacity="1" stroke-miterlimit="4"/></g><g clip-path="url(#14e01dd4b4)"><path stroke-linecap="butt" transform="matrix(0.749999, 0.00138889, -0.00138889, 0.749999, -0.373607, 366.786184)" fill="none" stroke-linejoin="miter" d="M -0.00000810172 0.998632 L 1080.001947 0.998633 " stroke="#000000" stroke-width="2" stroke-opacity="1" stroke-miterlimit="4"/></g><g clip-path="url(#64101b01a4)"><path stroke-linecap="butt" transform="matrix(0.749999, 0.00138889, -0.00138889, 0.749999, -0.373607, 219.922567)" fill="none" stroke-linejoin="miter" d="M -0.0000072717 0.99908 L 1080.001948 0.999081 " stroke="#000000" stroke-width="2" stroke-opacity="1" stroke-miterlimit="4"/></g><g clip-path="url(#58cfbaa101)"><path stroke-linecap="butt" transform="matrix(0.749999, 0.00138889, -0.00138889, 0.749999, -0.373607, -0.372869)" fill="none" stroke-linejoin="miter" d="M -0.00000118122 1.002369 L 1080.001954 1.00237 " stroke="#000000" stroke-width="2" stroke-opacity="1" stroke-miterlimit="4"/></g><g clip-path="url(#47b6fb1a0b)"><path stroke-linecap="butt" transform="matrix(-0.00138889, 0.749999, -0.749999, -0.00138889, 2.249315, 0.00421269)" fill="none" stroke-linejoin="miter" d="M 0.00144158 0.999086 L 1080.003397 0.999087 " stroke="#000000" stroke-width="2" stroke-opacity="1" stroke-miterlimit="4"/></g><g clip-path="url(#64094cd502)"><path stroke-linecap="butt" transform="matrix(-0.00138889, 0.749999, -0.749999, -0.00138889, 295.976561, 0.00421269)" fill="none" stroke-linejoin="miter" d="M 0.00144326 0.999998 L 1080.003398 0.999999 " stroke="#000000" stroke-width="2" stroke-opacity="1" stroke-miterlimit="4"/></g><g clip-path="url(#63a1a6e20b)"><path stroke-linecap="butt" transform="matrix(-0.00138889, 0.749999, -0.749999, -0.00138889, 75.681122, 0.00421269)" fill="none" stroke-linejoin="miter" d="M 0.00144681 1.001912 L 1080.003402 1.001913 " stroke="#000000" stroke-width="2" stroke-opacity="1" stroke-miterlimit="4"/></g><g clip-path="url(#31610547e4)"><path stroke-linecap="butt" transform="matrix(-0.00138889, 0.749999, -0.749999, -0.00138889, 149.112946, 0.00421269)" fill="none" stroke-linejoin="miter" d="M 0.00144244 0.999553 L 1080.003398 0.999554 " stroke="#000000" stroke-width="2" stroke-opacity="1" stroke-miterlimit="4"/></g><g clip-path="url(#fadb8e9e6d)"><path stroke-linecap="butt" transform="matrix(-0.00138889, 0.749999, -0.749999, -0.00138889, 222.544754, 0.00421269)" fill="none" stroke-linejoin="miter" d="M 0.00144768 1.002379 L 1080.003403 1.002381 " stroke="#000000" stroke-width="2" stroke-opacity="1" stroke-miterlimit="4"/></g><g clip-path="url(#fa66dc7461)"><path stroke-linecap="butt" transform="matrix(-0.00138889, 0.749999, -0.749999, -0.00138889, 369.408383, 0.00421269)" fill="none" stroke-linejoin="miter" d="M 0.00143889 0.997635 L 1080.003394 0.997636 " stroke="#000000" stroke-width="2" stroke-opacity="1" stroke-miterlimit="4"/></g><g clip-path="url(#b8cd15f6ef)"><path stroke-linecap="butt" transform="matrix(-0.00138889, 0.749999, -0.749999, -0.00138889, 516.272018, 0.00421269)" fill="none" stroke-linejoin="miter" d="M 0.00143976 0.998106 L 1080.003395 0.998107 " stroke="#000000" stroke-width="2" stroke-opacity="1" stroke-miterlimit="4"/></g><g clip-path="url(#a40f6c4d57)"><path stroke-linecap="butt" transform="matrix(-0.00138889, 0.749999, -0.749999, -0.00138889, 663.135618, 0.00421269)" fill="none" stroke-linejoin="miter" d="M 0.00144055 0.998532 L 1080.003396 0.998533 " stroke="#000000" stroke-width="2" stroke-opacity="1" stroke-miterlimit="4"/></g><g clip-path="url(#a9728c6301)"><path stroke-linecap="butt" transform="matrix(-0.00138889, 0.749999, -0.749999, -0.00138889, 736.567478, 0.00421269)" fill="none" stroke-linejoin="miter" d="M 0.00144591 1.001429 L 1080.003401 1.00143 " stroke="#000000" stroke-width="2" stroke-opacity="1" stroke-miterlimit="4"/></g><g clip-path="url(#fbbd3aa908)"><path stroke-linecap="butt" transform="matrix(-0.00138889, 0.749999, -0.749999, -0.00138889, 442.840181, 0.00421269)" fill="none" stroke-linejoin="miter" d="M 0.0014441 1.000449 L 1080.003399 1.00045 " stroke="#000000" stroke-width="2" stroke-opacity="1" stroke-miterlimit="4"/></g><g clip-path="url(#51d0032a16)"><path stroke-linecap="butt" transform="matrix(-0.00138889, 0.749999, -0.749999, -0.00138889, 589.70383, 0.00421269)" fill="none" stroke-linejoin="miter" d="M 0.00144501 1.000939 L 1080.0034 1.00094 " stroke="#000000" stroke-width="2" stroke-opacity="1" stroke-miterlimit="4"/></g><g clip-path="url(#bcb2b6318c)"><path stroke-linecap="butt" transform="matrix(-0.00138889, 0.749999, -0.749999, -0.00138889, 809.999267, 0.00421269)" fill="none" stroke-linejoin="miter" d="M 0.00144146 0.999021 L 1080.003397 0.999023 " stroke="#000000" stroke-width="2" stroke-opacity="1" stroke-miterlimit="4"/></g></g></g></g></svg>