<svg xmlns="http://www.w3.org/2000/svg" xmlns:xlink="http://www.w3.org/1999/xlink" width="1080" zoomAndPan="magnify" viewBox="0 0 810 809.999993" height="1080" preserveAspectRatio="xMidYMid meet" version="1.0"><defs><filter x="0%" y="0%" width="100%" height="100%" id="236d5efeda"><feColorMatrix values="0 0 0 0 1 0 0 0 0 1 0 0 0 0 1 0 0 0 1 0" color-interpolation-filters="sRGB"/></filter><mask id="e87f75eefa"><g filter="url(#236d5efeda)"><rect x="-81" width="972" fill="#000000" y="-80.999999" height="971.999992" fill-opacity="0.05"/></g></mask><clipPath id="600f6a1560"><path d="M 0 0.601562 L 810 0.601562 L 810 3 L 0 3 Z M 0 0.601562 " clip-rule="nonzero"/></clipPath><clipPath id="99cea031c4"><rect x="0" width="810" y="0" height="3"/></clipPath><mask id="e0c53af5b1"><g filter="url(#236d5efeda)"><rect x="-81" width="972" fill="#000000" y="-80.999999" height="971.999992" fill-opacity="0.05"/></g></mask><clipPath id="d532da512f"><path d="M 0 0.839844 L 810 0.839844 L 810 3.480469 L 0 3.480469 Z M 0 0.839844 " clip-rule="nonzero"/></clipPath><clipPath id="b7d290e078"><rect x="0" width="810" y="0" height="4"/></clipPath><mask id="35f350f36d"><g filter="url(#236d5efeda)"><rect x="-81" width="972" fill="#000000" y="-80.999999" height="971.999992" fill-opacity="0.05"/></g></mask><clipPath id="51b1f46e07"><path d="M 0 0.160156 L 810 0.160156 L 810 2.800781 L 0 2.800781 Z M 0 0.160156 " clip-rule="nonzero"/></clipPath><clipPath id="77082025cf"><rect x="0" width="810" y="0" height="3"/></clipPath><mask id="be28c90822"><g filter="url(#236d5efeda)"><rect x="-81" width="972" fill="#000000" y="-80.999999" height="971.999992" fill-opacity="0.05"/></g></mask><clipPath id="87bb044bdc"><path d="M 0 0.71875 L 810 0.71875 L 810 3.359375 L 0 3.359375 Z M 0 0.71875 " clip-rule="nonzero"/></clipPath><clipPath id="c2db1c7a8e"><rect x="0" width="810" y="0" height="4"/></clipPath><mask id="2bf1c5da8f"><g filter="url(#236d5efeda)"><rect x="-81" width="972" fill="#000000" y="-80.999999" height="971.999992" fill-opacity="0.05"/></g></mask><clipPath id="36a1d3fc6d"><path d="M 0 0.28125 L 810 0.28125 L 810 2.921875 L 0 2.921875 Z M 0 0.28125 " clip-rule="nonzero"/></clipPath><clipPath id="a9f8c559c4"><rect x="0" width="810" y="0" height="3"/></clipPath><mask id="919de5e1b9"><g filter="url(#236d5efeda)"><rect x="-81" width="972" fill="#000000" y="-80.999999" height="971.999992" fill-opacity="0.05"/></g></mask><clipPath id="35573a3e29"><path d="M 0 0.398438 L 810 0.398438 L 810 3.039062 L 0 3.039062 Z M 0 0.398438 " clip-rule="nonzero"/></clipPath><clipPath id="4df0718a55"><rect x="0" width="810" y="0" height="4"/></clipPath><mask id="5add2d8a51"><g filter="url(#236d5efeda)"><rect x="-81" width="972" fill="#000000" y="-80.999999" height="971.999992" fill-opacity="0.05"/></g></mask><clipPath id="61caa8506d"><path d="M 0 0.519531 L 810 0.519531 L 810 3.160156 L 0 3.160156 Z M 0 0.519531 " clip-rule="nonzero"/></clipPath><clipPath id="0e42f7bd96"><rect x="0" width="810" y="0" height="4"/></clipPath><mask id="d78b1ad262"><g filter="url(#236d5efeda)"><rect x="-81" width="972" fill="#000000" y="-80.999999" height="971.999992" fill-opacity="0.05"/></g></mask><clipPath id="6878f032ef"><path d="M 0 0.640625 L 810 0.640625 L 810 3.28125 L 0 3.28125 Z M 0 0.640625 " clip-rule="nonzero"/></clipPath><clipPath id="29ca3d7c6c"><rect x="0" width="810" y="0" height="4"/></clipPath><mask id="d17e609675"><g filter="url(#236d5efeda)"><rect x="-81" width="972" fill="#000000" y="-80.999999" height="971.999992" fill-opacity="0.05"/></g></mask><clipPath id="21136d6bc5"><path d="M 0 0.199219 L 810 0.199219 L 810 2.839844 L 0 2.839844 Z M 0 0.199219 " clip-rule="nonzero"/></clipPath><clipPath id="605721db40"><rect x="0" width="810" y="0" height="3"/></clipPath><mask id="ac5aabe020"><g filter="url(#236d5efeda)"><rect x="-81" width="972" fill="#000000" y="-80.999999" height="971.999992" fill-opacity="0.05"/></g></mask><clipPath id="aea048f42c"><path d="M 0 0.960938 L 810 0.960938 L 810 3.601562 L 0 3.601562 Z M 0 0.960938 " clip-rule="nonzero"/></clipPath><clipPath id="11805e883d"><rect x="0" width="810" y="0" height="4"/></clipPath><mask id="d8ac8c27b1"><g filter="url(#236d5efeda)"><rect x="-81" width="972" fill="#000000" y="-80.999999" height="971.999992" fill-opacity="0.05"/></g></mask><clipPath id="4d03f74a0e"><path d="M 0 0.078125 L 810 0.078125 L 810 2.71875 L 0 2.71875 Z M 0 0.078125 " clip-rule="nonzero"/></clipPath><clipPath id="e011ea16ad"><rect x="0" width="810" y="0" height="3"/></clipPath><mask id="5b066c6cd4"><g filter="url(#236d5efeda)"><rect x="-81" width="972" fill="#000000" y="-80.999999" height="971.999992" fill-opacity="0.05"/></g></mask><clipPath id="4db426a0ec"><path d="M 0 0 L 810 0 L 810 2.398438 L 0 2.398438 Z M 0 0 " clip-rule="nonzero"/></clipPath><clipPath id="be73f2f575"><rect x="0" width="810" y="0" height="3"/></clipPath><mask id="bf0d30abc8"><g filter="url(#236d5efeda)"><rect x="-81" width="972" fill="#000000" y="-80.999999" height="971.999992" fill-opacity="0.05"/></g></mask><clipPath id="f7422361c0"><path d="M 0 0 L 1.921875 0 L 1.921875 810 L 0 810 Z M 0 0 " clip-rule="nonzero"/></clipPath><clipPath id="d3c22d58b7"><rect x="0" width="2" y="0" height="810"/></clipPath><mask id="064304f41c"><g filter="url(#236d5efeda)"><rect x="-81" width="972" fill="#000000" y="-80.999999" height="971.999992" fill-opacity="0.05"/></g></mask><clipPath id="f658c302fc"><path d="M 0.28125 0 L 2.679688 0 L 2.679688 810 L 0.28125 810 Z M 0.28125 0 " clip-rule="nonzero"/></clipPath><clipPath id="2024053e93"><rect x="0" width="3" y="0" height="810"/></clipPath><mask id="9a13930685"><g filter="url(#236d5efeda)"><rect x="-81" width="972" fill="#000000" y="-80.999999" height="971.999992" fill-opacity="0.05"/></g></mask><clipPath id="8fde649427"><path d="M 0.960938 0 L 3.359375 0 L 3.359375 810 L 0.960938 810 Z M 0.960938 0 " clip-rule="nonzero"/></clipPath><clipPath id="c91d2d4ba4"><rect x="0" width="4" y="0" height="810"/></clipPath><mask id="dd63475153"><g filter="url(#236d5efeda)"><rect x="-81" width="972" fill="#000000" y="-80.999999" height="971.999992" fill-opacity="0.05"/></g></mask><clipPath id="ad4e75b64c"><path d="M 0.398438 0 L 2.800781 0 L 2.800781 810 L 0.398438 810 Z M 0.398438 0 " clip-rule="nonzero"/></clipPath><clipPath id="30fde19994"><rect x="0" width="3" y="0" height="810"/></clipPath><mask id="46bf65a7b0"><g filter="url(#236d5efeda)"><rect x="-81" width="972" fill="#000000" y="-80.999999" height="971.999992" fill-opacity="0.05"/></g></mask><clipPath id="3415d31fe9"><path d="M 0.839844 0 L 3.238281 0 L 3.238281 810 L 0.839844 810 Z M 0.839844 0 " clip-rule="nonzero"/></clipPath><clipPath id="199e0ab7a2"><rect x="0" width="4" y="0" height="810"/></clipPath><mask id="75d11497ae"><g filter="url(#236d5efeda)"><rect x="-81" width="972" fill="#000000" y="-80.999999" height="971.999992" fill-opacity="0.05"/></g></mask><clipPath id="82de12078d"><path d="M 0.71875 0 L 3.121094 0 L 3.121094 810 L 0.71875 810 Z M 0.71875 0 " clip-rule="nonzero"/></clipPath><clipPath id="015f75f165"><rect x="0" width="4" y="0" height="810"/></clipPath><mask id="a4cc73244f"><g filter="url(#236d5efeda)"><rect x="-81" width="972" fill="#000000" y="-80.999999" height="971.999992" fill-opacity="0.05"/></g></mask><clipPath id="288ac0138a"><path d="M 0.601562 0 L 3 0 L 3 810 L 0.601562 810 Z M 0.601562 0 " clip-rule="nonzero"/></clipPath><clipPath id="3d0e60a875"><rect x="0" width="3" y="0" height="810"/></clipPath><mask id="753e50d248"><g filter="url(#236d5efeda)"><rect x="-81" width="972" fill="#000000" y="-80.999999" height="971.999992" fill-opacity="0.05"/></g></mask><clipPath id="7eff542844"><path d="M 0.480469 0 L 2.878906 0 L 2.878906 810 L 0.480469 810 Z M 0.480469 0 " clip-rule="nonzero"/></clipPath><clipPath id="1010e39faf"><rect x="0" width="3" y="0" height="810"/></clipPath><mask id="6e6f6d364a"><g filter="url(#236d5efeda)"><rect x="-81" width="972" fill="#000000" y="-80.999999" height="971.999992" fill-opacity="0.05"/></g></mask><clipPath id="d4e1b709c7"><path d="M 0.921875 0 L 3.320312 0 L 3.320312 810 L 0.921875 810 Z M 0.921875 0 " clip-rule="nonzero"/></clipPath><clipPath id="9dfaf2aee8"><rect x="0" width="4" y="0" height="810"/></clipPath><mask id="e50bc2a1f2"><g filter="url(#236d5efeda)"><rect x="-81" width="972" fill="#000000" y="-80.999999" height="971.999992" fill-opacity="0.05"/></g></mask><clipPath id="b3707cdd8b"><path d="M 0.160156 0 L 2.558594 0 L 2.558594 810 L 0.160156 810 Z M 0.160156 0 " clip-rule="nonzero"/></clipPath><clipPath id="e22e42fb4c"><rect x="0" width="3" y="0" height="810"/></clipPath><mask id="995395ec47"><g filter="url(#236d5efeda)"><rect x="-81" width="972" fill="#000000" y="-80.999999" height="971.999992" fill-opacity="0.05"/></g></mask><clipPath id="a3aeac8ccc"><path d="M 0.0390625 0 L 2.441406 0 L 2.441406 810 L 0.0390625 810 Z M 0.0390625 0 " clip-rule="nonzero"/></clipPath><clipPath id="f212f5b816"><rect x="0" width="3" y="0" height="810"/></clipPath><mask id="0512644cb2"><g filter="url(#236d5efeda)"><rect x="-81" width="972" fill="#000000" y="-80.999999" height="971.999992" fill-opacity="0.05"/></g></mask><clipPath id="4f2650b0ca"><path d="M 0.359375 0 L 2.761719 0 L 2.761719 810 L 0.359375 810 Z M 0.359375 0 " clip-rule="nonzero"/></clipPath><clipPath id="9887bbe77c"><rect x="0" width="3" y="0" height="810"/></clipPath></defs><g mask="url(#e87f75eefa)"><g transform="matrix(1, 0, 0, 1, 0, 807)"><g clip-path="url(#99cea031c4)"><g clip-path="url(#600f6a1560)"><path stroke-linecap="butt" transform="matrix(0.749999, 0.00138889, -0.00138889, 0.749999, -0.374301, 0.752206)" fill="none" stroke-linejoin="miter" d="M -0.00000142507 0.502268 L 1080.001954 0.502268 " stroke="#000000" stroke-width="1" stroke-opacity="1" stroke-miterlimit="4"/></g></g></g></g><g mask="url(#e0c53af5b1)"><g transform="matrix(1, 0, 0, 1, 0, 513)"><g clip-path="url(#b7d290e078)"><g clip-path="url(#d532da512f)"><path stroke-linecap="butt" transform="matrix(0.749999, 0.00138889, -0.00138889, 0.749999, -0.374301, 1.024799)" fill="none" stroke-linejoin="miter" d="M -0.0000089847 0.498186 L 1080.001946 0.498186 " stroke="#000000" stroke-width="1" stroke-opacity="1" stroke-miterlimit="4"/></g></g></g></g><g mask="url(#35f350f36d)"><g transform="matrix(1, 0, 0, 1, 0, 734)"><g clip-path="url(#77082025cf)"><g clip-path="url(#51b1f46e07)"><path stroke-linecap="butt" transform="matrix(0.749999, 0.00138889, -0.00138889, 0.749999, -0.374301, 0.320296)" fill="none" stroke-linejoin="miter" d="M -0.00000558157 0.500024 L 1080.00195 0.500023 " stroke="#000000" stroke-width="1" stroke-opacity="1" stroke-miterlimit="4"/></g></g></g></g><g mask="url(#be28c90822)"><g transform="matrix(1, 0, 0, 1, 0, 660)"><g clip-path="url(#c2db1c7a8e)"><g clip-path="url(#87bb044bdc)"><path stroke-linecap="butt" transform="matrix(0.749999, 0.00138889, -0.00138889, 0.749999, -0.374301, 0.888385)" fill="none" stroke-linejoin="miter" d="M -0.00000973806 0.497779 L 1080.001945 0.497779 " stroke="#000000" stroke-width="1" stroke-opacity="1" stroke-miterlimit="4"/></g></g></g></g><g mask="url(#2bf1c5da8f)"><g transform="matrix(1, 0, 0, 1, 0, 587)"><g clip-path="url(#a9f8c559c4)"><g clip-path="url(#36a1d3fc6d)"><path stroke-linecap="butt" transform="matrix(0.749999, 0.00138889, -0.00138889, 0.749999, -0.374301, 0.456592)" fill="none" stroke-linejoin="miter" d="M -0.00000453885 0.500587 L 1080.001951 0.500586 " stroke="#000000" stroke-width="1" stroke-opacity="1" stroke-miterlimit="4"/></g></g></g></g><g mask="url(#919de5e1b9)"><g transform="matrix(1, 0, 0, 1, 0, 440)"><g clip-path="url(#4df0718a55)"><g clip-path="url(#35573a3e29)"><path stroke-linecap="butt" transform="matrix(0.749999, 0.00138889, -0.00138889, 0.749999, -0.374301, 0.593006)" fill="none" stroke-linejoin="miter" d="M -0.00000378549 0.500993 L 1080.001951 0.500993 " stroke="#000000" stroke-width="1" stroke-opacity="1" stroke-miterlimit="4"/></g></g></g></g><g mask="url(#5add2d8a51)"><g transform="matrix(1, 0, 0, 1, 0, 293)"><g clip-path="url(#0e42f7bd96)"><g clip-path="url(#61caa8506d)"><path stroke-linecap="butt" transform="matrix(0.749999, 0.00138889, -0.00138889, 0.749999, -0.374301, 0.729419)" fill="none" stroke-linejoin="miter" d="M -0.00000303213 0.5014 L 1080.001952 0.5014 " stroke="#000000" stroke-width="1" stroke-opacity="1" stroke-miterlimit="4"/></g></g></g></g><g mask="url(#d78b1ad262)"><g transform="matrix(1, 0, 0, 1, 0, 146)"><g clip-path="url(#29ca3d7c6c)"><g clip-path="url(#6878f032ef)"><path stroke-linecap="butt" transform="matrix(0.749999, 0.00138889, -0.00138889, 0.749999, -0.374301, 0.865716)" fill="none" stroke-linejoin="miter" d="M -0.00000198942 0.501963 L 1080.001953 0.501963 " stroke="#000000" stroke-width="1" stroke-opacity="1" stroke-miterlimit="4"/></g></g></g></g><g mask="url(#d17e609675)"><g transform="matrix(1, 0, 0, 1, 0, 73)"><g clip-path="url(#605721db40)"><g clip-path="url(#21136d6bc5)"><path stroke-linecap="butt" transform="matrix(0.749999, 0.00138889, -0.00138889, 0.749999, -0.374301, 0.433923)" fill="none" stroke-linejoin="miter" d="M -0.00000643527 0.499563 L 1080.001949 0.499562 " stroke="#000000" stroke-width="1" stroke-opacity="1" stroke-miterlimit="4"/></g></g></g></g><g mask="url(#ac5aabe020)"><g transform="matrix(1, 0, 0, 1, 0, 366)"><g clip-path="url(#11805e883d)"><g clip-path="url(#aea048f42c)"><path stroke-linecap="butt" transform="matrix(0.749999, 0.00138889, -0.00138889, 0.749999, -0.374301, 1.161212)" fill="none" stroke-linejoin="miter" d="M -0.00000823134 0.498593 L 1080.001947 0.498593 " stroke="#000000" stroke-width="1" stroke-opacity="1" stroke-miterlimit="4"/></g></g></g></g><g mask="url(#d8ac8c27b1)"><g transform="matrix(1, 0, 0, 1, 0, 220)"><g clip-path="url(#e011ea16ad)"><g clip-path="url(#4d03f74a0e)"><path stroke-linecap="butt" transform="matrix(0.749999, 0.00138889, -0.00138889, 0.749999, -0.374301, 0.297626)" fill="none" stroke-linejoin="miter" d="M -0.00000747798 0.498999 L 1080.001948 0.498999 " stroke="#000000" stroke-width="1" stroke-opacity="1" stroke-miterlimit="4"/></g></g></g></g><g mask="url(#5b066c6cd4)"><g transform="matrix(1, 0, 0, 1, 0, 0.000000000000039746)"><g clip-path="url(#be73f2f575)"><g clip-path="url(#4db426a0ec)"><path stroke-linecap="butt" transform="matrix(0.749999, 0.00138889, -0.00138889, 0.749999, -0.374301, 0.00212937)" fill="none" stroke-linejoin="miter" d="M -0.00000123606 0.50237 L 1080.001954 0.50237 " stroke="#000000" stroke-width="1" stroke-opacity="1" stroke-miterlimit="4"/></g></g></g></g><g mask="url(#bf0d30abc8)"><g transform="matrix(1, 0, 0, 1, 0, 0.000000000000039746)"><g clip-path="url(#d3c22d58b7)"><g clip-path="url(#f7422361c0)"><path stroke-linecap="butt" transform="matrix(-0.00138889, 0.749999, -0.749999, -0.00138889, 1.874307, 0.00347703)" fill="none" stroke-linejoin="miter" d="M 0.0014965 0.499074 L 1080.003452 0.499076 " stroke="#000000" stroke-width="1" stroke-opacity="1" stroke-miterlimit="4"/></g></g></g></g><g mask="url(#064304f41c)"><g transform="matrix(1, 0, 0, 1, 293, 0.000000000000039746)"><g clip-path="url(#2024053e93)"><g clip-path="url(#f658c302fc)"><path stroke-linecap="butt" transform="matrix(-0.00138889, 0.749999, -0.749999, -0.00138889, 2.601561, 0.00347703)" fill="none" stroke-linejoin="miter" d="M 0.00149821 0.499996 L 1080.003453 0.499997 " stroke="#000000" stroke-width="1" stroke-opacity="1" stroke-miterlimit="4"/></g></g></g></g><g mask="url(#9a13930685)"><g transform="matrix(1, 0, 0, 1, 72, 0.000000000000039746)"><g clip-path="url(#c91d2d4ba4)"><g clip-path="url(#8fde649427)"><path stroke-linecap="butt" transform="matrix(-0.00138889, 0.749999, -0.749999, -0.00138889, 3.306115, 0.00347703)" fill="none" stroke-linejoin="miter" d="M 0.00150174 0.501902 L 1080.003457 0.501903 " stroke="#000000" stroke-width="1" stroke-opacity="1" stroke-miterlimit="4"/></g></g></g></g><g mask="url(#dd63475153)"><g transform="matrix(1, 0, 0, 1, 146, 0.000000000000039746)"><g clip-path="url(#30fde19994)"><g clip-path="url(#ad4e75b64c)"><path stroke-linecap="butt" transform="matrix(-0.00138889, 0.749999, -0.749999, -0.00138889, 2.737931, 0.00347703)" fill="none" stroke-linejoin="miter" d="M 0.00149735 0.499531 L 1080.003452 0.499532 " stroke="#000000" stroke-width="1" stroke-opacity="1" stroke-miterlimit="4"/></g></g></g></g><g mask="url(#46bf65a7b0)"><g transform="matrix(1, 0, 0, 1, 219, 0.000000000000039746)"><g clip-path="url(#199e0ab7a2)"><g clip-path="url(#3415d31fe9)"><path stroke-linecap="butt" transform="matrix(-0.00138889, 0.749999, -0.749999, -0.00138889, 3.169753, 0.00347703)" fill="none" stroke-linejoin="miter" d="M 0.00150262 0.502377 L 1080.003458 0.502378 " stroke="#000000" stroke-width="1" stroke-opacity="1" stroke-miterlimit="4"/></g></g></g></g><g mask="url(#75d11497ae)"><g transform="matrix(1, 0, 0, 1, 366, 0.000000000000039746)"><g clip-path="url(#015f75f165)"><g clip-path="url(#82de12078d)"><path stroke-linecap="butt" transform="matrix(-0.00138889, 0.749999, -0.749999, -0.00138889, 3.033383, 0.00347703)" fill="none" stroke-linejoin="miter" d="M 0.00149384 0.497634 L 1080.003449 0.497636 " stroke="#000000" stroke-width="1" stroke-opacity="1" stroke-miterlimit="4"/></g></g></g></g><g mask="url(#a4cc73244f)"><g transform="matrix(1, 0, 0, 1, 513, 0.000000000000039746)"><g clip-path="url(#3d0e60a875)"><g clip-path="url(#288ac0138a)"><path stroke-linecap="butt" transform="matrix(-0.00138889, 0.749999, -0.749999, -0.00138889, 2.897028, 0.00347703)" fill="none" stroke-linejoin="miter" d="M 0.00149474 0.498119 L 1080.00345 0.49812 " stroke="#000000" stroke-width="1" stroke-opacity="1" stroke-miterlimit="4"/></g></g></g></g><g mask="url(#753e50d248)"><g transform="matrix(1, 0, 0, 1, 660, 0.000000000000039746)"><g clip-path="url(#1010e39faf)"><g clip-path="url(#7eff542844)"><path stroke-linecap="butt" transform="matrix(-0.00138889, 0.749999, -0.749999, -0.00138889, 2.760673, 0.00347703)" fill="none" stroke-linejoin="miter" d="M 0.00149563 0.498604 L 1080.003451 0.498605 " stroke="#000000" stroke-width="1" stroke-opacity="1" stroke-miterlimit="4"/></g></g></g></g><g mask="url(#6e6f6d364a)"><g transform="matrix(1, 0, 0, 1, 733, 0.000000000000039746)"><g clip-path="url(#9dfaf2aee8)"><g clip-path="url(#d4e1b709c7)"><path stroke-linecap="butt" transform="matrix(-0.00138889, 0.749999, -0.749999, -0.00138889, 3.192466, 0.00347703)" fill="none" stroke-linejoin="miter" d="M 0.00150083 0.501412 L 1080.003456 0.501413 " stroke="#000000" stroke-width="1" stroke-opacity="1" stroke-miterlimit="4"/></g></g></g></g><g mask="url(#e50bc2a1f2)"><g transform="matrix(1, 0, 0, 1, 440, 0.000000000000039746)"><g clip-path="url(#e22e42fb4c)"><g clip-path="url(#b3707cdd8b)"><path stroke-linecap="butt" transform="matrix(-0.00138889, 0.749999, -0.749999, -0.00138889, 2.465177, 0.00347703)" fill="none" stroke-linejoin="miter" d="M 0.00149904 0.500442 L 1080.003454 0.500443 " stroke="#000000" stroke-width="1" stroke-opacity="1" stroke-miterlimit="4"/></g></g></g></g><g mask="url(#995395ec47)"><g transform="matrix(1, 0, 0, 1, 587, 0.000000000000039746)"><g clip-path="url(#f212f5b816)"><g clip-path="url(#a3aeac8ccc)"><path stroke-linecap="butt" transform="matrix(-0.00138889, 0.749999, -0.749999, -0.00138889, 2.328821, 0.00347703)" fill="none" stroke-linejoin="miter" d="M 0.00149993 0.500927 L 1080.003455 0.500928 " stroke="#000000" stroke-width="1" stroke-opacity="1" stroke-miterlimit="4"/></g></g></g></g><g mask="url(#0512644cb2)"><g transform="matrix(1, 0, 0, 1, 807, 0.000000000000039746)"><g clip-path="url(#9887bbe77c)"><g clip-path="url(#4f2650b0ca)"><path stroke-linecap="butt" transform="matrix(-0.00138889, 0.749999, -0.749999, -0.00138889, 2.62426, 0.00347703)" fill="none" stroke-linejoin="miter" d="M 0.00149639 0.499011 L 1080.003452 0.499012 " stroke="#000000" stroke-width="1" stroke-opacity="1" stroke-miterlimit="4"/></g></g></g></g></svg>