<svg xmlns="http://www.w3.org/2000/svg" xmlns:xlink="http://www.w3.org/1999/xlink" width="1080" zoomAndPan="magnify" viewBox="0 0 810 809.999993" height="1080" preserveAspectRatio="xMidYMid meet" version="1.0"><defs><filter x="0%" y="0%" width="100%" height="100%" id="fb529d3c45"><feColorMatrix values="0 0 0 0 1 0 0 0 0 1 0 0 0 0 1 0 0 0 1 0" color-interpolation-filters="sRGB"/></filter><mask id="6886f2cbbd"><g filter="url(#fb529d3c45)"><rect x="-81" width="972" fill="#000000" y="-80.999999" height="971.999992" fill-opacity="0.05"/></g></mask><clipPath id="691e729857"><path d="M 0 251 L 551 251 L 551 810 L 0 810 Z M 0 251 " clip-rule="nonzero"/></clipPath><clipPath id="95022aedda"><path d="M 0 343 L 459 343 L 459 810 L 0 810 Z M 0 343 " clip-rule="nonzero"/></clipPath><clipPath id="fd6481037f"><path d="M 0 190 L 612 190 L 612 810 L 0 810 Z M 0 190 " clip-rule="nonzero"/></clipPath><clipPath id="38243ec0ac"><path d="M 0 313 L 490 313 L 490 810 L 0 810 Z M 0 313 " clip-rule="nonzero"/></clipPath><clipPath id="69b00c5f70"><path d="M 0 129 L 673 129 L 673 810 L 0 810 Z M 0 129 " clip-rule="nonzero"/></clipPath><clipPath id="2dd930ab31"><path d="M 0 282 L 520 282 L 520 810 L 0 810 Z M 0 282 " clip-rule="nonzero"/></clipPath><clipPath id="e7ee8a40b6"><path d="M 0 67 L 735 67 L 735 810 L 0 810 Z M 0 67 " clip-rule="nonzero"/></clipPath><clipPath id="2c1f064143"><path d="M 0 221 L 581 221 L 581 810 L 0 810 Z M 0 221 " clip-rule="nonzero"/></clipPath><clipPath id="b5d1ccf3f1"><path d="M 0 6 L 796 6 L 796 810 L 0 810 Z M 0 6 " clip-rule="nonzero"/></clipPath><clipPath id="3da7b2bf1e"><path d="M 0 159 L 643 159 L 643 810 L 0 810 Z M 0 159 " clip-rule="nonzero"/></clipPath><clipPath id="22d302ccb7"><path d="M 0 0 L 810 0 L 810 810 L 0 810 Z M 0 0 " clip-rule="nonzero"/></clipPath><clipPath id="32f13d52f9"><path d="M 0 98 L 704 98 L 704 810 L 0 810 Z M 0 98 " clip-rule="nonzero"/></clipPath><clipPath id="b39e0afcfd"><path d="M 48 0 L 810 0 L 810 757 L 48 757 Z M 48 0 " clip-rule="nonzero"/></clipPath><clipPath id="149828eb3a"><path d="M 0 37 L 765 37 L 765 810 L 0 810 Z M 0 37 " clip-rule="nonzero"/></clipPath><clipPath id="11681073d3"><path d="M 109 0 L 810 0 L 810 696 L 109 696 Z M 109 0 " clip-rule="nonzero"/></clipPath><clipPath id="64278be5ee"><path d="M 0 0 L 810 0 L 810 810 L 0 810 Z M 0 0 " clip-rule="nonzero"/></clipPath><clipPath id="79cfac8152"><path d="M 171 0 L 810 0 L 810 634 L 171 634 Z M 171 0 " clip-rule="nonzero"/></clipPath><clipPath id="bb577b4689"><path d="M 17 0 L 810 0 L 810 788 L 17 788 Z M 17 0 " clip-rule="nonzero"/></clipPath><clipPath id="ef8e442c69"><path d="M 232 0 L 810 0 L 810 573 L 232 573 Z M 232 0 " clip-rule="nonzero"/></clipPath><clipPath id="5a9ed1747b"><path d="M 79 0 L 810 0 L 810 726 L 79 726 Z M 79 0 " clip-rule="nonzero"/></clipPath><clipPath id="6f8b041567"><path d="M 293 0 L 810 0 L 810 512 L 293 512 Z M 293 0 " clip-rule="nonzero"/></clipPath><clipPath id="e19b728f65"><path d="M 140 0 L 810 0 L 810 665 L 140 665 Z M 140 0 " clip-rule="nonzero"/></clipPath><clipPath id="9e0cfab522"><path d="M 324 0 L 810 0 L 810 481 L 324 481 Z M 324 0 " clip-rule="nonzero"/></clipPath><clipPath id="a1a25348d3"><path d="M 201 0 L 810 0 L 810 604 L 201 604 Z M 201 0 " clip-rule="nonzero"/></clipPath><clipPath id="b29be8b703"><path d="M 354 0 L 810 0 L 810 451 L 354 451 Z M 354 0 " clip-rule="nonzero"/></clipPath><clipPath id="ea3e317089"><path d="M 263 0 L 810 0 L 810 543 L 263 543 Z M 263 0 " clip-rule="nonzero"/></clipPath><clipPath id="7fb98ed80d"><rect x="0" width="810" y="0" height="810"/></clipPath></defs><g mask="url(#6886f2cbbd)"><g transform="matrix(1, 0, 0, 1, 0, 0.000000000000039746)"><g clip-path="url(#7fb98ed80d)"><g clip-path="url(#691e729857)"><path stroke-linecap="butt" transform="matrix(0.529375, 0.531283, -0.531283, 0.529375, -309.915567, 259.725857)" fill="none" stroke-linejoin="miter" d="M 0.000194716 0.997301 L 1609.875115 0.999804 " stroke="#000000" stroke-width="2" stroke-opacity="1" stroke-miterlimit="4"/></g><g clip-path="url(#95022aedda)"><path stroke-linecap="butt" transform="matrix(0.529375, 0.531283, -0.531283, 0.529375, -401.805151, 351.615442)" fill="none" stroke-linejoin="miter" d="M 0.000198243 0.999262 L 1609.871429 0.998089 " stroke="#000000" stroke-width="2" stroke-opacity="1" stroke-miterlimit="4"/></g><g clip-path="url(#fd6481037f)"><path stroke-linecap="butt" transform="matrix(0.529375, 0.531283, -0.531283, 0.529375, -248.655862, 198.466138)" fill="none" stroke-linejoin="miter" d="M 0.000214733 1.000881 L 1609.871446 0.999708 " stroke="#000000" stroke-width="2" stroke-opacity="1" stroke-miterlimit="4"/></g><g clip-path="url(#38243ec0ac)"><path stroke-linecap="butt" transform="matrix(0.529375, 0.531283, -0.531283, 0.529375, -371.175299, 320.985589)" fill="none" stroke-linejoin="miter" d="M 0.000201451 1.001045 L 1609.871432 0.999872 " stroke="#000000" stroke-width="2" stroke-opacity="1" stroke-miterlimit="4"/></g><g clip-path="url(#69b00c5f70)"><path stroke-linecap="butt" transform="matrix(0.529375, 0.531283, -0.531283, 0.529375, -187.396129, 137.206419)" fill="none" stroke-linejoin="miter" d="M 0.000194396 0.997123 L 1609.875115 0.999626 " stroke="#000000" stroke-width="2" stroke-opacity="1" stroke-miterlimit="4"/></g><g clip-path="url(#2dd930ab31)"><path stroke-linecap="butt" transform="matrix(0.529375, 0.531283, -0.531283, 0.529375, -340.545447, 290.355709)" fill="none" stroke-linejoin="miter" d="M 0.000231861 1.002856 L 1609.871463 1.001683 " stroke="#000000" stroke-width="2" stroke-opacity="1" stroke-miterlimit="4"/></g><g clip-path="url(#e7ee8a40b6)"><path stroke-linecap="butt" transform="matrix(0.529375, 0.531283, -0.531283, 0.529375, -126.136397, 75.946687)" fill="none" stroke-linejoin="miter" d="M 0.00020091 1.000744 L 1609.871432 0.999571 " stroke="#000000" stroke-width="2" stroke-opacity="1" stroke-miterlimit="4"/></g><g clip-path="url(#2c1f064143)"><path stroke-linecap="butt" transform="matrix(0.529375, 0.531283, -0.531283, 0.529375, -279.285714, 229.096004)" fill="none" stroke-linejoin="miter" d="M 0.000197924 0.999084 L 1609.871429 0.997911 " stroke="#000000" stroke-width="2" stroke-opacity="1" stroke-miterlimit="4"/></g><g clip-path="url(#b5d1ccf3f1)"><path stroke-linecap="butt" transform="matrix(0.529375, 0.531283, -0.531283, 0.529375, -64.876664, 14.686953)" fill="none" stroke-linejoin="miter" d="M 0.000194854 0.997 L 1609.875115 0.999503 " stroke="#000000" stroke-width="2" stroke-opacity="1" stroke-miterlimit="4"/></g><g clip-path="url(#3da7b2bf1e)"><path stroke-linecap="butt" transform="matrix(0.529375, 0.531283, -0.531283, 0.529375, -218.025996, 167.836286)" fill="none" stroke-linejoin="miter" d="M 0.000204389 1.002678 L 1609.871435 1.001505 " stroke="#000000" stroke-width="2" stroke-opacity="1" stroke-miterlimit="4"/></g><g clip-path="url(#22d302ccb7)"><path stroke-linecap="butt" transform="matrix(0.529375, 0.531283, -0.531283, 0.529375, -3.61693, -46.572779)" fill="none" stroke-linejoin="miter" d="M 0.00019992 1.000622 L 1609.871431 0.999448 " stroke="#000000" stroke-width="2" stroke-opacity="1" stroke-miterlimit="4"/></g><g clip-path="url(#32f13d52f9)"><path stroke-linecap="butt" transform="matrix(0.529375, 0.531283, -0.531283, 0.529375, -156.766249, 106.576539)" fill="none" stroke-linejoin="miter" d="M 0.000197702 0.998961 L 1609.871429 0.997788 " stroke="#000000" stroke-width="2" stroke-opacity="1" stroke-miterlimit="4"/></g><g clip-path="url(#b39e0afcfd)"><path stroke-linecap="butt" transform="matrix(0.529375, 0.531283, -0.531283, 0.529375, 57.642802, -107.832515)" fill="none" stroke-linejoin="miter" d="M 0.000196219 0.996879 L 1609.875117 0.999382 " stroke="#000000" stroke-width="2" stroke-opacity="1" stroke-miterlimit="4"/></g><g clip-path="url(#149828eb3a)"><path stroke-linecap="butt" transform="matrix(0.529375, 0.531283, -0.531283, 0.529375, -95.506516, 45.316806)" fill="none" stroke-linejoin="miter" d="M 0.000204216 1.002582 L 1609.871435 1.001409 " stroke="#000000" stroke-width="2" stroke-opacity="1" stroke-miterlimit="4"/></g><g clip-path="url(#11681073d3)"><path stroke-linecap="butt" transform="matrix(0.529375, 0.531283, -0.531283, 0.529375, 118.902506, -169.092219)" fill="none" stroke-linejoin="miter" d="M 0.000202635 1.000445 L 1609.871433 0.999272 " stroke="#000000" stroke-width="2" stroke-opacity="1" stroke-miterlimit="4"/></g><g clip-path="url(#64278be5ee)"><path stroke-linecap="butt" transform="matrix(0.529375, 0.531283, -0.531283, 0.529375, -34.246811, -15.942899)" fill="none" stroke-linejoin="miter" d="M 0.000197611 0.998784 L 1609.871428 0.997611 " stroke="#000000" stroke-width="2" stroke-opacity="1" stroke-miterlimit="4"/></g><g clip-path="url(#79cfac8152)"><path stroke-linecap="butt" transform="matrix(0.529375, 0.531283, -0.531283, 0.529375, 180.16221, -230.35192)" fill="none" stroke-linejoin="miter" d="M 0.000193535 0.996644 L 1609.875114 0.999147 " stroke="#000000" stroke-width="2" stroke-opacity="1" stroke-miterlimit="4"/></g><g clip-path="url(#bb577b4689)"><path stroke-linecap="butt" transform="matrix(0.529375, 0.531283, -0.531283, 0.529375, 27.012922, -77.202631)" fill="none" stroke-linejoin="miter" d="M 0.000203219 1.002405 L 1609.871434 1.001232 " stroke="#000000" stroke-width="2" stroke-opacity="1" stroke-miterlimit="4"/></g><g clip-path="url(#ef8e442c69)"><path stroke-linecap="butt" transform="matrix(0.529375, 0.531283, -0.531283, 0.529375, 241.421975, -291.611685)" fill="none" stroke-linejoin="miter" d="M 0.000200155 1.000324 L 1609.871431 0.999151 " stroke="#000000" stroke-width="2" stroke-opacity="1" stroke-miterlimit="4"/></g><g clip-path="url(#5a9ed1747b)"><path stroke-linecap="butt" transform="matrix(0.529375, 0.531283, -0.531283, 0.529375, 88.272625, -138.462335)" fill="none" stroke-linejoin="miter" d="M 0.000197063 0.998605 L 1609.871428 0.997432 " stroke="#000000" stroke-width="2" stroke-opacity="1" stroke-miterlimit="4"/></g><g clip-path="url(#6f8b041567)"><path stroke-linecap="butt" transform="matrix(0.529375, 0.531283, -0.531283, 0.529375, 302.681679, -352.871389)" fill="none" stroke-linejoin="miter" d="M 0.000193321 0.996526 L 1609.871437 1.002718 " stroke="#000000" stroke-width="2" stroke-opacity="1" stroke-miterlimit="4"/></g><g clip-path="url(#e19b728f65)"><path stroke-linecap="butt" transform="matrix(0.529375, 0.531283, -0.531283, 0.529375, 149.53239, -199.7221)" fill="none" stroke-linejoin="miter" d="M 0.000203682 1.002285 L 1609.871435 1.001112 " stroke="#000000" stroke-width="2" stroke-opacity="1" stroke-miterlimit="4"/></g><g clip-path="url(#9e0cfab522)"><path stroke-linecap="butt" transform="matrix(0.529375, 0.531283, -0.531283, 0.529375, 333.31156, -383.50127)" fill="none" stroke-linejoin="miter" d="M 0.000196627 0.998363 L 1609.875117 1.000866 " stroke="#000000" stroke-width="2" stroke-opacity="1" stroke-miterlimit="4"/></g><g clip-path="url(#a1a25348d3)"><path stroke-linecap="butt" transform="matrix(0.529375, 0.531283, -0.531283, 0.529375, 210.792094, -260.981804)" fill="none" stroke-linejoin="miter" d="M 0.000196849 0.998487 L 1609.871428 0.997313 " stroke="#000000" stroke-width="2" stroke-opacity="1" stroke-miterlimit="4"/></g><g clip-path="url(#b29be8b703)"><path stroke-linecap="butt" transform="matrix(0.529375, 0.531283, -0.531283, 0.529375, 363.94144, -414.131143)" fill="none" stroke-linejoin="miter" d="M 0.000193132 1.000194 L 1609.871424 0.999021 " stroke="#000000" stroke-width="2" stroke-opacity="1" stroke-miterlimit="4"/></g><g clip-path="url(#ea3e317089)"><path stroke-linecap="butt" transform="matrix(0.529375, 0.531283, -0.531283, 0.529375, 272.051795, -322.241508)" fill="none" stroke-linejoin="miter" d="M 0.000205524 1.002051 L 1609.871436 1.000878 " stroke="#000000" stroke-width="2" stroke-opacity="1" stroke-miterlimit="4"/></g></g></g></g></svg>