<svg xmlns="http://www.w3.org/2000/svg" xmlns:xlink="http://www.w3.org/1999/xlink" width="1080" zoomAndPan="magnify" viewBox="0 0 810 809.999993" height="1080" preserveAspectRatio="xMidYMid meet" version="1.0"><defs><filter x="0%" y="0%" width="100%" height="100%" id="8fd51e7cf5"><feColorMatrix values="0 0 0 0 1 0 0 0 0 1 0 0 0 0 1 0 0 0 1 0" color-interpolation-filters="sRGB"/></filter><mask id="800d73e5ce"><g filter="url(#8fd51e7cf5)"><rect x="-81" width="972" fill="#000000" y="-80.999999" height="971.999992" fill-opacity="0.05"/></g></mask><clipPath id="3df2e59e36"><path d="M 0 0.441406 L 542.878906 0.441406 L 542.878906 551 L 0 551 Z M 0 0.441406 " clip-rule="nonzero"/></clipPath><clipPath id="94a86b439e"><rect x="0" width="543" y="0" height="551"/></clipPath><mask id="8fa4dd6836"><g filter="url(#8fd51e7cf5)"><rect x="-81" width="972" fill="#000000" y="-80.999999" height="971.999992" fill-opacity="0.05"/></g></mask><clipPath id="01809224f8"><path d="M 0 0.121094 L 450.960938 0.121094 L 450.960938 459 L 0 459 Z M 0 0.121094 " clip-rule="nonzero"/></clipPath><clipPath id="b890b1e9c7"><rect x="0" width="451" y="0" height="459"/></clipPath><mask id="987519afeb"><g filter="url(#8fd51e7cf5)"><rect x="-81" width="972" fill="#000000" y="-80.999999" height="971.999992" fill-opacity="0.05"/></g></mask><clipPath id="0f351af161"><path d="M 0 0 L 604.078125 0 L 604.078125 612 L 0 612 Z M 0 0 " clip-rule="nonzero"/></clipPath><clipPath id="8bd5d3d691"><rect x="0" width="605" y="0" height="612"/></clipPath><mask id="8a49990ee3"><g filter="url(#8fd51e7cf5)"><rect x="-81" width="972" fill="#000000" y="-80.999999" height="971.999992" fill-opacity="0.05"/></g></mask><clipPath id="3e0bfbb3ad"><path d="M 0 0.640625 L 481.441406 0.640625 L 481.441406 490 L 0 490 Z M 0 0.640625 " clip-rule="nonzero"/></clipPath><clipPath id="df4879ef0f"><rect x="0" width="482" y="0" height="490"/></clipPath><mask id="409797a797"><g filter="url(#8fd51e7cf5)"><rect x="-81" width="972" fill="#000000" y="-80.999999" height="971.999992" fill-opacity="0.05"/></g></mask><clipPath id="d1bad0ef04"><path d="M 0 0.800781 L 665.28125 0.800781 L 665.28125 674 L 0 674 Z M 0 0.800781 " clip-rule="nonzero"/></clipPath><clipPath id="a4467f7758"><rect x="0" width="666" y="0" height="674"/></clipPath><mask id="e313a2c14a"><g filter="url(#8fd51e7cf5)"><rect x="-81" width="972" fill="#000000" y="-80.999999" height="971.999992" fill-opacity="0.05"/></g></mask><clipPath id="664a564b2c"><path d="M 0 0.921875 L 512.160156 0.921875 L 512.160156 521 L 0 521 Z M 0 0.921875 " clip-rule="nonzero"/></clipPath><clipPath id="31dade0084"><rect x="0" width="513" y="0" height="521"/></clipPath><mask id="b88e6876d9"><g filter="url(#8fd51e7cf5)"><rect x="-81" width="972" fill="#000000" y="-80.999999" height="971.999992" fill-opacity="0.05"/></g></mask><clipPath id="5badeabdf2"><path d="M 0 0.601562 L 726.480469 0.601562 L 726.480469 735 L 0 735 Z M 0 0.601562 " clip-rule="nonzero"/></clipPath><clipPath id="fedfd64f64"><rect x="0" width="727" y="0" height="735"/></clipPath><mask id="928fe07f84"><g filter="url(#8fd51e7cf5)"><rect x="-81" width="972" fill="#000000" y="-80.999999" height="971.999992" fill-opacity="0.05"/></g></mask><clipPath id="2922773df8"><path d="M 0 0.71875 L 573.359375 0.71875 L 573.359375 582 L 0 582 Z M 0 0.71875 " clip-rule="nonzero"/></clipPath><clipPath id="24cadcc586"><rect x="0" width="574" y="0" height="582"/></clipPath><mask id="5488475da4"><g filter="url(#8fd51e7cf5)"><rect x="-81" width="972" fill="#000000" y="-80.999999" height="971.999992" fill-opacity="0.05"/></g></mask><clipPath id="a4fe172a58"><path d="M 0 0.398438 L 787.921875 0.398438 L 787.921875 796 L 0 796 Z M 0 0.398438 " clip-rule="nonzero"/></clipPath><clipPath id="f0c1db27fc"><rect x="0" width="788" y="0" height="796"/></clipPath><mask id="2d23f9ed8d"><g filter="url(#8fd51e7cf5)"><rect x="-81" width="972" fill="#000000" y="-80.999999" height="971.999992" fill-opacity="0.05"/></g></mask><clipPath id="2b1084a148"><path d="M 0 0.519531 L 634.558594 0.519531 L 634.558594 643 L 0 643 Z M 0 0.519531 " clip-rule="nonzero"/></clipPath><clipPath id="2612c1a5be"><rect x="0" width="635" y="0" height="643"/></clipPath><mask id="71fa387d58"><g filter="url(#8fd51e7cf5)"><rect x="-81" width="972" fill="#000000" y="-80.999999" height="971.999992" fill-opacity="0.05"/></g></mask><clipPath id="836b0d6791"><path d="M 0 0 L 810 0 L 810 810 L 0 810 Z M 0 0 " clip-rule="nonzero"/></clipPath><clipPath id="a9e69af76c"><rect x="0" width="810" y="0" height="810"/></clipPath><mask id="fbe7ff3352"><g filter="url(#8fd51e7cf5)"><rect x="-81" width="972" fill="#000000" y="-80.999999" height="971.999992" fill-opacity="0.05"/></g></mask><clipPath id="e36d340a90"><path d="M 0 0.078125 L 696 0.078125 L 696 704 L 0 704 Z M 0 0.078125 " clip-rule="nonzero"/></clipPath><clipPath id="d7d9ba7c74"><rect x="0" width="696" y="0" height="704"/></clipPath><mask id="e19a651255"><g filter="url(#8fd51e7cf5)"><rect x="-81" width="972" fill="#000000" y="-80.999999" height="971.999992" fill-opacity="0.05"/></g></mask><clipPath id="fb2e7b1263"><path d="M 0.160156 0 L 754 0 L 754 749.039062 L 0.160156 749.039062 Z M 0.160156 0 " clip-rule="nonzero"/></clipPath><clipPath id="31e00dca05"><rect x="0" width="754" y="0" height="750"/></clipPath><mask id="33757d4417"><g filter="url(#8fd51e7cf5)"><rect x="-81" width="972" fill="#000000" y="-80.999999" height="971.999992" fill-opacity="0.05"/></g></mask><clipPath id="c445a04e0a"><path d="M 0 0.878906 L 757.199219 0.878906 L 757.199219 766 L 0 766 Z M 0 0.878906 " clip-rule="nonzero"/></clipPath><clipPath id="ea32256604"><rect x="0" width="758" y="0" height="766"/></clipPath><mask id="07b85dfbd5"><g filter="url(#8fd51e7cf5)"><rect x="-81" width="972" fill="#000000" y="-80.999999" height="971.999992" fill-opacity="0.05"/></g></mask><clipPath id="a834eaa640"><path d="M 0.359375 0 L 693 0 L 693 687.601562 L 0.359375 687.601562 Z M 0.359375 0 " clip-rule="nonzero"/></clipPath><clipPath id="3350ee31fa"><rect x="0" width="693" y="0" height="688"/></clipPath><mask id="c48d271472"><g filter="url(#8fd51e7cf5)"><rect x="-81" width="972" fill="#000000" y="-80.999999" height="971.999992" fill-opacity="0.05"/></g></mask><clipPath id="cbb78f2af8"><path d="M 0 0 L 810 0 L 810 810 L 0 810 Z M 0 0 " clip-rule="nonzero"/></clipPath><clipPath id="17492ec2d9"><rect x="0" width="810" y="0" height="810"/></clipPath><mask id="5416968c25"><g filter="url(#8fd51e7cf5)"><rect x="-81" width="972" fill="#000000" y="-80.999999" height="971.999992" fill-opacity="0.05"/></g></mask><clipPath id="701caa381a"><path d="M 0.800781 0 L 632 0 L 632 626.398438 L 0.800781 626.398438 Z M 0.800781 0 " clip-rule="nonzero"/></clipPath><clipPath id="f14bb553e0"><rect x="0" width="632" y="0" height="627"/></clipPath><mask id="d11cde42b6"><g filter="url(#8fd51e7cf5)"><rect x="-81" width="972" fill="#000000" y="-80.999999" height="971.999992" fill-opacity="0.05"/></g></mask><clipPath id="010da3dccd"><path d="M 0.679688 0 L 785 0 L 785 779.519531 L 0.679688 779.519531 Z M 0.679688 0 " clip-rule="nonzero"/></clipPath><clipPath id="4ce2c75319"><rect x="0" width="785" y="0" height="780"/></clipPath><mask id="a72589ad49"><g filter="url(#8fd51e7cf5)"><rect x="-81" width="972" fill="#000000" y="-80.999999" height="971.999992" fill-opacity="0.05"/></g></mask><clipPath id="854717c9b2"><path d="M 0 0 L 570 0 L 570 565.199219 L 0 565.199219 Z M 0 0 " clip-rule="nonzero"/></clipPath><clipPath id="647197d6d2"><rect x="0" width="570" y="0" height="566"/></clipPath><mask id="17b0ae7e92"><g filter="url(#8fd51e7cf5)"><rect x="-81" width="972" fill="#000000" y="-80.999999" height="971.999992" fill-opacity="0.05"/></g></mask><clipPath id="9963a35033"><path d="M 0.878906 0 L 724 0 L 724 718.320312 L 0.878906 718.320312 Z M 0.878906 0 " clip-rule="nonzero"/></clipPath><clipPath id="c69c97c76d"><rect x="0" width="724" y="0" height="719"/></clipPath><mask id="b0c203368b"><g filter="url(#8fd51e7cf5)"><rect x="-81" width="972" fill="#000000" y="-80.999999" height="971.999992" fill-opacity="0.05"/></g></mask><clipPath id="839bd8546a"><path d="M 0.199219 0 L 509 0 L 509 504 L 0.199219 504 Z M 0.199219 0 " clip-rule="nonzero"/></clipPath><clipPath id="638c9474a4"><rect x="0" width="509" y="0" height="504"/></clipPath><mask id="873f435280"><g filter="url(#8fd51e7cf5)"><rect x="-81" width="972" fill="#000000" y="-80.999999" height="971.999992" fill-opacity="0.05"/></g></mask><clipPath id="cd90dca19b"><path d="M 0.078125 0 L 662 0 L 662 657.121094 L 0.078125 657.121094 Z M 0.078125 0 " clip-rule="nonzero"/></clipPath><clipPath id="6b826f3201"><rect x="0" width="662" y="0" height="658"/></clipPath><mask id="77c784c63a"><g filter="url(#8fd51e7cf5)"><rect x="-81" width="972" fill="#000000" y="-80.999999" height="971.999992" fill-opacity="0.05"/></g></mask><clipPath id="da6695efc0"><path d="M 0.921875 0 L 479 0 L 479 473.28125 L 0.921875 473.28125 Z M 0.921875 0 " clip-rule="nonzero"/></clipPath><clipPath id="701b5bc9d3"><rect x="0" width="479" y="0" height="474"/></clipPath><mask id="32abbb0aec"><g filter="url(#8fd51e7cf5)"><rect x="-81" width="972" fill="#000000" y="-80.999999" height="971.999992" fill-opacity="0.05"/></g></mask><clipPath id="47d124996e"><path d="M 0.28125 0 L 601 0 L 601 595.921875 L 0.28125 595.921875 Z M 0.28125 0 " clip-rule="nonzero"/></clipPath><clipPath id="b72fd73331"><rect x="0" width="601" y="0" height="596"/></clipPath><mask id="ee38a8a786"><g filter="url(#8fd51e7cf5)"><rect x="-81" width="972" fill="#000000" y="-80.999999" height="971.999992" fill-opacity="0.05"/></g></mask><clipPath id="5e9c189ed7"><path d="M 0.398438 0 L 448 0 L 448 442.800781 L 0.398438 442.800781 Z M 0.398438 0 " clip-rule="nonzero"/></clipPath><clipPath id="358bbfec69"><rect x="0" width="448" y="0" height="443"/></clipPath><mask id="7fb7d7c714"><g filter="url(#8fd51e7cf5)"><rect x="-81" width="972" fill="#000000" y="-80.999999" height="971.999992" fill-opacity="0.05"/></g></mask><clipPath id="20eb2d3ae7"><path d="M 0.71875 0 L 540 0 L 540 534.480469 L 0.71875 534.480469 Z M 0.71875 0 " clip-rule="nonzero"/></clipPath><clipPath id="83eead06f5"><rect x="0" width="540" y="0" height="535"/></clipPath></defs><g mask="url(#800d73e5ce)"><g transform="matrix(1, 0, 0, 1, 0, 259)"><g clip-path="url(#94a86b439e)"><g clip-path="url(#3df2e59e36)"><path stroke-linecap="butt" transform="matrix(0.529375, 0.531283, -0.531283, 0.529375, -310.18164, 0.990788)" fill="none" stroke-linejoin="miter" d="M -0.00330543 0.500352 L 1609.871615 0.502855 " stroke="#000000" stroke-width="1" stroke-opacity="1" stroke-miterlimit="4"/></g></g></g></g><g mask="url(#8fa4dd6836)"><g transform="matrix(1, 0, 0, 1, 0, 351)"><g clip-path="url(#b890b1e9c7)"><g clip-path="url(#01809224f8)"><path stroke-linecap="butt" transform="matrix(0.529375, 0.531283, -0.531283, 0.529375, -402.071256, 0.88008)" fill="none" stroke-linejoin="miter" d="M 0.00068016 0.49887 L 1609.871911 0.497697 " stroke="#000000" stroke-width="1" stroke-opacity="1" stroke-miterlimit="4"/></g></g></g></g><g mask="url(#987519afeb)"><g transform="matrix(1, 0, 0, 1, 0, 198)"><g clip-path="url(#8bd5d3d691)"><g clip-path="url(#0f351af161)"><path stroke-linecap="butt" transform="matrix(0.529375, 0.531283, -0.531283, 0.529375, -248.921936, 0.731026)" fill="none" stroke-linejoin="miter" d="M 0.0004324 0.500285 L 1609.871663 0.499112 " stroke="#000000" stroke-width="1" stroke-opacity="1" stroke-miterlimit="4"/></g></g></g></g><g mask="url(#8a49990ee3)"><g transform="matrix(1, 0, 0, 1, 0, 320)"><g clip-path="url(#df4879ef0f)"><g clip-path="url(#3e0bfbb3ad)"><path stroke-linecap="butt" transform="matrix(0.529375, 0.531283, -0.531283, 0.529375, -371.441404, 1.250551)" fill="none" stroke-linejoin="miter" d="M 0.000378913 0.50035 L 1609.87161 0.499177 " stroke="#000000" stroke-width="1" stroke-opacity="1" stroke-miterlimit="4"/></g></g></g></g><g mask="url(#409797a797)"><g transform="matrix(1, 0, 0, 1, 0, 136)"><g clip-path="url(#a4467f7758)"><g clip-path="url(#d1bad0ef04)"><path stroke-linecap="butt" transform="matrix(0.529375, 0.531283, -0.531283, 0.529375, -187.662203, 1.471263)" fill="none" stroke-linejoin="miter" d="M -0.00322258 0.500258 L 1609.871698 0.502761 " stroke="#000000" stroke-width="1" stroke-opacity="1" stroke-miterlimit="4"/></g></g></g></g><g mask="url(#e313a2c14a)"><g transform="matrix(1, 0, 0, 1, 0, 289)"><g clip-path="url(#31dade0084)"><g clip-path="url(#664a564b2c)"><path stroke-linecap="butt" transform="matrix(0.529375, 0.531283, -0.531283, 0.529375, -340.811523, 1.620552)" fill="none" stroke-linejoin="miter" d="M 0.000493292 0.502299 L 1609.871724 0.501125 " stroke="#000000" stroke-width="1" stroke-opacity="1" stroke-miterlimit="4"/></g></g></g></g><g mask="url(#b88e6876d9)"><g transform="matrix(1, 0, 0, 1, 0, 75)"><g clip-path="url(#fedfd64f64)"><g clip-path="url(#5badeabdf2)"><path stroke-linecap="butt" transform="matrix(0.529375, 0.531283, -0.531283, 0.529375, -126.402485, 1.211501)" fill="none" stroke-linejoin="miter" d="M 0.000501675 0.500204 L 1609.871732 0.49903 " stroke="#000000" stroke-width="1" stroke-opacity="1" stroke-miterlimit="4"/></g></g></g></g><g mask="url(#928fe07f84)"><g transform="matrix(1, 0, 0, 1, 0, 228)"><g clip-path="url(#24cadcc586)"><g clip-path="url(#2922773df8)"><path stroke-linecap="butt" transform="matrix(0.529375, 0.531283, -0.531283, 0.529375, -279.551788, 1.36079)" fill="none" stroke-linejoin="miter" d="M 0.00051227 0.498584 L 1609.871743 0.497411 " stroke="#000000" stroke-width="1" stroke-opacity="1" stroke-miterlimit="4"/></g></g></g></g><g mask="url(#5488475da4)"><g transform="matrix(1, 0, 0, 1, 0, 14)"><g clip-path="url(#f0c1db27fc)"><g clip-path="url(#a4fe172a58)"><path stroke-linecap="butt" transform="matrix(0.529375, 0.531283, -0.531283, 0.529375, -65.142759, 0.951855)" fill="none" stroke-linejoin="miter" d="M -0.0032572 0.500059 L 1609.871663 0.502562 " stroke="#000000" stroke-width="1" stroke-opacity="1" stroke-miterlimit="4"/></g></g></g></g><g mask="url(#2d23f9ed8d)"><g transform="matrix(1, 0, 0, 1, 0, 167)"><g clip-path="url(#2612c1a5be)"><g clip-path="url(#2b1084a148)"><path stroke-linecap="butt" transform="matrix(0.529375, 0.531283, -0.531283, 0.529375, -218.29207, 1.101027)" fill="none" stroke-linejoin="miter" d="M 0.000560331 0.50222 L 1609.871791 0.501046 " stroke="#000000" stroke-width="1" stroke-opacity="1" stroke-miterlimit="4"/></g></g></g></g><g mask="url(#71fa387d58)"><g transform="matrix(1, 0, 0, 1, 0, 0.000000000000039746)"><g clip-path="url(#a9e69af76c)"><g clip-path="url(#836b0d6791)"><path stroke-linecap="butt" transform="matrix(0.529375, 0.531283, -0.531283, 0.529375, -3.883029, -46.307908)" fill="none" stroke-linejoin="miter" d="M 0.000456944 0.500017 L 1609.871688 0.498844 " stroke="#000000" stroke-width="1" stroke-opacity="1" stroke-miterlimit="4"/></g></g></g></g><g mask="url(#fbe7ff3352)"><g transform="matrix(1, 0, 0, 1, 0, 106)"><g clip-path="url(#d7d9ba7c74)"><g clip-path="url(#e36d340a90)"><path stroke-linecap="butt" transform="matrix(0.529375, 0.531283, -0.531283, 0.529375, -157.032351, 0.841265)" fill="none" stroke-linejoin="miter" d="M 0.00059512 0.498489 L 1609.871826 0.497316 " stroke="#000000" stroke-width="1" stroke-opacity="1" stroke-miterlimit="4"/></g></g></g></g><g mask="url(#e19a651255)"><g transform="matrix(1, 0, 0, 1, 56, 0.000000000000039746)"><g clip-path="url(#31e00dca05)"><g clip-path="url(#fb2e7b1263)"><path stroke-linecap="butt" transform="matrix(0.529375, 0.531283, -0.531283, 0.529375, 1.3767, -107.56767)" fill="none" stroke-linejoin="miter" d="M -0.00319481 0.499985 L 1609.871725 0.502488 " stroke="#000000" stroke-width="1" stroke-opacity="1" stroke-miterlimit="4"/></g></g></g></g><g mask="url(#33757d4417)"><g transform="matrix(1, 0, 0, 1, 0, 44)"><g clip-path="url(#ea32256604)"><g clip-path="url(#c445a04e0a)"><path stroke-linecap="butt" transform="matrix(0.529375, 0.531283, -0.531283, 0.529375, -95.772618, 1.581736)" fill="none" stroke-linejoin="miter" d="M 0.000408252 0.501918 L 1609.871639 0.500745 " stroke="#000000" stroke-width="1" stroke-opacity="1" stroke-miterlimit="4"/></g></g></g></g><g mask="url(#07b85dfbd5)"><g transform="matrix(1, 0, 0, 1, 117, 0.000000000000039746)"><g clip-path="url(#3350ee31fa)"><g clip-path="url(#a834eaa640)"><path stroke-linecap="butt" transform="matrix(0.529375, 0.531283, -0.531283, 0.529375, 1.636426, -168.827432)" fill="none" stroke-linejoin="miter" d="M 0.000521718 0.499937 L 1609.871753 0.498764 " stroke="#000000" stroke-width="1" stroke-opacity="1" stroke-miterlimit="4"/></g></g></g></g><g mask="url(#c48d271472)"><g transform="matrix(1, 0, 0, 1, 0, 0.000000000000039746)"><g clip-path="url(#17492ec2d9)"><g clip-path="url(#cbb78f2af8)"><path stroke-linecap="butt" transform="matrix(0.529375, 0.531283, -0.531283, 0.529375, -34.512893, -15.678026)" fill="none" stroke-linejoin="miter" d="M 0.000436423 0.498194 L 1609.871667 0.497021 " stroke="#000000" stroke-width="1" stroke-opacity="1" stroke-miterlimit="4"/></g></g></g></g><g mask="url(#5416968c25)"><g transform="matrix(1, 0, 0, 1, 178, 0.000000000000039746)"><g clip-path="url(#f14bb553e0)"><g clip-path="url(#701caa381a)"><path stroke-linecap="butt" transform="matrix(0.529375, 0.531283, -0.531283, 0.529375, 1.896166, -230.087078)" fill="none" stroke-linejoin="miter" d="M -0.00325004 0.499808 L 1609.87167 0.502311 " stroke="#000000" stroke-width="1" stroke-opacity="1" stroke-miterlimit="4"/></g></g></g></g><g mask="url(#d11cde42b6)"><g transform="matrix(1, 0, 0, 1, 25, 0.000000000000039746)"><g clip-path="url(#4ce2c75319)"><g clip-path="url(#010da3dccd)"><path stroke-linecap="butt" transform="matrix(0.529375, 0.531283, -0.531283, 0.529375, 1.746837, -76.937789)" fill="none" stroke-linejoin="miter" d="M 0.000474502 0.50184 L 1609.871705 0.500667 " stroke="#000000" stroke-width="1" stroke-opacity="1" stroke-miterlimit="4"/></g></g></g></g><g mask="url(#a72589ad49)"><g transform="matrix(1, 0, 0, 1, 240, 0.000000000000039746)"><g clip-path="url(#647197d6d2)"><g clip-path="url(#854717c9b2)"><path stroke-linecap="butt" transform="matrix(0.529375, 0.531283, -0.531283, 0.529375, 1.155885, -291.34684)" fill="none" stroke-linejoin="miter" d="M 0.000473372 0.499753 L 1609.871704 0.49858 " stroke="#000000" stroke-width="1" stroke-opacity="1" stroke-miterlimit="4"/></g></g></g></g><g mask="url(#17b0ae7e92)"><g transform="matrix(1, 0, 0, 1, 86, 0.000000000000039746)"><g clip-path="url(#c69c97c76d)"><g clip-path="url(#9963a35033)"><path stroke-linecap="butt" transform="matrix(0.529375, 0.531283, -0.531283, 0.529375, 2.006566, -138.197551)" fill="none" stroke-linejoin="miter" d="M 0.000498107 0.49812 L 1609.871729 0.496947 " stroke="#000000" stroke-width="1" stroke-opacity="1" stroke-miterlimit="4"/></g></g></g></g><g mask="url(#b0c203368b)"><g transform="matrix(1, 0, 0, 1, 301, 0.000000000000039746)"><g clip-path="url(#638c9474a4)"><g clip-path="url(#839bd8546a)"><path stroke-linecap="butt" transform="matrix(0.529375, 0.531283, -0.531283, 0.529375, 1.415633, -352.606604)" fill="none" stroke-linejoin="miter" d="M -0.00319421 0.499742 L 1609.871726 0.502245 " stroke="#000000" stroke-width="1" stroke-opacity="1" stroke-miterlimit="4"/></g></g></g></g><g mask="url(#873f435280)"><g transform="matrix(1, 0, 0, 1, 148, 0.000000000000039746)"><g clip-path="url(#6b826f3201)"><g clip-path="url(#cd90dca19b)"><path stroke-linecap="butt" transform="matrix(0.529375, 0.531283, -0.531283, 0.529375, 1.266285, -199.457315)" fill="none" stroke-linejoin="miter" d="M 0.000547574 0.501757 L 1609.871778 0.500584 " stroke="#000000" stroke-width="1" stroke-opacity="1" stroke-miterlimit="4"/></g></g></g></g><g mask="url(#77c784c63a)"><g transform="matrix(1, 0, 0, 1, 331, 0.000000000000039746)"><g clip-path="url(#701b5bc9d3)"><g clip-path="url(#da6695efc0)"><path stroke-linecap="butt" transform="matrix(0.529375, 0.531283, -0.531283, 0.529375, 2.045485, -383.236367)" fill="none" stroke-linejoin="miter" d="M 0.000401415 0.497752 L 1609.875322 0.500255 " stroke="#000000" stroke-width="1" stroke-opacity="1" stroke-miterlimit="4"/></g></g></g></g><g mask="url(#32abbb0aec)"><g transform="matrix(1, 0, 0, 1, 209, 0.000000000000039746)"><g clip-path="url(#b72fd73331)"><g clip-path="url(#47d124996e)"><path stroke-linecap="butt" transform="matrix(0.529375, 0.531283, -0.531283, 0.529375, 1.526004, -260.716959)" fill="none" stroke-linejoin="miter" d="M 0.00047045 0.497915 L 1609.875391 0.500418 " stroke="#000000" stroke-width="1" stroke-opacity="1" stroke-miterlimit="4"/></g></g></g></g><g mask="url(#ee38a8a786)"><g transform="matrix(1, 0, 0, 1, 362, 0.000000000000039746)"><g clip-path="url(#358bbfec69)"><g clip-path="url(#5e9c189ed7)"><path stroke-linecap="butt" transform="matrix(0.529375, 0.531283, -0.531283, 0.529375, 1.675337, -413.866255)" fill="none" stroke-linejoin="miter" d="M 0.000438715 0.499569 L 1609.87167 0.498396 " stroke="#000000" stroke-width="1" stroke-opacity="1" stroke-miterlimit="4"/></g></g></g></g><g mask="url(#7fb7d7c714)"><g transform="matrix(1, 0, 0, 1, 270, 0.000000000000039746)"><g clip-path="url(#83eead06f5)"><g clip-path="url(#20eb2d3ae7)"><path stroke-linecap="butt" transform="matrix(0.529375, 0.531283, -0.531283, 0.529375, 1.785722, -321.976721)" fill="none" stroke-linejoin="miter" d="M 0.000517628 0.50155 L 1609.871748 0.500377 " stroke="#000000" stroke-width="1" stroke-opacity="1" stroke-miterlimit="4"/></g></g></g></g></svg>